<svg width="30" height="30" viewBox="0 0 30 30" fill="none" xmlns="http://www.w3.org/2000/svg">
<path d="M11.7722 16.0416L11.4083 16.783C10.8793 17.8642 10.6033 19.0556 10.6019 20.2637V25.6132C10.6024 26.1134 10.7977 26.593 11.1449 26.9468C11.492 27.3005 11.9627 27.4994 12.4537 27.5H19.3981C19.8891 27.4994 20.3598 27.3005 20.707 26.9468C21.0542 26.593 21.2494 26.1134 21.25 25.6132V19.717C21.2501 18.2643 21.0474 16.819 20.6481 15.4245L18.8194 9.03644V7.21698C18.8211 6.94925 18.9208 6.69181 19.0992 6.49516C19.2775 6.29851 19.5215 6.17686 19.7833 6.15407C19.8992 6.14436 20.0072 6.09062 20.0859 6.00353C20.1646 5.91644 20.2083 5.80237 20.2083 5.68396C20.2074 4.83982 19.8779 4.03052 19.292 3.43361C18.7062 2.83671 17.9118 2.50095 17.0833 2.5H9.67593C9.55314 2.5 9.43538 2.5497 9.34856 2.63816C9.26174 2.72662 9.21296 2.8466 9.21296 2.9717V4.85849C9.21296 4.98359 9.26174 5.10357 9.34856 5.19203C9.43538 5.28049 9.55314 5.33019 9.67593 5.33019H11.0498C10.9733 6.62054 10.5809 7.87083 9.90833 8.96698L8.82037 10.7406C8.77657 10.812 8.75233 10.894 8.75016 10.9782C8.74799 11.0624 8.76797 11.1456 8.80804 11.2192C8.8481 11.2929 8.90678 11.3543 8.97798 11.397C9.04919 11.4397 9.13032 11.4623 9.21296 11.4623H11.0648C11.1385 11.4623 11.2111 11.4443 11.2767 11.41C11.3422 11.3756 11.3987 11.3258 11.4416 11.2647L12.3833 9.92146C12.8005 9.32725 13.1358 8.67752 13.3796 7.99045V9.10377C13.3768 11.5118 12.8266 13.8865 11.7722 16.0416ZM20.3241 19.717V25.6132C20.3238 25.8633 20.2261 26.1031 20.0526 26.28C19.879 26.4568 19.6436 26.5563 19.3981 26.5566H12.4537C12.2082 26.5563 11.9729 26.4568 11.7993 26.28C11.6257 26.1031 11.5281 25.8633 11.5278 25.6132V20.2637C11.5291 19.2021 11.7716 18.1553 12.2365 17.2052L12.6003 16.4637C13.6491 14.3199 14.2286 11.9697 14.2988 9.57547H18.0093L19.7593 15.6887C20.134 16.9974 20.3242 18.3537 20.3241 19.717ZM17.8935 8.63208H14.3056V7.68868H17.8935V8.63208ZM19.2515 5.30814C18.9334 5.41682 18.6473 5.60549 18.4197 5.85669C18.1921 6.10789 18.0304 6.41351 17.9494 6.74528H13.8426V4.85849C13.8426 4.73339 13.7938 4.61341 13.707 4.52495C13.6202 4.43649 13.5024 4.38679 13.3796 4.38679H10.1389V3.4434L17.0833 3.4434C17.6025 3.44409 18.1047 3.63155 18.5013 3.97272C18.898 4.31389 19.1637 4.78684 19.2515 5.30814ZM11.6299 9.37311L10.8266 10.5189H10.0483L10.6935 9.46698C11.4584 8.22103 11.9005 6.79767 11.9782 5.33019H12.9167C12.9094 6.78115 12.4597 8.19394 11.6299 9.37311Z" fill="black" stroke="black" stroke-width="0.2"/>
</svg>
