<svg width="30" height="30" viewBox="0 0 30 30" fill="none" xmlns="http://www.w3.org/2000/svg">
<mask id="mask0" mask-type="alpha" maskUnits="userSpaceOnUse" x="0" y="0" width="30" height="30">
<path d="M27.5 28.125L1.875 2.49594L0 4.99594V30H30V0H5L3.75 2.23471L28.5645 27.0605L27.5 28.125Z" fill="white"/>
</mask>
<g mask="url(#mask0)">
<path d="M16.4833 10.3125C16.4833 12.9264 14.409 15.025 11.875 15.025V16.225C15.094 16.225 17.6833 13.5666 17.6833 10.3125H16.4833ZM11.875 15.025C9.34103 15.025 7.26667 12.9264 7.26667 10.3125H6.06667C6.06667 13.5666 8.656 16.225 11.875 16.225V15.025ZM7.26667 10.3125C7.26667 7.6986 9.34103 5.6 11.875 5.6V4.4C8.656 4.4 6.06667 7.05837 6.06667 10.3125H7.26667ZM11.875 5.6C14.409 5.6 16.4833 7.6986 16.4833 10.3125H17.6833C17.6833 7.05837 15.094 4.4 11.875 4.4V5.6ZM3.07619 26.4173C4.26356 22.329 7.77657 19.4125 11.875 19.4125V18.2125C7.17506 18.2125 3.24031 21.5497 1.92381 26.0827L3.07619 26.4173ZM24.1222 14.6875C24.1222 16.2489 22.842 17.525 21.25 17.525V18.725C23.4933 18.725 25.3222 16.923 25.3222 14.6875H24.1222ZM21.25 17.525C19.658 17.525 18.3778 16.2489 18.3778 14.6875H17.1778C17.1778 16.923 19.0067 18.725 21.25 18.725V17.525ZM18.3778 14.6875C18.3778 13.1261 19.658 11.85 21.25 11.85V10.65C19.0067 10.65 17.1778 12.452 17.1778 14.6875H18.3778ZM21.25 11.85C22.842 11.85 24.1222 13.1261 24.1222 14.6875H25.3222C25.3222 12.452 23.4933 10.65 21.25 10.65V11.85ZM21.25 22.0375C23.894 22.0375 26.1595 23.8633 26.9252 26.422L28.0748 26.078C27.1712 23.0582 24.4716 20.8375 21.25 20.8375V22.0375ZM20.0408 23.4061C20.3842 23.1168 20.587 22.8317 20.7088 22.5528C20.8162 22.3065 20.8614 22.0323 20.8735 21.9839C20.8839 21.9426 20.884 21.9606 20.8626 21.9934C20.8339 22.0376 20.7963 22.0654 20.7742 22.0765C20.7711 22.0781 20.8669 22.0375 21.25 22.0375V20.8375C20.8582 20.8375 20.5072 20.8675 20.2349 21.0046C20.0781 21.0834 19.9503 21.1952 19.8569 21.3388C19.7708 21.4711 19.7317 21.604 19.7095 21.6923C19.6567 21.9032 19.6636 21.9475 19.6089 22.0728C19.5685 22.1654 19.4852 22.3051 19.2678 22.4882L20.0408 23.4061ZM11.875 19.4125C14.8278 19.4125 17.47 20.9219 19.1661 23.2959L20.1425 22.5983C18.245 19.9424 15.2545 18.2125 11.875 18.2125V19.4125ZM19.1661 23.2959C19.8263 24.2201 20.3417 25.2739 20.6738 26.4173L21.8262 26.0827C21.4565 24.8096 20.8817 23.633 20.1425 22.5983L19.1661 23.2959Z" fill="black"/>
<path d="M2.5 3.75L26.25 27.5" stroke="black" stroke-width="1.5"/>
</g>
</svg>
