<svg width="30" height="30" viewBox="0 0 30 30" fill="none" xmlns="http://www.w3.org/2000/svg">
<mask id="mask0" mask-type="alpha" maskUnits="userSpaceOnUse" x="0" y="0" width="30" height="30">
<path d="M27.5 28.125L1.875 2.49594L0 4.99594V30H30V0H5L3.75 2.23471L28.5645 27.0605L27.5 28.125Z" fill="white"/>
</mask>
<g mask="url(#mask0)">
<path d="M9.59375 10.001C11.7188 10.001 12.25 11.0303 14.375 11.0303C16.5 11.0303 17.0313 10.001 19.1562 10.001C21.8125 10.001 25 12.5744 25 17.7211C25 22.8679 21.2812 27.5 19.1562 27.5C17.0313 27.5 15.9687 26.4706 14.375 26.4706C12.7812 26.4706 11.7188 27.5 9.59375 27.5C7.46875 27.5 3.75 22.8679 3.75 17.7211C3.75 12.5744 6.9375 10.001 9.59375 10.001Z" stroke="black" stroke-width="1.2"/>
<path d="M14.3904 8.40648C15.975 8.79009 17.8183 8.33681 19.1562 7.08449C20.4942 5.83216 20.9746 4.11031 20.5592 2.63235C18.9746 2.24874 17.1312 2.70202 15.7933 3.95434C14.4554 5.20666 13.975 6.92852 14.3904 8.40648Z" stroke="black" stroke-width="1.2"/>
<path d="M2.5 3.75L26.25 27.5" stroke="black" stroke-width="1.5"/>
</g>
</svg>
