<svg xmlns="http://www.w3.org/2000/svg" viewBox="0 0 24 24">
    <defs>
        <style>.cls-1{fill:none;stroke:#323232;stroke-width:1.2px;}.cls-2{fill:#323232;}</style>
    </defs>
    <title>Ellipse 3</title>
    <circle class="cls-1" cx="12" cy="12" r="11.4"/>
    <path class="cls-2" d="M14.09,8.59a8.36,8.36,0,0,1-.82-3V3.49a.45.45,0,0,0-.4-.49H11.13a.45.45,0,0,0-.4.49V5.62a8.36,8.36,0,0,1-.82,3A9.2,9.2,0,0,0,9,12v6.38A2.42,2.42,0,0,0,11.13,21h1.74A2.42,2.42,0,0,0,15,18.38V12A9.2,9.2,0,0,0,14.09,8.59ZM9.8,12.49h4.4v5.4H9.8ZM10.62,9a9.2,9.2,0,0,0,.91-3.41V4h.94V5.62A9.2,9.2,0,0,0,13.38,9a10.24,10.24,0,0,1,.78,2.48H9.84A10.24,10.24,0,0,1,10.62,9Zm2.25,11H11.13a1.4,1.4,0,0,1-1.26-1.15h4.26A1.4,1.4,0,0,1,12.87,20Z" transform="translate(0 0)"/>
    <path class="cls-1" d="M4,4,20,20" transform="translate(0 0)"/>
</svg>
