<svg width="30" height="30" viewBox="0 0 30 30" fill="none" xmlns="http://www.w3.org/2000/svg">
<mask id="mask0" mask-type="alpha" maskUnits="userSpaceOnUse" x="0" y="0" width="30" height="30">
<path d="M27.5 28.125L1.875 2.49594L0 4.99594V30H30V0H5L3.75 2.23471L28.5645 27.0605L27.5 28.125Z" fill="white"/>
</mask>
<g mask="url(#mask0)">
<path d="M22.5 13.125H23.025C23.0802 13.125 23.125 13.1698 23.125 13.225V16.15C23.125 16.2052 23.0802 16.25 23.025 16.25H21.975C21.9198 16.25 21.875 16.2052 21.875 16.15V13.225C21.875 13.1698 21.9198 13.125 21.975 13.125H22.5ZM22.5 13.125V11.25L13.8063 2.55626M13.8063 2.55626C7.46266 3.15726 2.5 8.49908 2.5 15C2.5 21.9036 8.09644 27.5 15 27.5C21.9036 27.5 27.5 21.9036 27.5 15C27.5 8.09644 21.9036 2.5 15 2.5C14.5974 2.5 14.1992 2.51904 13.8063 2.55626ZM17.5 15C17.5 16.3807 16.3807 17.5 15 17.5C13.6193 17.5 12.5 16.3807 12.5 15C12.5 13.6193 13.6193 12.5 15 12.5C16.3807 12.5 17.5 13.6193 17.5 15Z" stroke="black" stroke-width="1.2"/>
<path d="M2.5 3.75L26.25 27.5" stroke="black" stroke-width="1.5"/>
</g>
</svg>
