<svg width="30" height="30" viewBox="0 0 30 30" fill="none" xmlns="http://www.w3.org/2000/svg">
<mask id="mask0" mask-type="alpha" maskUnits="userSpaceOnUse" x="0" y="0" width="30" height="30">
<path d="M27.5 28.125L1.875 2.49594L0 4.99594V30H30V0H5L3.75 2.23471L28.5645 27.0605L27.5 28.125Z" fill="white"/>
</mask>
<g mask="url(#mask0)">
<path d="M26.25 16.25H3.75M26.25 16.25C26.25 13.9373 25.5522 11.7876 24.3556 10M26.25 16.25C26.25 18.5627 25.5522 20.7124 24.3556 22.5M15 27.5V5.27877M15 27.5C12.6999 27.5 10.561 26.8097 8.77913 25.625M15 27.5C17.3001 27.5 19.439 26.8097 21.2209 25.625M3.75 16.25C3.75 13.9373 4.44784 11.7876 5.64444 10M3.75 16.25C3.75 18.5627 4.44784 20.7124 5.64444 22.5M12.5 5.27877V3.5C12.5 2.94772 12.9477 2.5 13.5 2.5H16.5C17.0523 2.5 17.5 2.94772 17.5 3.5V5.27877M12.5 5.27877H15M12.5 5.27877C11.1517 5.58472 9.89534 6.13285 8.77913 6.875M17.5 5.27877H15M17.5 5.27877C18.8483 5.58472 20.1047 6.13285 21.2209 6.875M8.77913 6.875V25.625M8.77913 6.875C7.53938 7.6993 6.47249 8.76296 5.64444 10M8.77913 25.625C7.53938 24.8007 6.47249 23.737 5.64444 22.5M21.2209 6.875V25.625M21.2209 6.875C22.4606 7.6993 23.5275 8.76296 24.3556 10M21.2209 25.625C22.4606 24.8007 23.5275 23.737 24.3556 22.5M5.64444 10H24.3556M5.64444 22.5H24.3556" stroke="black" stroke-width="1.2"/>
<path d="M2.5 3.75L26.25 27.5" stroke="black" stroke-width="1.5"/>
</g>
</svg>
