<svg width="30" height="30" viewBox="0 0 30 30" fill="none" xmlns="http://www.w3.org/2000/svg">
<path fill-rule="evenodd" clip-rule="evenodd" d="M5.625 11.3971L6.25 18.4559C6.66123 21.3071 8.1434 23.75 11.25 23.75C14.3566 23.75 15.8636 21.4245 16.25 18.4559L16.875 11.3971V9.04412C16.875 6.12026 14.3566 3.75 11.25 3.75V8.45588L5.625 11.3971Z" fill="white"/>
<path d="M11.25 3.75C14.3566 3.75 16.875 6.12026 16.875 9.04412V11.3971M11.25 3.75C8.1434 3.75 5.625 6.12026 5.625 9.04412V11.3971M11.25 3.75V8.45588M11.25 8.45588L5.625 11.3971M11.25 8.45588L16.875 11.3971M5.625 11.3971L6.25 18.4559C6.66123 21.3071 8.1434 23.75 11.25 23.75C14.3566 23.75 15.8636 21.4245 16.25 18.4559L16.875 11.3971" stroke="black" stroke-width="1.2"/>
<path d="M13.125 11.5441C13.125 8.62026 15.6434 6.25 18.75 6.25C21.8566 6.25 24.375 8.62026 24.375 11.5441V13.8971L23.75 20.9559C23.3636 23.9245 21.8566 26.25 18.75 26.25C15.6434 26.25 14.1612 23.8071 13.75 20.9559L13.125 13.8971V11.5441Z" fill="white"/>
<path d="M18.75 6.25C21.8566 6.25 24.375 8.62026 24.375 11.5441V13.8971M18.75 6.25C15.6434 6.25 13.125 8.62026 13.125 11.5441V13.8971M18.75 6.25V10.9559M18.75 10.9559L13.125 13.8971M18.75 10.9559L24.375 13.8971M13.125 13.8971L13.75 20.9559C14.1612 23.8071 15.6434 26.25 18.75 26.25C21.8566 26.25 23.3636 23.9245 23.75 20.9559L24.375 13.8971" stroke="black" stroke-width="1.2"/>
<mask id="mask0" mask-type="alpha" maskUnits="userSpaceOnUse" x="0" y="0" width="30" height="30">
<path d="M27.5 28.125L1.875 2.49594L0 4.99594V30H30V0H5L3.75 2.23471L28.5645 27.0605L27.5 28.125Z" fill="white"/>
</mask>
<g mask="url(#mask0)">
<path d="M2.5 3.75L26.25 27.5" stroke="black" stroke-width="1.5"/>
</g>
</svg>
