<svg width="30" height="30" viewBox="0 0 30 30" fill="none" xmlns="http://www.w3.org/2000/svg">
<path d="M12.6449 14.1579L12.645 14.1579L12.6519 14.1501C13.2296 13.5048 14.0671 13.1 15 13.1C15.9329 13.1 16.7704 13.5048 17.3481 14.1501L17.348 14.1502L17.3551 14.1579L22.3264 19.5211C22.8421 20.1667 23.15 20.9841 23.15 21.875C23.15 23.9599 21.4599 25.65 19.375 25.65C18.6706 25.65 18.0129 25.4576 17.4497 25.1229C17.3767 25.0795 17.3052 25.0337 17.2354 24.9856L17.2173 24.9731L17.1984 24.9621C16.5529 24.5833 15.8009 24.3663 15 24.3663C14.2148 24.3663 13.4342 24.5965 12.805 24.9601L12.7843 24.972L12.7646 24.9856C12.1567 25.4047 11.4204 25.65 10.625 25.65C8.54012 25.65 6.85 23.9599 6.85 21.875C6.85 20.9841 7.15789 20.1667 7.67358 19.5211L12.6449 14.1579ZM13.775 7.1875C13.775 8.75461 12.5046 10.025 10.9375 10.025C9.37039 10.025 8.1 8.75461 8.1 7.1875C8.1 5.62039 9.37039 4.35 10.9375 4.35C12.5046 4.35 13.775 5.62039 13.775 7.1875ZM19.0625 10.025C17.4954 10.025 16.225 8.75461 16.225 7.1875C16.225 5.62039 17.4954 4.35 19.0625 4.35C20.6296 4.35 21.9 5.62039 21.9 7.1875C21.9 8.75461 20.6296 10.025 19.0625 10.025ZM8.775 13.4375C8.775 15.0046 7.50461 16.275 5.9375 16.275C4.37039 16.275 3.1 15.0046 3.1 13.4375C3.1 11.8704 4.37039 10.6 5.9375 10.6C7.50461 10.6 8.775 11.8704 8.775 13.4375ZM24.0625 16.275C22.4954 16.275 21.225 15.0046 21.225 13.4375C21.225 11.8704 22.4954 10.6 24.0625 10.6C25.6296 10.6 26.9 11.8704 26.9 13.4375C26.9 15.0046 25.6296 16.275 24.0625 16.275Z" stroke="black" stroke-width="1.2"/>
</svg>
