<svg width="24" height="23" viewBox="0 0 24 23" fill="none" xmlns="http://www.w3.org/2000/svg">
<path d="M15.5767 0.00264898C14.0408 0.0770066 12.7315 1.71631 12.5327 3.90653C12.3206 6.24272 13.4626 8.19154 15.1315 8.3437C16.9904 8.51225 18.299 6.50701 18.4855 4.44605C18.6977 2.11047 17.5562 0.161051 15.8868 0.00888929C15.7826 -0.000374821 15.6792 -0.00230443 15.5769 0.00266363L15.5767 0.00264898ZM7.97629 0.23335C7.87352 0.23455 7.77007 0.242462 7.66635 0.257784C6.0098 0.510675 4.98864 2.5257 5.34158 4.84425C5.67468 7.03655 7.09922 8.60317 8.65314 8.55613C10.6325 8.49619 11.5857 6.1501 11.2505 3.94544C10.9194 1.7713 9.51778 0.217235 7.97633 0.233555L7.97629 0.23335ZM7.97089 1.42907C8.89394 1.40112 9.83535 2.59253 10.0683 4.12478C10.3124 5.72658 9.70601 7.20329 8.74526 7.34897C7.77684 7.49789 6.76648 6.26551 6.52309 4.66551C6.27971 3.06548 6.88555 1.58699 7.84628 1.44107C7.88751 1.43435 7.92912 1.43031 7.97087 1.42894L7.97089 1.42907ZM15.6882 1.19591C15.7185 1.19605 15.7488 1.1976 15.7792 1.20041C16.7513 1.29057 17.4411 2.72514 17.2951 4.33868C17.1484 5.95112 16.2102 7.242 15.2394 7.15176C14.2685 7.06156 13.5786 5.62684 13.7235 4.01323C13.8638 2.45007 14.7492 1.19104 15.6882 1.19584L15.6882 1.19591ZM21.8219 4.7494C20.7092 4.765 19.4816 5.59395 18.6997 6.96938C17.6574 8.80329 17.8584 10.8214 19.1581 11.5606C20.6031 12.3797 22.418 11.2167 23.3339 9.60547C24.3763 7.77156 24.1741 5.75655 22.8756 5.0147C22.5509 4.82929 22.1928 4.74412 21.8219 4.74933L21.8219 4.7494ZM2.02962 5.35181C1.65898 5.3689 1.30644 5.47513 0.99343 5.67896C-0.258593 6.49424 -0.337121 8.51843 0.814402 10.2889C1.6685 11.5978 2.92465 12.3443 4.02804 12.3109C5.95181 12.2526 6.89079 9.84724 5.28023 7.37425C4.41675 6.05133 3.14144 5.30049 2.02963 5.35178L2.02962 5.35181ZM2.09633 6.55148C3.0219 6.65917 3.83717 7.21046 4.28185 8.02932C5.10419 9.29668 5.03075 10.6062 4.45134 10.9826C3.8691 11.3638 2.6442 10.9003 1.81875 9.63307C0.993432 8.36581 1.0668 7.05952 1.64914 6.68055C1.7833 6.59696 1.93815 6.5522 2.09622 6.5515L2.09633 6.55148ZM21.815 5.95476C21.9928 5.94686 22.1532 5.97993 22.2854 6.05494C22.8896 6.39783 23.0426 7.69805 22.2949 9.01298C21.5472 10.3279 20.3525 10.8657 19.7487 10.5198C19.145 10.1739 18.9922 8.87614 19.7393 7.56129C20.323 6.53357 21.1798 5.98303 21.8149 5.95483L21.815 5.95476ZM12.0478 9.07816C6.03334 9.2603 3.21595 15.607 5.09301 20.2057C5.55156 21.3279 6.14844 22.0006 6.91741 22.256C8.89024 22.9096 11.0637 20.4135 12.39 20.3734C13.5251 20.339 15.4841 22.1293 17.2027 22.0773C18.5105 22.0377 19.2401 21.0127 19.6635 19.7644C21.2927 14.9574 17.9775 8.89876 12.048 9.07828L12.0478 9.07816ZM12.0844 10.2642C14.1752 10.2009 16.1664 11.1575 17.4238 12.8292L17.4273 12.829C19.8178 16.0599 18.7811 20.3078 17.5238 20.8118C16.283 21.305 14.0757 19.1263 12.3561 19.1784C10.6367 19.2305 8.57053 21.5374 7.29683 21.1215C6.01378 20.6951 4.71464 16.5232 6.91 13.1476C8.06393 11.4029 9.99379 10.3276 12.0845 10.2644L12.0844 10.2642Z" fill="#323232"/>
</svg>
