<svg width="27" height="27" viewBox="0 0 27 27" fill="none" xmlns="http://www.w3.org/2000/svg">
<path d="M24.2763 24.467H22.2073C21.6326 24.467 21.0579 24.1132 20.7705 23.5825L18.0119 18.7476H11.5177C11.5177 18.7476 11.5177 18.7476 11.4602 18.7476C10.1383 18.7476 9.04639 17.6273 9.04639 16.2712V7.78066C9.04639 7.54481 9.2188 7.30896 9.50616 7.30896H13.4717C13.7016 7.30896 13.9314 7.48585 13.9314 7.78066V10.0212H18.0119C18.9314 10.0212 19.6786 10.7877 19.6786 11.7311C19.6786 12.6745 18.9314 13.441 18.0119 13.441H13.9314V15.2689H19.0464C19.6211 15.2689 20.1958 15.6226 20.4832 16.1533L23.2418 20.9882H24.3337C25.2533 20.9882 26.0004 21.7547 26.0004 22.6981C25.9429 23.7005 25.1958 24.467 24.2763 24.467ZM11.4602 17.9222H18.2418C18.4142 17.9222 18.5291 17.9811 18.5866 18.158L21.4602 23.1698C21.6326 23.4056 21.8625 23.5825 22.1498 23.5825H24.2188C24.6786 23.5825 25.0234 23.2288 25.0234 22.7571C25.0234 22.2854 24.6786 21.9316 24.2188 21.9316H22.897C22.7245 21.9316 22.6096 21.8726 22.5521 21.6957L19.6786 16.6839C19.5062 16.4481 19.2763 16.2712 18.9889 16.2712H13.4717C13.2418 16.2712 13.0119 16.0943 13.0119 15.7995V13.0873C13.0119 12.8514 13.1843 12.6156 13.4717 12.6156H17.9544C18.4142 12.6156 18.759 12.2618 18.759 11.7901C18.759 11.3184 18.4142 10.9646 17.9544 10.9646H13.4717C13.2418 10.9646 13.0119 10.7877 13.0119 10.4929V8.25235H9.90846V16.3302C9.90846 17.1556 10.5981 17.8632 11.4602 17.9222Z" fill="#323232" stroke="#323232" stroke-width="0.2"/>
<path d="M11.5745 6.66037C10.0228 6.66037 8.81592 5.3632 8.81592 3.83019C8.81592 2.23821 10.0803 1 11.5745 1C13.0688 1 14.3332 2.29717 14.3332 3.83019C14.3332 5.3632 13.1263 6.66037 11.5745 6.66037ZM11.5745 1.82547C10.5401 1.82547 9.67799 2.7099 9.67799 3.77122C9.67799 4.83254 10.5401 5.71698 11.5745 5.71698C12.609 5.71698 13.4711 4.83254 13.4711 3.77122C13.4711 2.7099 12.609 1.82547 11.5745 1.82547Z" fill="#323232" stroke="#323232" stroke-width="0.2"/>
<path d="M10.0805 26.0001C5.08046 26.0001 1 21.8138 1 16.6841C1 11.5544 5.08046 7.36804 10.0805 7.36804C10.3103 7.36804 10.4828 7.54493 10.4828 7.83974C10.4828 8.07559 10.3103 8.31144 10.0805 8.31144C5.54023 8.31144 1.86207 12.085 1.86207 16.743C1.86207 21.3421 5.54023 25.1157 10.0805 25.1157C13.8736 25.1157 17.1494 22.4624 18.069 18.6888C18.1264 18.4529 18.3563 18.335 18.5862 18.394C18.8161 18.4529 18.931 18.6888 18.8736 18.9246C17.954 23.052 14.2759 26.0001 10.0805 26.0001Z" fill="#323232" stroke="#323232" stroke-width="0.2"/>
</svg>
