<svg width="30" height="30" viewBox="0 0 30 30" fill="none" xmlns="http://www.w3.org/2000/svg">
<mask id="mask0" mask-type="alpha" maskUnits="userSpaceOnUse" x="3" y="15" width="16" height="13">
<path d="M3.75 15H11.25V22.5H18.75V27.5H3.75V15Z" fill="white"/>
</mask>
<g mask="url(#mask0)">
<circle cx="12.5" cy="21.25" r="5.65" stroke="black" stroke-width="1.2"/>
</g>
<path d="M21.85 21.25V20.65H21.25H15C13.9507 20.65 13.1 19.7993 13.1 18.75V11.25C13.1 10.2007 13.9507 9.35 15 9.35C15.4503 9.35 16.0868 9.61905 16.5488 10.0223C16.6417 10.1034 16.756 10.2323 16.9264 10.4381C16.9637 10.4832 17.0033 10.5315 17.0451 10.5824C17.1833 10.7507 17.3456 10.9484 17.5301 11.1593C18.0187 11.7175 18.6818 12.3908 19.6504 13.0853C20.6631 13.8113 21.6911 14.1267 22.4642 14.261C22.7234 14.306 22.9552 14.3309 23.15 14.344V15.6167C22.344 15.5366 21.2297 15.3077 20.2386 14.8781C19.6239 14.6116 19.042 14.223 18.6058 13.8917C18.3898 13.7276 18.2141 13.5811 18.0934 13.4764C18.0331 13.4242 17.9868 13.3826 17.9562 13.3547C17.9409 13.3407 17.9295 13.3302 17.9224 13.3236L17.9148 13.3165L17.9137 13.3154L17.9136 13.3153L17.9135 13.3152L17.9134 13.3152L17.9133 13.3151L16.9 12.3505V13.75V18.2694V18.8694H17.5H21.25C22.2993 18.8694 23.15 19.7201 23.15 20.7694V26.9H21.85V21.25ZM16.9 5C16.9 6.04934 16.0493 6.9 15 6.9C13.9507 6.9 13.1 6.04934 13.1 5C13.1 3.95066 13.9507 3.1 15 3.1C16.0493 3.1 16.9 3.95066 16.9 5Z" fill="black" stroke="black" stroke-width="1.2"/>
</svg>
