<svg
      width="955"
      height="140"
      viewBox="0 0 955 140"
      xmlns="http://www.w3.org/2000/svg"
      class="text-primary fill-current w-165 h-35"
      fill="#fff"
   >
      <path
         d="M263.75 114.5C249.75 114.5 239.25 111.4 232.25 105.2C225.35 99 221.5 90.5001 220.7 79.7001H239.9C240.7 86.0001 242.8 90.9001 246.2 94.4001C249.6 97.8001 255.45 99.5001 263.75 99.5001C269.75 99.5001 274.6 98.0001 278.3 95.0001C282.1 91.9001 284 87.9001 284 83.0001C284 78.0001 282.45 74.3501 279.35 72.0501C276.25 69.7501 270.35 67.9001 261.65 66.5001C248.35 64.7001 238.7 61.5001 232.7 56.9001C226.8 52.2001 223.85 44.95 223.85 35.15C223.85 26.25 227.3 18.9 234.2 13.1001C241.1 7.30005 250.1 4.40005 261.2 4.40005C272.8 4.40005 281.95 7.05005 288.65 12.3501C295.35 17.5501 299.2 25.2501 300.2 35.4501H281.9C280.9 29.8501 278.75 25.8 275.45 23.3C272.15 20.7 267.4 19.4001 261.2 19.4001C255.3 19.4001 250.75 20.7 247.55 23.3C244.35 25.8 242.75 29.2001 242.75 33.5C242.75 38.1 244.2 41.55 247.1 43.85C250.1 46.15 256.05 47.9501 264.95 49.2501C278.25 51.0501 287.95 54.3001 294.05 59.0001C300.15 63.6001 303.2 71.0501 303.2 81.3501C303.2 90.8501 299.55 98.7501 292.25 105.05C284.95 111.35 275.45 114.5 263.75 114.5Z"
      />
      <path
         d="M340.215 114.35C332.515 114.35 326.615 112.35 322.515 108.35C318.515 104.35 316.515 98.6001 316.515 91.1001V48.2001H306.015V34.5501H316.515V17.3001H334.665V34.5501H351.915V48.2001H334.665V89.4501C334.665 96.1501 337.665 99.5001 343.665 99.5001C347.165 99.5001 350.115 99.0001 352.515 98.0001V112.4C349.015 113.7 344.915 114.35 340.215 114.35Z"
      />
      <path
         d="M382.668 114.5C374.968 114.5 368.668 112.6 363.768 108.8C358.868 104.9 356.418 99.0501 356.418 91.2501C356.418 82.6501 360.068 76.3501 367.368 72.3501C374.668 68.3501 384.418 66.3501 396.618 66.3501H406.368V62.3C406.368 56.9 405.268 52.9501 403.068 50.4501C400.968 47.8501 397.318 46.55 392.118 46.55C383.018 46.55 378.018 50.6501 377.118 58.8501H359.568C360.268 50.1501 363.668 43.65 369.768 39.35C375.968 35.05 383.768 32.9 393.168 32.9C414.068 32.9 424.518 42.45 424.518 61.55V113H406.668V103.4C401.068 110.8 393.068 114.5 382.668 114.5ZM387.018 101.45C392.718 101.45 397.368 100.05 400.968 97.2501C404.568 94.3501 406.368 90.45 406.368 85.55V77.7501H397.068C381.968 77.7501 374.418 82.0001 374.418 90.5001C374.418 97.8001 378.618 101.45 387.018 101.45Z"
      />
      <path
         d="M444.324 139.85L458.574 105.05L427.524 34.5501H447.174L468.024 85.1001L487.224 34.5501H504.924L462.174 139.85H444.324Z"
      />
      <path
         d="M511.034 113V34.5501H529.184V46.55C531.184 42.65 534.284 39.4001 538.484 36.8001C542.684 34.2001 547.534 32.9 553.034 32.9C564.034 32.9 571.434 37.6 575.234 47C578.134 42.4 581.984 38.9 586.784 36.5C591.584 34.1 596.584 32.9 601.784 32.9C609.484 32.9 615.734 35.45 620.534 40.5501C625.434 45.5501 627.884 53.1501 627.884 63.3501V113H609.734V64.55C609.734 53.55 605.084 48.05 595.784 48.05C590.984 48.05 586.884 49.6501 583.484 52.8501C580.184 55.9501 578.534 60.3501 578.534 66.05V113H560.384V64.55C560.384 53.55 555.734 48.05 546.434 48.05C541.634 48.05 537.534 49.6501 534.134 52.8501C530.834 55.9501 529.184 60.3501 529.184 66.05V113H511.034Z"
      />
      <path
         d="M675.73 114.5C664.03 114.5 654.48 110.9 647.08 103.7C639.68 96.5001 635.98 86.8001 635.98 74.6001V73.4001C635.98 61.4001 639.63 51.6501 646.93 44.1501C654.33 36.65 663.68 32.9 674.98 32.9C685.58 32.9 694.38 36.2 701.38 42.8C708.48 49.4001 712.03 59.3001 712.03 72.5001V77.7501H654.58C654.88 85.2501 656.88 91.0001 660.58 95.0001C664.28 99.0001 669.48 101 676.18 101C686.78 101 692.78 97.0001 694.18 89.0001H711.73C710.43 97.2001 706.63 103.5 700.33 107.9C694.03 112.3 685.83 114.5 675.73 114.5ZM654.88 65.6001H694.03C693.13 52.6001 686.78 46.1001 674.98 46.1001C669.58 46.1001 665.08 47.8501 661.48 51.3501C657.98 54.7501 655.78 59.5001 654.88 65.6001Z"
      />
      <path
         d="M720.741 113V34.5501H738.891V47C740.891 42.9 744.091 39.55 748.491 36.9501C752.891 34.25 758.141 32.9 764.241 32.9C772.541 32.9 779.091 35.45 783.891 40.5501C788.691 45.5501 791.091 53.25 791.091 63.65V113H772.941V65.3C772.941 59.4001 771.691 55.05 769.191 52.25C766.691 49.45 762.741 48.05 757.341 48.05C751.941 48.05 747.491 49.7001 743.991 53.0001C740.591 56.2001 738.891 60.8 738.891 66.8V113H720.741Z"
      />
      <path
         d="M804.951 113V34.5501H823.101V113H804.951ZM821.451 18.6501C819.351 20.65 816.801 21.6501 813.801 21.6501C810.801 21.6501 808.251 20.65 806.151 18.6501C804.051 16.65 803.001 14.2 803.001 11.3C803.001 8.30005 804.051 5.80005 806.151 3.80005C808.251 1.80005 810.801 0.800049 813.801 0.800049C816.801 0.800049 819.351 1.80005 821.451 3.80005C823.551 5.80005 824.601 8.30005 824.601 11.3C824.601 14.2 823.551 16.65 821.451 18.6501Z"
      />
      <path
         d="M864.424 114.35C856.724 114.35 850.824 112.35 846.724 108.35C842.724 104.35 840.724 98.6001 840.724 91.1001V48.2001H830.224V34.5501H840.724V17.3001H858.874V34.5501H876.124V48.2001H858.874V89.4501C858.874 96.1501 861.874 99.5001 867.874 99.5001C871.374 99.5001 874.324 99.0001 876.724 98.0001V112.4C873.224 113.7 869.124 114.35 864.424 114.35Z"
      />
      <path
         d="M894.295 139.85L908.545 105.05L877.495 34.5501H897.145L917.995 85.1001L937.195 34.5501H954.895L912.145 139.85H894.295Z"
      />
      <path
         d="M149.054 30.4153C141.922 26.9861 133.112 29.9867 129.756 37.2738C120.107 57.4205 100.81 69.8515 78.5754 69.8515C56.7608 69.8515 37.0437 57.4205 27.3949 37.2738C24.0388 29.9867 15.229 26.9861 8.09733 30.4153C0.965619 33.8445 -1.97097 42.8463 1.38513 50.1334C15.6486 80.1392 45.4339 99 78.1559 99C110.878 99 141.083 80.5679 155.346 50.1334C159.122 42.8463 156.185 34.2732 149.054 30.4153Z"
      />
   </svg>
