<?xml version="1.0" encoding="UTF-8"?>
<svg version="1.1" xmlns="http://www.w3.org/2000/svg" xmlns:xlink="http://www.w3.org/1999/xlink">
<defs>

</defs>
<symbol id="i-account" viewBox="0 0 24 24" xmlns="http://www.w3.org/2000/svg"><path fill-rule="evenodd" clip-rule="evenodd" d="M4.464 15.464A5 5 0 018 14h8a5 5 0 015 5v2a1 1 0 11-2 0v-2a3 3 0 00-3-3H8a3 3 0 00-3 3v2a1 1 0 11-2 0v-2a5 5 0 011.464-3.536zM12 4a3 3 0 100 6 3 3 0 000-6zM7 7a5 5 0 1110 0A5 5 0 017 7z"/></symbol>
<symbol id="i-apple" viewBox="0 0 21 24" xmlns="http://www.w3.org/2000/svg"><path d="M19.664 18.703c-.36.839-.787 1.61-1.282 2.32-.674.968-1.226 1.637-1.651 2.009-.66.61-1.366.923-2.123.94-.543 0-1.198-.155-1.96-.47-.765-.314-1.468-.47-2.11-.47-.675 0-1.398.156-2.171.47-.775.315-1.399.48-1.876.496-.725.031-1.448-.29-2.17-.966-.46-.404-1.037-1.098-1.727-2.08-.741-1.049-1.35-2.265-1.827-3.652C.257 15.803 0 14.352 0 12.948 0 11.34.345 9.953 1.037 8.79a6.103 6.103 0 012.172-2.21 5.814 5.814 0 012.936-.835c.576 0 1.332.18 2.27.532.937.354 1.538.533 1.802.533.197 0 .865-.21 1.997-.628 1.071-.388 1.975-.548 2.715-.485 2.006.163 3.513.96 4.516 2.393-1.794 1.094-2.682 2.627-2.664 4.593.016 1.531.568 2.806 1.653 3.817.491.47 1.04.833 1.651 1.09-.132.387-.272.758-.42 1.113zM15.064.48c0 1.2-.437 2.321-1.305 3.358-1.048 1.234-2.316 1.946-3.69 1.834a3.763 3.763 0 01-.028-.455c0-1.152.499-2.386 1.384-3.394.441-.51 1.003-.935 1.685-1.273.68-.334 1.323-.518 1.928-.55.018.16.025.32.025.48z"/></symbol>
<symbol id="i-arrow-down" viewBox="0 0 13 8" xmlns="http://www.w3.org/2000/svg"><path fill-rule="evenodd" clip-rule="evenodd" d="M.26.827A1 1 0 011.673.76L6.5 5.15 11.327.76a1 1 0 011.346 1.48l-5.5 5a1 1 0 01-1.346 0l-5.5-5A1 1 0 01.26.827z"/></symbol>
<symbol id="i-arrow-left" viewBox="0 0 8 14" xmlns="http://www.w3.org/2000/svg"><path d="M7.707.293a1 1 0 010 1.414L2.414 7l5.293 5.293a1 1 0 11-1.414 1.414l-6-6a1 1 0 010-1.414l6-6a1 1 0 011.414 0z"/></symbol>
<symbol id="i-arrow-right" viewBox="0 0 8 14" xmlns="http://www.w3.org/2000/svg"><path d="M.293.293a1 1 0 000 1.414L5.586 7 .293 12.293a1 1 0 101.414 1.414l6-6a1 1 0 000-1.414l-6-6a1 1 0 00-1.414 0z"/></symbol>
<symbol id="i-attach" viewBox="0 0 20 20" xmlns="http://www.w3.org/2000/svg"><path d="M11.764 0L1.657 10.222c-2.21 2.235-2.21 5.867 0 8.102a5.624 5.624 0 008.011 0l9.154-9.259a4.12 4.12 0 000-5.768 4.009 4.009 0 00-5.703 0l-9.343 9.45a2.46 2.46 0 00-.002 3.434 2.396 2.396 0 003.397 0l7.22-7.301-1.089-1.1-7.219 7.301a.838.838 0 01-1.22 0 .861.861 0 010-1.234l9.344-9.45a2.453 2.453 0 013.527 0 2.52 2.52 0 010 3.568L8.58 17.224a4.068 4.068 0 01-5.835 0 4.18 4.18 0 010-5.902L12.852 1.1 11.764 0z"/></symbol>
<symbol id="i-booking" viewBox="0 0 24 24" xmlns="http://www.w3.org/2000/svg"><path d="M22.785 7.211c-1.09-.511-2.437-.064-2.95 1.022-1.475 3.004-4.425 4.857-7.824 4.857-3.334 0-6.348-1.853-7.823-4.857-.513-1.086-1.86-1.533-2.95-1.022-1.09.511-1.54 1.853-1.026 2.94 2.18 4.472 6.733 7.284 11.735 7.284 5.003 0 9.62-2.748 11.8-7.285.577-1.086.128-2.364-.962-2.939z"/></symbol>
<symbol id="i-cancel" viewBox="0 0 14 16" fill="none" xmlns="http://www.w3.org/2000/svg"><path fill-rule="evenodd" clip-rule="evenodd" d="M.854 1.144a.5.5 0 10-.707.707L6.293 8 .146 14.149a.5.5 0 00.708.707L7 8.706l6.147 6.15a.5.5 0 10.707-.707l-6.147-6.15 6.147-6.148a.5.5 0 00-.707-.707L7 7.292.854 1.144z" fill="#5E5E5E"/></symbol>
<symbol id="i-checked" viewBox="0 0 16 12" xmlns="http://www.w3.org/2000/svg"><path d="M0 6.51L5.48 12 16 1.49 14.49 0 5.48 9 1.49 5.01 0 6.51z"/></symbol>
<symbol id="i-circle" viewBox="0 0 4 4" xmlns="http://www.w3.org/2000/svg"><circle cx="2" cy="2" r="2"/></symbol>
<symbol id="i-close" viewBox="0 0 12 12" xmlns="http://www.w3.org/2000/svg"><path fill-rule="evenodd" clip-rule="evenodd" d="M11.707 1.707A1 1 0 0010.293.293L6 4.586 1.707.293A1 1 0 00.293 1.707L4.586 6 .293 10.293a1 1 0 101.414 1.414L6 7.414l4.293 4.293a1 1 0 001.414-1.414L7.414 6l4.293-4.293z"/></symbol>
<symbol id="i-copyright" viewBox="0 0 14 14" xmlns="http://www.w3.org/2000/svg"><path d="M7 14a6.954 6.954 0 01-4.95-2.05A6.955 6.955 0 010 7c0-1.87.728-3.628 2.05-4.95A6.954 6.954 0 017 0c1.87 0 3.628.728 4.95 2.05A6.954 6.954 0 0114 7c0 1.87-.728 3.628-2.05 4.95A6.954 6.954 0 017 14zM7 1.094A5.913 5.913 0 001.094 7 5.913 5.913 0 007 12.906 5.913 5.913 0 0012.906 7 5.913 5.913 0 007 1.094zm2.47 8.42a.547.547 0 00-.774-.774c-.96.96-2.52.96-3.48 0A2.445 2.445 0 014.495 7c0-.657.256-1.275.72-1.74.96-.96 2.522-.96 3.481 0a.547.547 0 10.774-.774 3.559 3.559 0 00-5.028 0A3.531 3.531 0 003.402 7c0 .95.369 1.842 1.04 2.514a3.544 3.544 0 002.514 1.039c.91 0 1.82-.347 2.513-1.04z"/></symbol>
<symbol id="i-day" viewBox="0 0 24 24" fill="none" xmlns="http://www.w3.org/2000/svg"><path d="M23 13h-2a1 1 0 110-2h2a1 1 0 010 2zM19.073 6.343a1.001 1.001 0 01-1.415-1.414l1.415-1.414a1 1 0 011.414 1.414l-1.414 1.414zM12 6a6 6 0 100 12 6 6 0 000-12zm0 10a4 4 0 11.002-8.002A4 4 0 0112 16zM12 4a1 1 0 01-1-1V1a1 1 0 012 0v2c0 .552-.449 1-1 1zM4.93 6.343L3.516 4.93A1 1 0 014.93 3.515l1.414 1.414A1 1 0 014.93 6.343zM4 12a1 1 0 01-1 1H1a1 1 0 010-2h2a1 1 0 011 1zM4.93 17.657a1 1 0 011.414 1.414L4.93 20.485a1 1 0 11-1.414-1.414l1.414-1.414zM12 20a1 1 0 011 1v2a1 1 0 11-2 0v-2a1 1 0 011-1zM19.073 17.657l1.414 1.414a1 1 0 11-1.414 1.414l-1.415-1.414a1 1 0 011.415-1.414z" fill="#989898"/></symbol>
<symbol id="i-dots" viewBox="0 0 5 21" xmlns="http://www.w3.org/2000/svg"><circle cx="2.5" cy="2.5" r="2.5"/><circle cx="2.5" cy="10.5" r="2.5"/><circle cx="2.5" cy="18.5" r="2.5"/></symbol>
<symbol id="i-email" viewBox="0 0 24 17" xmlns="http://www.w3.org/2000/svg"><path d="M2.286 0C1.018 0 0 1.094 0 2.409v12.173C0 15.897 1.018 17 2.286 17h19.428C22.983 17 24 15.897 24 14.582V2.409C24 1.094 22.983 0 21.714 0H2.286zm0 1.172h19.428c.168 0 .33.042.474.11L12.74 10.25c-.436.415-1.018.415-1.455 0L1.82 1.282c.142-.065.3-.11.465-.11zM1.16 2.253L7.866 8.61l-6.58 6.567a1.337 1.337 0 01-.143-.595V2.409c0-.054.012-.104.018-.156zm21.678.01c.006.048.018.095.018.146v12.173c0 .215-.05.413-.134.586l-6.562-6.567 6.678-6.339zM15.33 9.387l6.42 6.44H2.259l6.446-6.43 1.804 1.712a2.179 2.179 0 003.009 0l1.812-1.722z"/></symbol>
<symbol id="i-facebook-circle" viewBox="0 0 24 24" fill="none" xmlns="http://www.w3.org/2000/svg"><path d="M24 12c0-6.628-5.372-12-12-12S0 5.372 0 12c0 5.99 4.386 10.954 10.126 11.855v-8.383H7.082V12h3.044V9.357c0-3.005 1.789-4.669 4.53-4.669 1.316 0 2.69.237 2.69.237v2.952h-1.513c-1.492 0-1.953.927-1.953 1.874V12h3.328l-.533 3.472H13.88v8.383C19.614 22.955 24 17.99 24 12z" fill="#1877F2"/><path d="M16.669 15.472L17.2 12h-3.327V9.751c0-.947.467-1.874 1.953-1.874h1.512V4.925s-1.374-.237-2.689-.237c-2.742 0-4.53 1.664-4.53 4.669V12H7.075v3.472h3.045v8.383c.611.099 1.236.145 1.874.145.637 0 1.262-.053 1.873-.145v-8.383h2.802z" fill="#fff"/></symbol>
<symbol id="i-facebook" viewBox="0 0 9 17" xmlns="http://www.w3.org/2000/svg"><path fill-rule="evenodd" clip-rule="evenodd" d="M9 5.667L8.732 8.5H6V17H2.25V8.5H0V5.667h2.25V3.269C2.25 1.121 3.447 0 6.144 0H9v3.542H6.836c-.264 0-.449.039-.575.125a.466.466 0 00-.102.093c-.123.152-.159.388-.159.726v1.18h3z"/></symbol>
<symbol id="i-favorite" viewBox="0 0 25 23" xmlns="http://www.w3.org/2000/svg"><path d="M12.455 23c-.975-1.024-1.92-2.023-2.87-3.013-2.465-2.576-4.94-5.14-7.397-7.724C.785 10.791-.015 9.03 0 6.92a7.077 7.077 0 011.375-4.193A6.593 6.593 0 014.915.276c2.47-.673 4.67-.079 6.528 1.772.34.339.642.72 1.017 1.142.355-.396.633-.722.93-1.043A6.695 6.695 0 0116.14.35a6.465 6.465 0 013.238-.247 6.595 6.595 0 012.972 1.363c.868.7 1.56 1.612 2.013 2.655 1.14 2.589.697 5.06-.908 7.322a7.31 7.31 0 01-.685.814l-10.04 10.48c-.072.076-.15.147-.275.264z"/><path d="M19.378.102a6.595 6.595 0 012.972 1.363c.868.7 1.56 1.612 2.013 2.655 1.14 2.589.697 5.06-.908 7.322a7.31 7.31 0 01-.685.814L12.674 22.793l-.219.207-1.92-2.02-.95-.993L4.65 14.84c-.822-.858-1.643-1.717-2.462-2.578C.785 10.791-.015 9.03 0 6.92a7.077 7.077 0 011.375-4.193A6.593 6.593 0 014.915.276c2.47-.673 4.67-.079 6.528 1.772.136.136.266.278.397.427l.62.715.753-.85.177-.193A6.695 6.695 0 0116.14.35a6.465 6.465 0 013.238-.247zm-.354 1.968a4.465 4.465 0 00-2.237.171 4.7 4.7 0 00-1.93 1.267l-.213.233-.694.783-1.496 1.67-1.621-1.827-.545-.627-.178-.194a4.702 4.702 0 00-.079-.081C8.68 2.118 7.217 1.722 5.447 2.204a4.593 4.593 0 00-2.465 1.712A5.087 5.087 0 002 6.934c-.01 1.505.528 2.787 1.637 3.95l9.029 9.435-.194-.205 8.867-9.255c.179-.184.345-.381.485-.574 1.276-1.798 1.515-3.529.705-5.368a4.977 4.977 0 00-1.435-1.895 4.611 4.611 0 00-1.821-.9l-.249-.052z" fill-opacity=".7" fill="#FBFBFB"/></symbol>
<symbol id="i-filter" viewBox="0 0 20 20" xmlns="http://www.w3.org/2000/svg"><path fill-rule="evenodd" clip-rule="evenodd" d="M.76 2.08a1 1 0 01.907-.58h16.666a1 1 0 01.764 1.646l-6.43 7.603V17.5a1 1 0 01-1.447.894l-3.334-1.666a1 1 0 01-.553-.895V10.75L.903 3.146A1 1 0 01.76 2.079zM3.822 3.5l5.275 6.238a1 1 0 01.236.645v4.832l1.334.667v-5.499a1 1 0 01.236-.645L16.178 3.5H3.822z"/></symbol>
<symbol id="i-google" viewBox="0 0 24 24" fill="none" xmlns="http://www.w3.org/2000/svg"><path d="M23.526 12.276c0-.816-.067-1.636-.208-2.438H12v4.62h6.482a5.554 5.554 0 01-2.4 3.647v2.998h3.868c2.27-2.09 3.576-5.176 3.576-8.827z" fill="#4285F4"/><path d="M12 24c3.236 0 5.966-1.063 7.954-2.897l-3.867-2.998c-1.075.732-2.464 1.146-4.083 1.146-3.13 0-5.784-2.112-6.737-4.951h-3.99v3.09A12.001 12.001 0 0012 24z" fill="#34A853"/><path d="M5.262 14.3a7.187 7.187 0 010-4.595v-3.09H1.276a12.01 12.01 0 000 10.775l3.986-3.09z" fill="#FBBC04"/><path d="M12 4.75a6.52 6.52 0 014.603 1.798l3.426-3.425A11.533 11.533 0 0012 0 11.997 11.997 0 001.277 6.615l3.986 3.09C6.21 6.862 8.869 4.75 12 4.75z" fill="#EA4335"/></symbol>
<symbol id="i-house" viewBox="0 0 16 16" xmlns="http://www.w3.org/2000/svg"><path d="M15.568 6.96l-.001-.002L9.04.432A1.463 1.463 0 008 0c-.394 0-.764.153-1.042.432L.434 6.955l-.007.006a1.475 1.475 0 001.026 2.512h.26v4.803c0 .95.773 1.724 1.724 1.724H5.99c.26 0 .47-.21.47-.469v-3.765c0-.434.352-.787.786-.787h1.506c.434 0 .786.353.786.787v3.765c0 .26.21.469.47.469h2.553c.95 0 1.724-.773 1.724-1.724V9.473h.24c.394 0 .764-.153 1.042-.431a1.475 1.475 0 00.001-2.083z"/></symbol>
<symbol id="i-inbox" viewBox="0 0 24 24" fill="none" xmlns="http://www.w3.org/2000/svg"><path d="M21 11.5a8.38 8.38 0 01-.9 3.8 8.5 8.5 0 01-7.6 4.7 8.38 8.38 0 01-3.8-.9L3 21l1.9-5.7a8.38 8.38 0 01-.9-3.8 8.5 8.5 0 014.7-7.6 8.38 8.38 0 013.8-.9h.5a8.48 8.48 0 018 8v.5z" stroke="currentColor" stroke-width="2" stroke-linecap="round" stroke-linejoin="round"/></symbol>
<symbol id="i-instagram" viewBox="0 0 17 17" xmlns="http://www.w3.org/2000/svg"><path fill-rule="evenodd" clip-rule="evenodd" d="M15.039 0H1.96A1.962 1.962 0 000 1.961v13.076C0 16.122.878 17 1.961 17H15.04C16.122 17 17 16.122 17 15.037V1.961A1.961 1.961 0 0015.039 0zM8.5 5.231a3.269 3.269 0 11.001 6.538A3.269 3.269 0 018.5 5.231zm6.375 8.99c0 .361-.293.654-.655.654H2.78a.654.654 0 01-.655-.653V7.083h1.344a5.353 5.353 0 00-.142.688 4.953 4.953 0 00-.057.729 5.23 5.23 0 1010.46 0c0-.248-.022-.49-.057-.728a5.362 5.362 0 00-.142-.688h1.344v7.138zm0-9.902c0 .361-.293.654-.655.654h-1.54a.654.654 0 01-.653-.654V2.78c0-.361.292-.654.654-.654h1.54c.361 0 .654.293.654.654v1.54z"/></symbol>
<symbol id="i-instant" viewBox="0 0 10 16" xmlns="http://www.w3.org/2000/svg"><path d="M10 5.112H5.381L7.136 0H2.85L0 8.3h4.798L3.16 16 10 5.112z"/></symbol>
<symbol id="i-list" viewBox="0 0 18 12" xmlns="http://www.w3.org/2000/svg"><path fill-rule="evenodd" clip-rule="evenodd" d="M1.5 0a1 1 0 100 2h.008a1 1 0 100-2H1.5zm4.167 0a1 1 0 100 2H16.5a1 1 0 100-2H5.667zm0 5a1 1 0 100 2H16.5a1 1 0 100-2H5.667zm-1 6a1 1 0 011-1H16.5a1 1 0 110 2H5.667a1 1 0 01-1-1zM.5 6a1 1 0 011-1h.008a1 1 0 110 2H1.5a1 1 0 01-1-1zm1 4a1 1 0 100 2h.008a1 1 0 100-2H1.5z"/></symbol>
<symbol id="i-logo" viewBox="0 0 955 140" xmlns="http://www.w3.org/2000/svg" class="text-primary fill-current w-165 h-35"><path d="M263.75 114.5c-14 0-24.5-3.1-31.5-9.3-6.9-6.2-10.75-14.7-11.55-25.5h19.2c.8 6.3 2.9 11.2 6.3 14.7 3.4 3.4 9.25 5.1 17.55 5.1 6 0 10.85-1.5 14.55-4.5 3.8-3.1 5.7-7.1 5.7-12 0-5-1.55-8.65-4.65-10.95-3.1-2.3-9-4.15-17.7-5.55-13.3-1.8-22.95-5-28.95-9.6-5.9-4.7-8.85-11.95-8.85-21.75 0-8.9 3.45-16.25 10.35-22.05 6.9-5.8 15.9-8.7 27-8.7 11.6 0 20.75 2.65 27.45 7.95 6.7 5.2 10.55 12.9 11.55 23.1h-18.3c-1-5.6-3.15-9.65-6.45-12.15-3.3-2.6-8.05-3.9-14.25-3.9-5.9 0-10.45 1.3-13.65 3.9-3.2 2.5-4.8 5.9-4.8 10.2 0 4.6 1.45 8.05 4.35 10.35 3 2.3 8.95 4.1 17.85 5.4 13.3 1.8 23 5.05 29.1 9.75 6.1 4.6 9.15 12.05 9.15 22.35 0 9.5-3.65 17.4-10.95 23.7-7.3 6.3-16.8 9.45-28.5 9.45zM340.215 114.35c-7.7 0-13.6-2-17.7-6-4-4-6-9.75-6-17.25V48.2h-10.5V34.55h10.5V17.3h18.15v17.25h17.25V48.2h-17.25v41.25c0 6.7 3 10.05 9 10.05 3.5 0 6.45-.5 8.85-1.5v14.4c-3.5 1.3-7.6 1.95-12.3 1.95zM382.668 114.5c-7.7 0-14-1.9-18.9-5.7-4.9-3.9-7.35-9.75-7.35-17.55 0-8.6 3.65-14.9 10.95-18.9 7.3-4 17.05-6 29.25-6h9.75V62.3c0-5.4-1.1-9.35-3.3-11.85-2.1-2.6-5.75-3.9-10.95-3.9-9.1 0-14.1 4.1-15 12.3h-17.55c.7-8.7 4.1-15.2 10.2-19.5 6.2-4.3 14-6.45 23.4-6.45 20.9 0 31.35 9.55 31.35 28.65V113h-17.85v-9.6c-5.6 7.4-13.6 11.1-24 11.1zm4.35-13.05c5.7 0 10.35-1.4 13.95-4.2 3.6-2.9 5.4-6.8 5.4-11.7v-7.8h-9.3c-15.1 0-22.65 4.25-22.65 12.75 0 7.3 4.2 10.95 12.6 10.95zM444.324 139.85l14.25-34.8-31.05-70.5h19.65l20.85 50.55 19.2-50.55h17.7l-42.75 105.3h-17.85zM511.034 113V34.55h18.15v12c2-3.9 5.1-7.15 9.3-9.75 4.2-2.6 9.05-3.9 14.55-3.9 11 0 18.4 4.7 22.2 14.1 2.9-4.6 6.75-8.1 11.55-10.5 4.8-2.4 9.8-3.6 15-3.6 7.7 0 13.95 2.55 18.75 7.65 4.9 5 7.35 12.6 7.35 22.8V113h-18.15V64.55c0-11-4.65-16.5-13.95-16.5-4.8 0-8.9 1.6-12.3 4.8-3.3 3.1-4.95 7.5-4.95 13.2V113h-18.15V64.55c0-11-4.65-16.5-13.95-16.5-4.8 0-8.9 1.6-12.3 4.8-3.3 3.1-4.95 7.5-4.95 13.2V113h-18.15zM675.73 114.5c-11.7 0-21.25-3.6-28.65-10.8-7.4-7.2-11.1-16.9-11.1-29.1v-1.2c0-12 3.65-21.75 10.95-29.25 7.4-7.5 16.75-11.25 28.05-11.25 10.6 0 19.4 3.3 26.4 9.9 7.1 6.6 10.65 16.5 10.65 29.7v5.25h-57.45c.3 7.5 2.3 13.25 6 17.25s8.9 6 15.6 6c10.6 0 16.6-4 18-12h17.55c-1.3 8.2-5.1 14.5-11.4 18.9-6.3 4.4-14.5 6.6-24.6 6.6zm-20.85-48.9h39.15c-.9-13-7.25-19.5-19.05-19.5-5.4 0-9.9 1.75-13.5 5.25-3.5 3.4-5.7 8.15-6.6 14.25zM720.741 113V34.55h18.15V47c2-4.1 5.2-7.45 9.6-10.05 4.4-2.7 9.65-4.05 15.75-4.05 8.3 0 14.85 2.55 19.65 7.65 4.8 5 7.2 12.7 7.2 23.1V113h-18.15V65.3c0-5.9-1.25-10.25-3.75-13.05-2.5-2.8-6.45-4.2-11.85-4.2-5.4 0-9.85 1.65-13.35 4.95-3.4 3.2-5.1 7.8-5.1 13.8V113h-18.15zM804.951 113V34.55h18.15V113h-18.15zm16.5-94.35c-2.1 2-4.65 3-7.65 3s-5.55-1-7.65-3c-2.1-2-3.15-4.45-3.15-7.35 0-3 1.05-5.5 3.15-7.5 2.1-2 4.65-3 7.65-3s5.55 1 7.65 3c2.1 2 3.15 4.5 3.15 7.5 0 2.9-1.05 5.35-3.15 7.35zM864.424 114.35c-7.7 0-13.6-2-17.7-6-4-4-6-9.75-6-17.25V48.2h-10.5V34.55h10.5V17.3h18.15v17.25h17.25V48.2h-17.25v41.25c0 6.7 3 10.05 9 10.05 3.5 0 6.45-.5 8.85-1.5v14.4c-3.5 1.3-7.6 1.95-12.3 1.95zM894.295 139.85l14.25-34.8-31.05-70.5h19.65l20.85 50.55 19.2-50.55h17.7l-42.75 105.3h-17.85zM149.054 30.415c-7.132-3.429-15.942-.428-19.298 6.859-9.649 20.146-28.946 32.578-51.18 32.578-21.815 0-41.532-12.432-51.181-32.578-3.356-7.287-12.166-10.288-19.298-6.859C.966 33.845-1.97 42.846 1.385 50.133 15.65 80.14 45.434 99 78.155 99c32.723 0 62.928-18.432 77.191-48.867 3.776-7.287.839-15.86-6.292-19.718z"/></symbol>
<symbol id="i-map" viewBox="0 0 20 20" xmlns="http://www.w3.org/2000/svg"><path fill-rule="evenodd" clip-rule="evenodd" d="M6.667.667c.169 0 .328.042.468.116l6.167 3.083L18.67.798a1 1 0 011.497.869V15a1 1 0 01-.504.868l-5.82 3.325a.994.994 0 01-.974.026l-6.17-3.085-5.37 3.068a1 1 0 01-1.496-.869V5a1 1 0 01.504-.868L6.16.805a.995.995 0 01.507-.138zm7.666 15.943l3.834-2.19V3.39l-3.834 2.19v11.03zm-2-10.992v11.097l-4.666-2.333V3.285l4.666 2.333zm-10.5-.038l3.834-2.19v11.03l-3.834 2.19V5.58z"/></symbol>
<symbol id="i-minus" viewBox="0 0 15 3" xmlns="http://www.w3.org/2000/svg"><path fill-rule="evenodd" clip-rule="evenodd" d="M15 1.5a1 1 0 01-1 1H1a1 1 0 010-2h13a1 1 0 011 1z"/></symbol>
<symbol id="i-night" viewBox="0 0 24 24" fill="none" xmlns="http://www.w3.org/2000/svg"><path d="M7.72 0a.878.878 0 00-.265.056C2.72 1.81 0 6.41 0 11.644 0 18.457 5.535 24 12.348 24c5.235 0 9.844-2.73 11.599-7.464a.878.878 0 00-1.153-1.116 10.435 10.435 0 01-3.905.732c-5.737 0-11.04-5.313-11.04-11.049 0-1.39.24-2.707.722-3.905A.878.878 0 007.72 0zM6.357 2.553a12.62 12.62 0 00-.265 2.552c0 6.794 6.003 12.805 12.796 12.805.873 0 1.726-.104 2.552-.274-1.834 2.94-5.164 4.61-9.092 4.61A10.581 10.581 0 011.756 11.643c0-3.928 1.66-7.258 4.601-9.092z" fill="#989898"/></symbol>
<symbol id="i-no-parties" viewBox="0 0 24 24" xmlns="http://www.w3.org/2000/svg"><path fill-rule="evenodd" clip-rule="evenodd" d="M12 22.8c2.767 0 5.29-1.04 7.201-2.75L15 15.847v2.534C15 19.825 14.043 21 12.866 21h-1.733C9.957 21 9 19.825 9 18.382V12c0-.624.13-1.235.317-1.835L3.951 4.8A10.76 10.76 0 001.2 12c0 5.965 4.835 10.8 10.8 10.8zM9.773 8.924L4.8 3.95A10.76 10.76 0 0112 1.2c5.965 0 10.8 4.835 10.8 10.8 0 2.766-1.04 5.29-2.75 7.2L15 14.152V12c0-1.179-.462-2.312-.908-3.409V8.59c-.425-1.04-.826-2.024-.826-2.972V3.491c0-.271-.178-.491-.4-.491h-1.733c-.22 0-.4.22-.4.49v2.128c0 .948-.4 1.931-.824 2.972l-.136.334zm.203 1.9c-.061.23-.11.459-.139.685h.824l-.685-.685zm2.382.685L10.41 9.561l.214-.532c.447-1.097.91-2.231.91-3.41V3.981h.932v1.636c0 1.18.462 2.314.91 3.411.35.862.682 1.684.787 2.48h-1.805zm-.715.982H9.8v5.4h4.4v-2.843l-2.557-2.557zm2.557.86l-.86-.86h.86v.86zM12 24c6.627 0 12-5.373 12-12S18.627 0 12 0 0 5.373 0 12s5.373 12 12 12zm-.867-3.982h1.733c.595 0 1.094-.484 1.266-1.146H9.868c.171.662.67 1.146 1.265 1.146z"/></symbol>
<symbol id="i-no-smoking" viewBox="0 0 24 24" xmlns="http://www.w3.org/2000/svg"><path d="M12 0a12 12 0 1012 12A12.014 12.014 0 0012 0zm10.655 12a10.608 10.608 0 01-2.666 7.04l-3.954-3.96h3.271a.672.672 0 00.673-.673v-3.654a.673.673 0 00-.06-.28 1.84 1.84 0 00-.912-1.207c-.29-.201-.356-.265-.356-.336 0-.07.07-.144.356-.336.373-.259.935-.649.935-1.45 0-.8-.572-1.196-.942-1.458-.285-.199-.356-.266-.356-.337 0-.07.07-.144.356-.336.212-.137.405-.301.575-.487A10.621 10.621 0 0122.655 12zm-16.94 1.735a1.066 1.066 0 01-1.062-1.063v-.181a1.066 1.066 0 011.066-1.066h1.634v2.31H5.716zm2.98-2.31h1.778l2.31 2.31H8.695v-2.31zm3.678 0h6.254v2.31H14.69l-2.317-2.31zm6.194-7.807c-.096.11-.21.203-.337.276-.373.258-.934.648-.934 1.445s.561 1.19.934 1.45c.286.198.357.265.357.336 0 .07-.07.144-.357.336-.373.259-.934.649-.934 1.45a1.478 1.478 0 00.551 1.156h-6.819L4.976 4.015a10.625 10.625 0 0113.607-.394l-.016-.003zM1.345 12A10.608 10.608 0 014.01 4.96l5.118 5.12H5.716a2.41 2.41 0 00-2.41 2.41v.182a2.41 2.41 0 002.41 2.411h8.406l4.919 4.906A10.649 10.649 0 011.345 12z"/></symbol>
<symbol id="i-noty" viewBox="0 0 20 20" fill="none" xmlns="http://www.w3.org/2000/svg"><path d="M15 6.667a5 5 0 00-10 0c0 5.833-2.5 7.5-2.5 7.5h15S15 12.5 15 6.667zM11.442 17.5a1.666 1.666 0 01-2.883 0" stroke="currentColor" stroke-width="1.667" stroke-linecap="round" stroke-linejoin="round"/></symbol>
<symbol id="i-parking" viewBox="0 0 25 25" xmlns="http://www.w3.org/2000/svg"><path fill-rule="evenodd" clip-rule="evenodd" d="M0 12.5C0 5.607 5.607 0 12.5 0S25 5.607 25 12.5 19.393 25 12.5 25 0 19.393 0 12.5zm1.746 0c0 5.929 4.825 10.754 10.754 10.754 5.929 0 10.754-4.825 10.754-10.754 0-5.929-4.825-10.754-10.754-10.754C6.571 1.746 1.746 6.57 1.746 12.5zm7.796-7.269h4.65c2.4 0 4.358 1.965 4.358 4.365 0 2.4-1.952 4.359-4.359 4.359h-3.776v6.098a.877.877 0 01-.873.873.877.877 0 01-.873-.873V6.104c0-.479.394-.873.873-.873zm.873 6.978h3.777a2.622 2.622 0 002.618-2.613 2.623 2.623 0 00-2.618-2.619h-3.777v5.232z"/></symbol>
<symbol id="i-password-hide" viewBox="0 0 20 15" xmlns="http://www.w3.org/2000/svg"><path fill-rule="evenodd" clip-rule="evenodd" d="M3.01 11.618C5.027 13.096 7.493 14 10 14c2.506 0 4.972-.904 6.99-2.382C18.78 10.308 20 8.686 20 7.5c0-1.186-1.22-2.808-3.01-4.118C14.973 1.904 12.507 1 10 1c-2.506 0-4.972.904-6.99 2.382C1.22 4.692 0 6.314 0 7.5c0 1.186 1.22 2.808 3.01 4.118zm13.102-1.158c-1.778 1.302-3.944 2.096-6.112 2.096s-4.334-.794-6.112-2.096C2.436 9.396 1.471 8.114 1.471 7.5c0-.614.965-1.896 2.417-2.96C5.666 3.238 7.832 2.444 10 2.444s4.334.794 6.112 2.096c1.452 1.064 2.417 2.346 2.417 2.96 0 .614-.965 1.896-2.417 2.96zM6.176 7.5c0 2.154 1.777 3.9 3.97 3.9 2.193 0 3.971-1.746 3.971-3.9s-1.778-3.9-3.97-3.9c-2.194 0-3.971 1.746-3.971 3.9zm6.47 0c0 1.356-1.119 2.455-2.5 2.455-1.38 0-2.5-1.099-2.5-2.455s1.12-2.456 2.5-2.456c1.381 0 2.5 1.1 2.5 2.456z"/><path fill-rule="evenodd" clip-rule="evenodd" d="M17.733.32a1 1 0 01-.053 1.413l-14 13a1 1 0 11-1.36-1.466l14-13a1 1 0 011.413.053z"/></symbol>
<symbol id="i-password-show" viewBox="0 0 20 15" xmlns="http://www.w3.org/2000/svg"><path fill-rule="evenodd" clip-rule="evenodd" d="M3.01 11.618C5.027 13.096 7.493 14 10 14c2.506 0 4.972-.904 6.99-2.382C18.78 10.308 20 8.686 20 7.5c0-1.186-1.22-2.808-3.01-4.118C14.973 1.904 12.507 1 10 1c-2.506 0-4.972.904-6.99 2.382C1.22 4.692 0 6.314 0 7.5c0 1.186 1.22 2.808 3.01 4.118zm13.102-1.158c-1.778 1.302-3.944 2.096-6.112 2.096s-4.334-.794-6.112-2.096C2.436 9.396 1.471 8.114 1.471 7.5c0-.614.965-1.896 2.417-2.96C5.666 3.238 7.832 2.444 10 2.444s4.334.794 6.112 2.096c1.452 1.064 2.417 2.346 2.417 2.96 0 .614-.965 1.896-2.417 2.96zM6.176 7.5c0 2.154 1.777 3.9 3.97 3.9 2.193 0 3.971-1.746 3.971-3.9s-1.778-3.9-3.97-3.9c-2.194 0-3.971 1.746-3.971 3.9zm6.47 0c0 1.356-1.119 2.455-2.5 2.455-1.38 0-2.5-1.099-2.5-2.455s1.12-2.456 2.5-2.456c1.381 0 2.5 1.1 2.5 2.456z"/><path clip-rule="evenodd" d="M17.733.32a1 1 0 01-.053 1.413l-14 13a1 1 0 11-1.36-1.466l14-13a1 1 0 011.413.053z" fill="none"/></symbol>
<symbol id="i-people" viewBox="0 0 11 13" fill="none" xmlns="http://www.w3.org/2000/svg"><path fill-rule="evenodd" clip-rule="evenodd" d="M8.43 3.064c0 1.693-1.312 3.065-2.93 3.065S2.57 4.757 2.57 3.064C2.57 1.372 3.882 0 5.5 0s2.93 1.372 2.93 3.064zM3.88 6.306h3.24c2.143 0 3.88 1.816 3.88 4.058V13H0v-2.636c0-2.242 1.737-4.058 3.88-4.058z" fill="#5D44F6"/></symbol>
<symbol id="i-pit" viewBox="0 0 24 23" xmlns="http://www.w3.org/2000/svg"><path d="M15.577.003c-1.536.074-2.845 1.713-3.044 3.904-.212 2.336.93 4.285 2.599 4.437 1.858.168 3.167-1.837 3.353-3.898.213-2.336-.929-4.285-2.598-4.437a2.26 2.26 0 00-.31-.006zm-7.6.23c-.103.002-.207.01-.31.025C6.01.51 4.988 2.526 5.341 4.844c.333 2.193 1.757 3.76 3.311 3.712 1.98-.06 2.933-2.406 2.598-4.61C10.918 1.77 9.518.216 7.976.233zM7.97 1.43c.923-.028 1.864 1.164 2.097 2.696.244 1.602-.362 3.078-1.323 3.224-.968.149-1.979-1.083-2.222-2.683-.243-1.6.363-3.079 1.323-3.225a.973.973 0 01.125-.012zm7.717-.233c.03 0 .06.002.091.004.972.09 1.662 1.525 1.516 3.139-.147 1.612-1.085 2.903-2.056 2.813-.97-.09-1.66-1.525-1.516-3.139.14-1.563 1.026-2.822 1.965-2.817zm6.134 3.553c-1.113.016-2.34.845-3.122 2.22-1.043 1.834-.842 3.852.458 4.592 1.445.819 3.26-.344 4.176-1.956 1.042-1.833.84-3.848-.458-4.59a2.043 2.043 0 00-1.054-.266zM2.03 5.352a2.05 2.05 0 00-1.037.327c-1.252.815-1.33 2.84-.179 4.61.855 1.309 2.11 2.055 3.214 2.022 1.924-.058 2.863-2.464 1.252-4.937C4.417 6.051 3.141 5.3 2.03 5.352zm.066 1.2c.926.107 1.741.658 2.186 1.477.822 1.268.749 2.577.17 2.954-.583.38-1.808-.083-2.633-1.35-.826-1.267-.752-2.573-.17-2.952a.853.853 0 01.447-.13zm19.719-.597a.867.867 0 01.47.1c.605.343.758 1.643.01 2.958-.748 1.315-1.943 1.853-2.546 1.507-.604-.346-.757-1.644-.01-2.959.584-1.027 1.44-1.578 2.076-1.606zm-9.767 3.123c-6.015.182-8.832 6.529-6.955 11.128.459 1.122 1.055 1.795 1.824 2.05 1.973.654 4.147-1.843 5.473-1.883 1.135-.034 3.094 1.756 4.813 1.704 1.308-.04 2.037-1.064 2.46-2.313 1.63-4.807-1.686-10.865-7.615-10.686zm.036 1.186a6.438 6.438 0 015.34 2.565h.003c2.39 3.23 1.354 7.479.097 7.983-1.241.493-3.448-1.686-5.168-1.634-1.72.052-3.785 2.36-5.06 1.944-1.282-.427-2.581-4.599-.386-7.974a6.437 6.437 0 015.175-2.884z"/></symbol>
<symbol id="i-plus-bold" viewBox="0 0 12 12" xmlns="http://www.w3.org/2000/svg"><path fill-rule="evenodd" clip-rule="evenodd" d="M5.8 0a1 1 0 00-1 1v3.8H1a1 1 0 00-1 1v.4a1 1 0 001 1h3.8V11a1 1 0 001 1h.4a1 1 0 001-1V7.2H11a1 1 0 001-1v-.4a1 1 0 00-1-1H7.2V1a1 1 0 00-1-1h-.4z"/></symbol>
<symbol id="i-plus" viewBox="0 0 15 15" xmlns="http://www.w3.org/2000/svg"><path fill-rule="evenodd" clip-rule="evenodd" d="M8.5 1a1 1 0 10-2 0v5.5H1a1 1 0 100 2h5.5V14a1 1 0 102 0V8.5H14a1 1 0 100-2H8.5V1z"/></symbol>
<symbol id="i-protected" viewBox="0 0 12 16" fill="none" xmlns="http://www.w3.org/2000/svg"><path fill-rule="evenodd" clip-rule="evenodd" d="M1.5 7a.5.5 0 00-.5.5v7a.5.5 0 00.5.5h9a.5.5 0 00.5-.5v-7a.5.5 0 00-.5-.5h-9zM2 6V4c0-2.206 1.794-4 4-4s4 1.794 4 4v2h.5c.827 0 1.5.673 1.5 1.5v7c0 .827-.673 1.5-1.5 1.5h-9C.673 16 0 15.327 0 14.5v-7C0 6.673.673 6 1.5 6H2zm7 0V4c0-1.654-1.346-3-3-3S3 2.346 3 4v2h6zm-3.5 5.236a1.335 1.335 0 01.5-2.57 1.335 1.335 0 01.5 2.57v1.597a.5.5 0 01-1 0v-1.597zm.5-1.57a.334.334 0 100 .668.334.334 0 000-.667z" fill="#1DCF00"/></symbol>
<symbol id="i-saved" viewBox="0 0 24 24" fill="none" xmlns="http://www.w3.org/2000/svg"><path d="M20.84 4.61a5.5 5.5 0 00-7.78 0L12 5.67l-1.06-1.06a5.501 5.501 0 10-7.78 7.78l1.06 1.06L12 21.23l7.78-7.78 1.06-1.06a5.5 5.5 0 000-7.78v0z" stroke="currentColor" stroke-width="2" stroke-linecap="round" stroke-linejoin="round"/></symbol>
<symbol id="i-search" viewBox="0 0 24 24" xmlns="http://www.w3.org/2000/svg"><path fill-rule="evenodd" clip-rule="evenodd" d="M4 11a7 7 0 1112.042 4.856 1.006 1.006 0 00-.186.186A7 7 0 014 11zm12.618 7.032a9 9 0 111.414-1.414l3.675 3.675a1 1 0 01-1.414 1.414l-3.675-3.675z"/></symbol>
<symbol id="i-secure" viewBox="0 0 14 16" fill="none" xmlns="http://www.w3.org/2000/svg"><path d="M6.971.001a.569.569 0 00-.213.05l-6.447 3a.546.546 0 00-.226.197.52.52 0 00-.085.281v2.406c0 4.478 2.777 8.316 6.775 10.019a.57.57 0 00.45 0C11.224 14.251 14 10.413 14 5.935V3.53a.52.52 0 00-.085-.281.546.546 0 00-.226-.196l-6.447-3A.57.57 0 006.972 0zM7 1.123l5.895 2.745v2.067c0 3.965-2.41 7.345-5.895 8.93C3.514 13.28 1.105 9.9 1.105 5.935V3.868L7 1.123zm3.264 4.207a.561.561 0 00-.328.15L6.085 9.03l-1.64-1.583a.551.551 0 00-.398-.182.57.57 0 00-.409.154.532.532 0 00-.163.394.518.518 0 00.186.384l2.026 1.956a.563.563 0 00.772.011l4.237-3.912a.517.517 0 00.128-.611.541.541 0 00-.228-.243.57.57 0 00-.332-.068z" fill="#1DCF00"/></symbol>
<symbol id="i-sockets" viewBox="0 0 25 25" xmlns="http://www.w3.org/2000/svg"><path d="M22.803 0H2.197A2.2 2.2 0 000 2.197v20.606A2.2 2.2 0 002.197 25h20.606A2.2 2.2 0 0025 22.803V2.197A2.2 2.2 0 0022.803 0zm.732 22.803a.733.733 0 01-.732.732H2.197a.733.733 0 01-.732-.732V2.197c0-.404.328-.732.732-.732h20.606c.404 0 .732.328.732.732v20.606z"/><path d="M12.5 3.955c-4.712 0-8.545 3.833-8.545 8.545s3.833 8.545 8.545 8.545 8.545-3.833 8.545-8.545-3.833-8.545-8.545-8.545zm0 15.625a7.088 7.088 0 01-7.08-7.08 7.088 7.088 0 017.08-7.08 7.088 7.088 0 017.08 7.08 7.088 7.088 0 01-7.08 7.08z"/><path d="M9.13 10.547A1.955 1.955 0 007.179 12.5c0 1.077.876 1.953 1.953 1.953a1.955 1.955 0 001.953-1.953 1.955 1.955 0 00-1.953-1.953zm0 2.441a.489.489 0 11.002-.977.489.489 0 01-.001.977zM15.87 10.547a1.955 1.955 0 00-1.954 1.953c0 1.077.876 1.953 1.953 1.953a1.955 1.955 0 001.953-1.953 1.955 1.955 0 00-1.953-1.953zm0 2.441a.489.489 0 110-.977.489.489 0 010 .977z"/></symbol>
<symbol id="i-star-line" viewBox="0 0 22 21" fill="none" xmlns="http://www.w3.org/2000/svg"><path fill-rule="evenodd" clip-rule="evenodd" d="M11 2.128L9.13 6.615a2.607 2.607 0 01-2.198 1.596l-4.846.388 3.69 3.156a2.604 2.604 0 01.841 2.584L5.49 19.062l4.153-2.533a2.608 2.608 0 012.716 0l4.153 2.533-1.128-4.723a2.604 2.604 0 01.84-2.584l3.69-3.156-4.845-.388a2.607 2.607 0 01-2.199-1.596L11 2.128zM12.022.681c-.378-.908-1.666-.908-2.044 0L7.746 6.038c-.16.383-.52.644-.933.678l-5.793.463C.039 7.258-.36 8.481.388 9.12l4.414 3.775c.315.27.453.693.356 1.096L3.81 19.635c-.228.956.813 1.712 1.654 1.2l4.959-3.025c.354-.216.8-.216 1.154 0l4.96 3.024c.84.513 1.882-.243 1.653-1.2l-1.348-5.643a1.104 1.104 0 01.356-1.096l4.414-3.775c.747-.64.35-1.862-.632-1.94l-5.793-.464a1.107 1.107 0 01-.933-.678L12.022.681z" fill="#000"/></symbol>
<symbol id="i-star" viewBox="0 0 16 15" xmlns="http://www.w3.org/2000/svg"><path d="M7.257.486c.275-.648 1.211-.648 1.486 0l1.623 3.827c.116.273.378.46.68.484l4.212.331c.714.056 1.003.93.46 1.386l-3.21 2.697a.78.78 0 00-.26.782l.981 4.032c.166.683-.591 1.223-1.203.857l-3.606-2.16a.819.819 0 00-.84 0l-3.606 2.16c-.612.366-1.37-.174-1.203-.857l.98-4.032a.78.78 0 00-.259-.782L.282 6.514c-.543-.456-.254-1.33.46-1.386l4.213-.331c.3-.024.563-.21.679-.484L7.257.486z"/></symbol>
<symbol id="i-submit" viewBox="0 0 20 20" xmlns="http://www.w3.org/2000/svg"><path d="M19.154.033L.444 6.146A.646.646 0 00.32 7.317l7.07 4.112c.224.13.503.114.71-.04l1.987-1.476L8.611 11.9a.645.645 0 00-.04.71l4.112 7.07a.646.646 0 001.17-.124L19.968.846a.646.646 0 00-.813-.813zm-6.08 17.753L9.9 12.328l3.828-5.153a.645.645 0 00-.903-.903L7.672 10.1 2.214 6.926l16.132-5.272-5.272 16.132z"/></symbol>
<symbol id="i-success" viewBox="0 0 16 16" xmlns="http://www.w3.org/2000/svg"><path d="M12.245 5.855l-5.34 5.34L3.91 8.201l.939-.96 2.056 2.033 4.38-4.38.96.96z"/><path d="M8 16c-4.425 0-8-3.598-8-8 0-4.425 3.598-8 8-8s8 3.598 8 8c.022 4.402-3.575 8-8 8zM8 1.25C4.29 1.251 1.251 4.268 1.251 8A6.743 6.743 0 008 14.748c3.71 0 6.748-3.016 6.748-6.748A6.743 6.743 0 008 1.251z"/></symbol>
<symbol id="i-twitter" viewBox="0 0 17 13" xmlns="http://www.w3.org/2000/svg"><path d="M17 1.539a7.308 7.308 0 01-2.003.517A3.331 3.331 0 0016.53.24c-.673.376-1.42.65-2.215.796A3.587 3.587 0 0011.77 0C9.518 0 7.863 1.977 8.372 4.03 5.474 3.892 2.904 2.585 1.184.6.27 2.077.71 4.006 2.262 4.983a3.64 3.64 0 01-1.578-.41c-.039 1.52 1.12 2.942 2.797 3.26a3.709 3.709 0 01-1.576.055c.444 1.304 1.732 2.252 3.259 2.279C3.698 11.248 1.85 11.73 0 11.526A10.328 10.328 0 005.346 13c6.476 0 10.135-5.146 9.914-9.762A6.884 6.884 0 0017 1.539z"/></symbol>
<symbol id="i-water" viewBox="0 0 18 25" xmlns="http://www.w3.org/2000/svg"><path d="M11.309 2.756c-.578-.849-1.087-1.63-1.563-2.343a1.034 1.034 0 00-.271-.272C9.067-.13 8.524.006 8.252.413c-.441.713-.95 1.46-1.562 2.343C4.007 6.696 0 12.64 0 16.035c0 2.479 1.019 4.72 2.649 6.35C4.279 23.981 6.52 25 8.999 25c2.48 0 4.72-1.019 6.35-2.649 1.631-1.63 2.65-3.871 2.65-6.35 0-3.396-4.007-9.305-6.69-13.245zm2.818 18.373A7.183 7.183 0 019 23.234c-2.003 0-3.803-.815-5.128-2.105A7.183 7.183 0 011.766 16c0-2.853 3.837-8.524 6.384-12.294.306-.441.578-.883.85-1.256.271.373.543.815.848 1.256 2.547 3.804 6.385 9.441 6.385 12.294 0 2.003-.815 3.803-2.106 5.128z"/></symbol>
<symbol id="i-wc" viewBox="0 0 25 25" xmlns="http://www.w3.org/2000/svg"><path d="M14.52 8.283a.811.811 0 00-.66-.339h-.08a.81.81 0 00-.77.556l-1.742 5.259-1.75-5.26a.811.811 0 00-.77-.555h-.135a.81.81 0 00-.77.556L6.101 13.76 4.35 8.499a.811.811 0 00-.77-.555H3.5a.811.811 0 00-.768 1.072l2.54 7.49c.112.329.42.55.768.55h.113a.811.811 0 00.769-.552l1.762-5.232 1.755 5.231c.11.33.42.553.768.553H11.322a.81.81 0 00.768-.55l2.54-7.49a.812.812 0 00-.11-.733zM22.018 14.702a.811.811 0 00-1.076-.024c-.54.458-1.235.71-1.959.71-1.65 0-2.992-1.298-2.992-2.893 0-1.59 1.342-2.883 2.992-2.883.73 0 1.426.248 1.957.698a.81.81 0 001.098-.046l.027-.027a.81.81 0 00-.053-1.195 4.728 4.728 0 00-3.029-1.098c-2.57 0-4.66 2.042-4.66 4.55 0 2.516 2.09 4.562 4.66 4.562a4.745 4.745 0 003.037-1.106.81.81 0 00.032-1.216l-.034-.032z"/><path d="M19.81 0H5.19A5.196 5.196 0 000 5.19v14.62A5.196 5.196 0 005.19 25h14.62A5.196 5.196 0 0025 19.81V5.19A5.196 5.196 0 0019.81 0zm4.24 19.81a4.245 4.245 0 01-4.24 4.24H5.19a4.246 4.246 0 01-4.24-4.24V5.19A4.245 4.245 0 015.19.95h14.62a4.245 4.245 0 014.24 4.24v14.62z" fill="#323232"/><path fill-rule="evenodd" clip-rule="evenodd" d="M5.19 0h14.62A5.196 5.196 0 0125 5.19v14.62A5.196 5.196 0 0119.81 25H5.19A5.196 5.196 0 010 19.81V5.19A5.196 5.196 0 015.19 0zm14.62 24.05a4.245 4.245 0 004.24-4.24V5.19A4.245 4.245 0 0019.81.95H5.19A4.245 4.245 0 00.95 5.19v14.62a4.246 4.246 0 004.24 4.24h14.62z"/></symbol>
<symbol id="i-whellchair" viewBox="0 0 27 27" xmlns="http://www.w3.org/2000/svg"><path fill-rule="evenodd" clip-rule="evenodd" d="M11.574.9c-1.55 0-2.858 1.284-2.858 2.93 0 1.585 1.248 2.93 2.858 2.93 1.611 0 2.86-1.345 2.86-2.93 0-1.586-1.308-2.93-2.86-2.93zM9.778 3.77c0-1.008.82-1.846 1.796-1.846.977 0 1.797.838 1.797 1.846 0 1.009-.82 1.846-1.797 1.846-.976 0-1.796-.837-1.796-1.846zm8.87 16.292C17.354 23.64 13.933 26.1 10.08 26.1 5.023 26.1.9 21.867.9 16.684c0-4.87 3.64-8.902 8.276-9.37a.545.545 0 01.33-.105h3.965c.279 0 .56.216.56.571v2.141h3.98c.977 0 1.767.814 1.767 1.81 0 .996-.79 1.81-1.767 1.81h-3.98v1.628h5.014c.614 0 1.22.375 1.524.936l2.73 4.783h1.034c.977 0 1.766.814 1.766 1.81v.006c-.06 1.047-.844 1.863-1.824 1.863h-2.069c-.613 0-1.22-.376-1.524-.936v-.001l-2.036-3.567zm.29-1.494l2.606 4.546c.163.22.365.367.606.367h2.069c.402 0 .704-.306.704-.725 0-.42-.302-.726-.704-.726h-1.322a.49.49 0 01-.27-.067.42.42 0 01-.167-.227l-2.866-4.999c-.162-.22-.365-.367-.605-.367h-5.517a.559.559 0 01-.56-.572v-2.712c0-.28.207-.572.56-.572h4.482c.402 0 .705-.306.705-.725s-.302-.726-.705-.726h-4.482a.559.559 0 01-.56-.571v-2.14H10.3a.439.439 0 01-.22.058h-.072v7.919c0 .768.644 1.435 1.456 1.492h6.778a.49.49 0 01.27.067.42.42 0 01.166.228l.214.372a.518.518 0 01.046.08zm-1.012.278H11.46c-1.38 0-2.514-1.167-2.514-2.576V8.492C5 9.058 1.962 12.533 1.962 16.743c0 4.546 3.636 8.273 8.119 8.273 3.683 0 6.876-2.535 7.845-6.169z"/></symbol>
<symbol id="i-wi-fi" viewBox="0 0 25 19" xmlns="http://www.w3.org/2000/svg"><path fill-rule="evenodd" clip-rule="evenodd" d="M12.5 0c4.682 0 9.028 1.845 12.238 5.196a.932.932 0 01-.049 1.342.988.988 0 01-.665.255.987.987 0 01-.715-.302c-2.836-2.96-6.675-4.59-10.809-4.59-4.134 0-7.973 1.63-10.809 4.59a.996.996 0 01-1.38.047.932.932 0 01-.049-1.342C3.472 1.846 7.818 0 12.5 0zm1.563 17.432c0 .866-.722 1.568-1.612 1.568-.89 0-1.611-.702-1.611-1.568 0-.865.721-1.567 1.611-1.567s1.611.702 1.611 1.567zm7.09-8.313C18.78 6.794 15.706 5.513 12.5 5.513c-3.208 0-6.28 1.28-8.652 3.607a.932.932 0 00.005 1.343.996.996 0 001.381-.005C7.236 8.495 9.817 7.414 12.5 7.413c2.682 0 5.263 1.082 7.266 3.045.19.187.442.28.693.28a.988.988 0 00.688-.275.932.932 0 00.005-1.344zm-8.662 1.95c1.661 0 3.482.76 4.753 1.985.383.37.386.971.006 1.344a.996.996 0 01-1.38.006c-.905-.871-2.232-1.435-3.38-1.435h-.07c-1.149 0-2.475.563-3.38 1.435a.988.988 0 01-.686.275.987.987 0 01-.694-.281.932.932 0 01.006-1.344c1.27-1.224 3.093-1.985 4.754-1.985h.071z"/></symbol>
</svg>