<svg width="21" height="24" viewBox="0 0 21 24" xmlns="http://www.w3.org/2000/svg">
<path d="M19.6642 18.7033C19.3035 19.5418 18.8767 20.3136 18.3822 21.0232C17.708 21.9906 17.1561 22.6602 16.7307 23.032C16.0713 23.6424 15.3648 23.955 14.6083 23.9728C14.0652 23.9728 13.4102 23.8172 12.6478 23.5017C11.8828 23.1876 11.1799 23.032 10.5371 23.032C9.86299 23.032 9.14001 23.1876 8.36669 23.5017C7.59219 23.8172 6.96826 23.9816 6.49123 23.9979C5.76575 24.0291 5.04262 23.7076 4.32082 23.032C3.86012 22.6276 3.28388 21.9343 2.59358 20.9521C1.85293 19.9032 1.24402 18.687 0.76699 17.3004C0.256105 15.8026 0 14.3523 0 12.9482C0 11.3398 0.3453 9.95259 1.03693 8.79011C1.58049 7.85636 2.30362 7.11979 3.20867 6.57906C4.11372 6.03834 5.09163 5.76279 6.14475 5.74516C6.72099 5.74516 7.47665 5.92456 8.4157 6.27715C9.3521 6.63091 9.95336 6.81031 10.217 6.81031C10.4141 6.81031 11.082 6.60054 12.2143 6.18233C13.2851 5.79449 14.1888 5.63391 14.9292 5.69716C16.9353 5.86012 18.4425 6.6561 19.4448 8.09013C17.6506 9.18432 16.7631 10.7169 16.7808 12.6829C16.797 14.2142 17.3489 15.4886 18.4337 16.5004C18.9253 16.97 19.4743 17.333 20.0851 17.5907C19.9526 17.9774 19.8128 18.3477 19.6642 18.7033ZM15.0631 0.480137C15.0631 1.68041 14.6274 2.8011 13.759 3.8384C12.7111 5.07155 11.4435 5.78412 10.0689 5.67168C10.0514 5.52769 10.0412 5.37614 10.0412 5.21688C10.0412 4.06462 10.5396 2.83147 11.4246 1.82321C11.8665 1.3127 12.4285 0.888228 13.1099 0.549615C13.7899 0.216055 14.4331 0.031589 15.0381 0C15.0557 0.160458 15.0631 0.320926 15.0631 0.480121V0.480137Z"/>
</svg>
