<svg width="20" height="20" viewBox="0 0 20 20"  xmlns="http://www.w3.org/2000/svg">
<path d="M11.764 0L1.65723 10.2217C-0.552413 12.4565 -0.552405 16.089 1.65723 18.3238C3.86687 20.5586 7.45847 20.5589 9.66811 18.3238L18.8223 9.06539C20.3927 7.47714 20.3924 4.88556 18.8223 3.29731C17.2519 1.70904 14.6895 1.70907 13.1192 3.29731L3.77563 12.7471C2.84446 13.6889 2.84267 15.2395 3.77409 16.1813C4.70526 17.123 6.23989 17.1228 7.17106 16.1813L14.3902 8.88L13.3024 7.77984L6.0833 15.0811C5.736 15.4324 5.21064 15.4327 4.86335 15.0811C4.51603 14.7299 4.51633 14.1985 4.86335 13.8473L14.2069 4.39737C15.1934 3.39962 16.748 3.39962 17.7345 4.39737C18.7211 5.39512 18.7214 6.96746 17.7345 7.96524L8.58032 17.2236C6.95455 18.8679 4.37072 18.8676 2.74494 17.2236C1.11916 15.5794 1.11916 12.9661 2.74494 11.3219L12.8517 1.10006L11.764 0Z" />
</svg>
