<svg width="14" height="16" viewBox="0 0 14 16" fill="none" xmlns="http://www.w3.org/2000/svg">
<path fill-rule="evenodd" clip-rule="evenodd" d="M0.854086 1.14395C0.65886 0.94865 0.342277 0.948592 0.146979 1.14382C-0.0483191 1.33904 -0.0483774 1.65563 0.146849 1.85092L6.29335 7.99969L0.146382 14.1489C-0.0488447 14.3442 -0.0487865 14.6608 0.146512 14.856C0.34181 15.0513 0.658393 15.0512 0.853618 14.8559L7.00032 8.70693L13.147 14.8559C13.3423 15.0512 13.6588 15.0513 13.8541 14.856C14.0494 14.6608 14.0495 14.3442 13.8543 14.1489L7.7073 7.99969L13.8538 1.85092C14.049 1.65563 14.049 1.33904 13.8537 1.14382C13.6584 0.948592 13.3418 0.94865 13.1466 1.14395L7.00032 7.29245L0.854086 1.14395Z" fill="#5E5E5E"/>
</svg>
