<svg viewBox="0 0 14 14" xmlns="http://www.w3.org/2000/svg">
  <path
    d="M7 14C5.13023 14 3.37239 13.2719 2.05023 11.9498C0.728137 10.6276 0 8.86977 0 7C0 5.13023 0.728137 3.37239 2.05023 2.05023C3.37239 0.728137 5.13023 0 7 0C8.86977 0 10.6276 0.728137 11.9498 2.05023C13.2719 3.37239 14 5.13023 14 7C14 8.86977 13.2719 10.6276 11.9498 11.9498C10.6276 13.2719 8.86977 14 7 14ZM7 1.09375C3.74328 1.09375 1.09375 3.74328 1.09375 7C1.09375 10.2567 3.74328 12.9062 7 12.9062C10.2567 12.9062 12.9062 10.2567 12.9062 7C12.9062 3.74328 10.2567 1.09375 7 1.09375ZM9.4695 9.51355C9.68305 9.29996 9.68308 8.95371 9.4695 8.74016C9.25589 8.52658 8.90963 8.5266 8.69611 8.74016C7.73656 9.69965 6.17534 9.6997 5.21579 8.74016C4.751 8.27534 4.49501 7.65734 4.49501 7C4.49501 6.34266 4.751 5.72466 5.21579 5.25984C6.17534 4.3003 7.73656 4.30035 8.69611 5.25984C8.90969 5.47343 9.25594 5.47343 9.4695 5.25984C9.68305 5.04626 9.68305 4.70001 9.4695 4.48645C8.0835 3.10048 5.82835 3.10051 4.4424 4.48645C3.77098 5.15785 3.40123 6.05052 3.40123 7C3.40123 7.94948 3.77098 8.84215 4.4424 9.51355C5.13538 10.2065 6.04565 10.553 6.95595 10.553C7.86625 10.553 8.77652 10.2065 9.4695 9.51355Z" />
</svg>