<svg width="24" height="24" viewBox="0 0 24 24" fill="none" xmlns="http://www.w3.org/2000/svg">
<path d="M22.9995 12.9996H21.0003C20.4478 12.9996 20 12.5518 20 12C20 11.448 20.4478 10.9999 21.0003 10.9999H22.9995C23.5518 10.9999 23.9996 11.448 23.9996 12C23.9996 12.5518 23.553 12.9996 22.9995 12.9996Z" fill="#989898"/>
<path d="M19.0727 6.34345C18.6819 6.73369 18.0476 6.73369 17.6581 6.34345C17.2676 5.95297 17.2676 5.31984 17.6581 4.92912L19.0727 3.51503C19.4617 3.12455 20.0963 3.12455 20.487 3.51503C20.876 3.90551 20.876 4.53864 20.487 4.92912L19.0727 6.34345Z" fill="#989898"/>
<path d="M12.0008 5.99982C8.68634 5.99982 6 8.68616 6 12.0001C6 15.3136 8.68682 17.9999 12.0008 17.9999C15.3147 17.9999 18.0006 15.3136 18.0006 12.0001C18.0006 8.68616 15.3147 5.99982 12.0008 5.99982ZM12.0008 16.0002C9.79203 16.0002 8.00041 14.2088 8.00041 12.0001C8.00041 9.79088 9.79155 7.99999 12.0008 7.99999C14.21 7.99999 16.0004 9.79088 16.0004 12.0001C16.0004 14.2088 14.2095 16.0002 12.0008 16.0002Z" fill="#989898"/>
<path d="M12.0001 4.00011C11.4476 4.00011 11 3.55203 11 3.00002V1.00009C11 0.448083 11.4476 0 12.0001 0C12.5526 0 13.0002 0.448083 13.0002 1.00009V3.00002C13.0002 3.55203 12.5514 4.00011 12.0001 4.00011Z" fill="#989898"/>
<path d="M4.92961 6.34345L3.51552 4.92912C3.12504 4.53888 3.12504 3.90551 3.51552 3.51503C3.906 3.12455 4.53913 3.12455 4.92961 3.51503L6.34394 4.92912C6.73418 5.31984 6.73418 5.95297 6.34394 6.34345C5.95346 6.73369 5.32033 6.73369 4.92961 6.34345Z" fill="#989898"/>
<path d="M4.00011 12C4.00011 12.5518 3.55203 12.9996 3.00002 12.9996H0.999607C0.447603 12.9996 0 12.5518 0 12C0 11.448 0.448083 10.9999 0.999607 10.9999H3.00002C3.55251 10.9999 4.00011 11.448 4.00011 12Z" fill="#989898"/>
<path d="M4.92961 17.6569C5.32033 17.2666 5.95346 17.2666 6.34394 17.6569C6.73418 18.0471 6.73418 18.6805 6.34394 19.0712L4.92961 20.4851C4.53937 20.8758 3.906 20.8758 3.51552 20.4851C3.12504 20.0951 3.12504 19.4615 3.51552 19.0712L4.92961 17.6569Z" fill="#989898"/>
<path d="M12.0001 20C12.5526 20 13.0002 20.4474 13.0002 20.9996V23C13.0002 23.5523 12.5526 24.0001 12.0001 24.0001C11.4476 24.0001 11 23.5523 11 23V20.9996C11 20.4474 11.4476 20 12.0001 20Z" fill="#989898"/>
<path d="M19.0727 17.6569L20.487 19.0713C20.876 19.4615 20.876 20.0951 20.487 20.4851C20.0963 20.8758 19.462 20.8758 19.0727 20.4851L17.6581 19.0713C17.2676 18.6805 17.2676 18.0472 17.6581 17.6569C18.0474 17.2662 18.6807 17.2662 19.0727 17.6569Z" fill="#989898"/>
</svg>
