<svg width="25" height="25" viewBox="0 0 25 25" fill="none" xmlns="http://www.w3.org/2000/svg">
    <path d="M22.8027 0H2.19727C0.985693 0 0 0.985693 0 2.19727V22.8027C0 24.0143 0.985693 25 2.19727 25H22.8027C24.0143 25 25 24.0143 25 22.8027V2.19727C25 0.985693 24.0143 0 22.8027 0ZM23.5352 22.8027C23.5352 23.2066 23.2066 23.5352 22.8027 23.5352H2.19727C1.79341 23.5352 1.46484 23.2066 1.46484 22.8027V2.19727C1.46484 1.79341 1.79341 1.46484 2.19727 1.46484H22.8027C23.2066 1.46484 23.5352 1.79341 23.5352 2.19727V22.8027Z" fill="black"/>
    <path d="M12.5 3.95508C7.78833 3.95508 3.95508 7.78833 3.95508 12.5C3.95508 17.2117 7.78833 21.0449 12.5 21.0449C17.2117 21.0449 21.0449 17.2117 21.0449 12.5C21.0449 7.78833 17.2117 3.95508 12.5 3.95508ZM12.5 19.5801C8.59604 19.5801 5.41992 16.404 5.41992 12.5C5.41992 8.59604 8.59604 5.41992 12.5 5.41992C16.404 5.41992 19.5801 8.59604 19.5801 12.5C19.5801 16.404 16.404 19.5801 12.5 19.5801Z" fill="black"/>
    <path d="M9.13086 10.5469C8.05391 10.5469 7.17773 11.423 7.17773 12.5C7.17773 13.577 8.05391 14.4531 9.13086 14.4531C10.2078 14.4531 11.084 13.577 11.084 12.5C11.084 11.423 10.2078 10.5469 9.13086 10.5469ZM9.13086 12.9883C8.86162 12.9883 8.64258 12.7692 8.64258 12.5C8.64258 12.2308 8.86162 12.0117 9.13086 12.0117C9.4001 12.0117 9.61914 12.2308 9.61914 12.5C9.61914 12.7692 9.4001 12.9883 9.13086 12.9883Z" fill="black"/>
    <path d="M15.8691 10.5469C14.7922 10.5469 13.916 11.423 13.916 12.5C13.916 13.577 14.7922 14.4531 15.8691 14.4531C16.9461 14.4531 17.8223 13.577 17.8223 12.5C17.8223 11.423 16.9461 10.5469 15.8691 10.5469ZM15.8691 12.9883C15.5999 12.9883 15.3809 12.7692 15.3809 12.5C15.3809 12.2308 15.5999 12.0117 15.8691 12.0117C16.1384 12.0117 16.3574 12.2308 16.3574 12.5C16.3574 12.7692 16.1384 12.9883 15.8691 12.9883Z" fill="black"/>
</svg>
