<svg width="24" height="17" viewBox="0 0 24 17"  xmlns="http://www.w3.org/2000/svg">
<path d="M2.28571 0C1.01757 0 0 1.09425 0 2.40896V14.5819C0 15.8966 1.01757 17 2.28571 17H21.7143C22.9825 17 24 15.8966 24 14.5819V2.40896C24 1.09425 22.9825 0 21.7143 0H2.28571ZM2.28571 1.17241H21.7143C21.8819 1.17241 22.0441 1.21439 22.1875 1.28233L12.7411 10.2495C12.3046 10.6637 11.723 10.6637 11.2857 10.2495L1.82143 1.28233C1.963 1.21653 2.12089 1.17241 2.28571 1.17241ZM1.16074 2.25323L7.86609 8.60991L1.28571 15.1773C1.19889 15.0013 1.14286 14.8019 1.14286 14.5819V2.40896C1.14286 2.35509 1.15514 2.30485 1.16086 2.25323H1.16074ZM22.8393 2.26232C22.8445 2.31103 22.857 2.35814 22.857 2.40887V14.5818C22.857 14.7972 22.8066 14.9946 22.7231 15.168L16.1606 8.60068L22.8392 2.26232H22.8393ZM15.3304 9.38838L21.75 15.8275C21.738 15.8275 21.7263 15.8275 21.7143 15.8275H2.28571C2.27657 15.8275 2.268 15.8277 2.25886 15.8275L8.70529 9.39754L10.5089 11.1104C11.3567 11.9137 12.6701 11.9148 13.5178 11.1104L15.3303 9.38838H15.3304Z" />
</svg>
