<svg width="24" height="24" viewBox="0 0 24 24" fill="none" xmlns="http://www.w3.org/2000/svg">
<path d="M24 12C24 5.37206 18.6279 0 12 0C5.37205 0 0 5.37206 0 12C0 17.9901 4.38575 22.9545 10.126 23.8553V15.4718H7.08164V12H10.126V9.35671C10.126 6.35178 11.9145 4.68822 14.6564 4.68822C15.9715 4.68822 17.3458 4.92493 17.3458 4.92493V7.87726H15.8334C14.3408 7.87726 13.8805 8.80438 13.8805 9.75123V12H17.2077L16.6751 15.4718H13.8805V23.8553C19.6142 22.9545 24 17.9901 24 12Z" fill="#1877F2"/>
<path d="M16.6686 15.4718L17.2012 12H13.8741V9.75125C13.8741 8.8044 14.3409 7.87727 15.827 7.87727H17.3393V4.92494C17.3393 4.92494 15.9651 4.68823 14.65 4.68823C11.9081 4.68823 10.1196 6.35179 10.1196 9.35673V12H7.0752V15.4718H10.1196V23.8554C10.7311 23.954 11.3557 24 11.9936 24C12.6314 24 13.256 23.9474 13.8675 23.8554V15.4718H16.6686Z" fill="white"/>
</svg>
