<svg width="25px" height="23px" viewBox="0 0 25 23" version="1.1" xmlns="http://www.w3.org/2000/svg"
   xmlns:xlink="http://www.w3.org/1999/xlink">
   <path
      d="M12.4553,23 C11.4803,21.9756 10.5353,20.9773 9.58528,19.9868 C7.12026,17.4114 4.64524,14.8465 2.18772,12.2634 C0.785213,10.7906 -0.0147929,9.02858003 1.31166189e-11,6.91983003 C0.0025682,5.40238003 0.485741,3.92826003 1.3746,2.72669003 C2.26345,1.52512003 3.50818,0.663418029 4.91524,0.275583029 C7.38526,-0.396921971 9.58528,0.197385029 11.4428,2.04808003 C11.7828,2.38694003 12.0853,2.76750003 12.4603,3.18977003 C12.8153,2.79357003 13.0928,2.46774003 13.3903,2.14713003 C14.1524,1.32252003 15.0966,0.705011029 16.1404,0.348525029 C17.1841,-0.00796071147 18.2958,-0.0925785715 19.3781,0.102062029 C20.4605,0.296703029 21.4807,0.764682029 22.3496,1.46513003 C23.2185,2.16557003 23.9097,3.07718003 24.3629,4.12033003 C25.5029,6.70869003 25.0604,9.17976003 23.4554,11.4423 C23.2464,11.7305 23.0175,12.0023 22.7704,12.2556 C19.4237,15.7484 16.077,19.2421 12.7303,22.7367 C12.6578,22.8123 12.5803,22.8827 12.4553,23 Z">
   </path>
   <path
      d="M19.3781,0.102062 C20.4605,0.296703 21.4807,0.764682 22.3496,1.46513 C23.2185,2.16557 23.9097,3.07718 24.3629,4.12033 C25.5029,6.70869 25.0604,9.17976 23.4554,11.4423 C23.2464,11.7305 23.0175,12.0023 22.7704,12.2556 L12.6743234,22.7932391 L12.4553,23 L10.5349237,20.9805778 C10.2180689,20.648 9.90195333,20.3169667 9.58528,19.9868 L4.65005481,14.8414963 C3.82801111,13.9834444 3.00689333,13.1244333 2.18772,12.2634 C0.785213,10.7906 -0.0147929,9.02858 1.31170629e-11,6.91983 C0.0025682,5.40238 0.485741,3.92826 1.3746,2.72669 C2.26345,1.52512 3.50818,0.663418 4.91524,0.275583 C7.38526,-0.396922 9.58528,0.197385 11.4428,2.04808 C11.5788,2.183624 11.7088,2.32584 11.83984,2.47472864 L12.4603,3.18977 L13.21342,2.3406436 C13.2721,2.2755828 13.3308,2.211252 13.3903,2.14713 C14.1524,1.32252 15.0966,0.705011 16.1404,0.348525 C17.1841,-0.00796074 18.2958,-0.0925786 19.3781,0.102062 Z M19.0240995,2.07048361 C18.276548,1.93604411 17.5091558,1.9944588 16.7867957,2.24118784 C16.058779,2.48982526 15.3967832,2.92277802 14.8563641,3.50751821 L14.6438384,3.74132257 L13.9498383,4.52441438 L12.4536453,6.19425002 L10.8328597,4.36702989 L10.2884735,3.73957302 L10.1102711,3.54570605 C10.0830279,3.51721716 10.0567831,3.49039968 10.0311917,3.46489403 C8.67936683,2.11803611 7.21742738,1.72157751 5.44669116,2.20368042 C4.47378488,2.47184745 3.60694663,3.07194098 2.98247752,3.91611418 C2.34871647,4.77283979 2.00184566,5.83099235 1.99979858,6.93385967 C1.98939044,8.43925307 2.52826709,9.72084203 3.6367171,10.8848474 L12.6657736,20.3186427 L12.472,20.114 L21.3387741,10.8590159 C21.5178914,10.6754043 21.6841726,10.4779738 21.8241565,10.285129 C23.0999907,8.48660816 23.3385096,6.75636764 22.5285391,4.91727422 C22.2034887,4.16909166 21.7103771,3.518755 21.0943968,3.02219931 C20.5532955,2.58600029 19.9317398,2.27999667 19.272871,2.12253751 L19.0240995,2.07048361 Z"
      fill-opacity="0.7" fill="#FBFBFB"></path>
</svg>