<svg width="20" height="20" viewBox="0 0 20 20"  xmlns="http://www.w3.org/2000/svg">
<path fill-rule="evenodd" clip-rule="evenodd" d="M0.759644 2.07912C0.923502 1.72596 1.27744 1.5 1.66676 1.5H18.3334C18.7228 1.5 19.0767 1.72596 19.2405 2.07912C19.4044 2.43229 19.3484 2.84845 19.097 3.14573L12.6668 10.7495V17.5C12.6668 17.8466 12.4873 18.1684 12.1925 18.3507C11.8977 18.5329 11.5295 18.5494 11.2195 18.3944L7.88621 16.7278C7.54743 16.5584 7.33343 16.2121 7.33343 15.8333V10.7495L0.903191 3.14573C0.651794 2.84845 0.595785 2.43229 0.759644 2.07912ZM3.82207 3.5L9.097 9.73761C9.24966 9.91813 9.33343 10.1469 9.33343 10.3833V15.2153L10.6668 15.882V10.3833C10.6668 10.1469 10.7505 9.91813 10.9032 9.73761L16.1781 3.5H3.82207Z" />
</svg>
