<svg width="24" height="24" viewBox="0 0 24 24" fill="none" xmlns="http://www.w3.org/2000/svg">
<path d="M23.5256 12.2758C23.5256 11.4601 23.4595 10.64 23.3184 9.83752H12V14.4583H18.4815C18.2125 15.9487 17.3483 17.267 16.0829 18.1047V21.103H19.9498C22.2205 19.013 23.5256 15.9266 23.5256 12.2758Z" fill="#4285F4"/>
<path d="M12 24C15.2363 24 17.9656 22.9374 19.9542 21.1032L16.0873 18.1049C15.0115 18.8369 13.6226 19.2513 12.0044 19.2513C8.87388 19.2513 6.21955 17.1393 5.26717 14.2998H1.27686V17.3906C3.3139 21.4427 7.46294 24 12 24Z" fill="#34A853"/>
<path d="M5.26236 14.2997C4.75971 12.8094 4.75971 11.1956 5.26236 9.70534V6.6145H1.27646C-0.425486 10.0052 -0.425486 13.9999 1.27646 17.3905L5.26236 14.2997Z" fill="#FBBC04"/>
<path d="M12 4.7495C13.7107 4.72304 15.3642 5.36678 16.6032 6.54844L20.0291 3.12251C17.8598 1.08547 14.9806 -0.0344648 12 0.000808638C7.46294 0.000808638 3.3139 2.55813 1.27686 6.61458L5.26276 9.70542C6.21073 6.8615 8.86947 4.7495 12 4.7495Z" fill="#EA4335"/>
</svg>
