<svg width="17" height="17" viewBox="0 0 17 17" xmlns="http://www.w3.org/2000/svg">
   <path fill-rule="evenodd" clip-rule="evenodd"
      d="M15.0386 0H1.96137C0.878333 0 0 0.878333 0 1.96137V15.0372C0 16.1217 0.878333 17 1.96137 17H15.0393C16.1224 17 17 16.1217 17 15.0372V1.96137C17 0.878333 16.1224 0 15.0386 0V0ZM8.5 5.23104C10.3055 5.23104 11.7697 6.69375 11.7697 8.5C11.7697 10.3055 10.3055 11.7697 8.5 11.7697C6.69446 11.7697 5.23104 10.3048 5.23104 8.5C5.23104 6.69375 6.69446 5.23104 8.5 5.23104ZM14.875 14.2219C14.875 14.5825 14.5825 14.875 14.2205 14.875H2.7795C2.41754 14.875 2.125 14.5825 2.125 14.2219V7.08333H3.46871C3.40637 7.30646 3.36033 7.53667 3.32704 7.77112C3.29163 8.00983 3.26967 8.25208 3.26967 8.5C3.26967 11.3893 5.61142 13.731 8.5 13.731C11.3886 13.731 13.7303 11.3893 13.7303 8.5C13.7303 8.25208 13.7084 8.00983 13.673 7.77183C13.6397 7.53737 13.5936 7.30717 13.5313 7.08404H14.875V14.2219ZM14.875 4.31942C14.875 4.67996 14.5825 4.97321 14.2205 4.97321H12.6806C12.3186 4.97321 12.0268 4.67996 12.0268 4.31942V2.77879C12.0268 2.41754 12.3186 2.125 12.6806 2.125H14.2205C14.5825 2.125 14.875 2.41754 14.875 2.77879V4.31942Z" />
</svg>