<svg width="18" height="12" viewBox="0 0 18 12" xmlns="http://www.w3.org/2000/svg">
   <path fill-rule="evenodd" clip-rule="evenodd" d="M1.5 0C0.947715 0 0.5 0.447715 0.5 1C0.5 1.55228 0.947715 2 1.5 2H1.50833C2.06062 2 2.50833 1.55228 2.50833 1C2.50833 0.447715 2.06062 0 1.50833 0H1.5ZM5.66675 0C5.11446 0 4.66675 0.447715 4.66675 1C4.66675 1.55228 5.11446 2 5.66675 2H16.5001C17.0524 2 17.5001 1.55228 17.5001 1C17.5001 0.447715 17.0524 0 16.5001 0H5.66675ZM5.66675 5C5.11446 5 4.66675 5.44772 4.66675 6C4.66675 6.55228 5.11446 7 5.66675 7H16.5001C17.0524 7 17.5001 6.55228 17.5001 6C17.5001 5.44772 17.0524 5 16.5001 5H5.66675ZM4.66675 11C4.66675 10.4477 5.11446 10 5.66675 10H16.5001C17.0524 10 17.5001 10.4477 17.5001 11C17.5001 11.5523 17.0524 12 16.5001 12H5.66675C5.11446 12 4.66675 11.5523 4.66675 11ZM0.5 6C0.5 5.44772 0.947715 5 1.5 5H1.50833C2.06062 5 2.50833 5.44772 2.50833 6C2.50833 6.55228 2.06062 7 1.50833 7H1.5C0.947715 7 0.5 6.55228 0.5 6ZM1.5 10C0.947715 10 0.5 10.4477 0.5 11C0.5 11.5523 0.947715 12 1.5 12H1.50833C2.06062 12 2.50833 11.5523 2.50833 11C2.50833 10.4477 2.06062 10 1.50833 10H1.5Z"/>
</svg>
