<svg width="20" height="20" viewBox="0 0 20 20" xmlns="http://www.w3.org/2000/svg">
   <path fill-rule="evenodd" clip-rule="evenodd"
      d="M6.66675 0.666687C6.83586 0.666687 6.99518 0.708667 7.13483 0.782776L13.3018 3.86625L18.6704 0.798444C18.9799 0.621585 19.3602 0.622855 19.6685 0.801777C19.9768 0.980699 20.1666 1.31022 20.1666 1.66669V15C20.1666 15.3589 19.9743 15.6902 19.6627 15.8683L13.8439 19.1933C13.7072 19.2746 13.5496 19.3243 13.3811 19.3322C13.3485 19.3338 13.3159 19.3337 13.2834 19.3321C13.1343 19.3248 12.9938 19.2848 12.8688 19.2192L6.69805 16.1338L1.32939 19.2016C1.01989 19.3785 0.63964 19.3772 0.331325 19.1983C0.0230104 19.0193 -0.166748 18.6898 -0.166748 18.3334V5.00002C-0.166748 4.64116 0.025538 4.30982 0.337113 4.13178L6.1597 0.804585C6.30837 0.716956 6.48169 0.666687 6.66675 0.666687ZM14.3333 16.6102L18.1666 14.4197V3.38987L14.3333 5.58034V16.6102ZM12.3333 5.61806V16.7153L7.66675 14.3821V3.2848L12.3333 5.61806ZM1.83325 5.58034L5.66675 3.38977V14.4196L1.83325 16.6102V5.58034Z" />
</svg>