<svg width="24" height="24" viewBox="0 0 24 24" fill="none" xmlns="http://www.w3.org/2000/svg">
<path d="M7.72005 0.000624123C7.62932 0.00508739 7.53983 0.0236003 7.45478 0.0555022C2.72003 1.81005 0 6.40991 0 11.6439C0 18.4567 5.53517 24.0006 12.3484 24.0006C17.5828 24.0006 22.1921 21.2716 23.9468 16.5372C24.005 16.3778 24.0157 16.2049 23.9777 16.0395C23.9397 15.8741 23.8546 15.7233 23.7327 15.6053C23.6108 15.4872 23.4573 15.407 23.2907 15.3744C23.1242 15.3418 22.9517 15.3581 22.7943 15.4214C21.5961 15.9032 20.2785 16.1531 18.8885 16.1531C13.1524 16.1531 7.84808 10.8399 7.84808 5.10428C7.84808 3.71436 8.08886 2.39685 8.57071 1.19881C8.62396 1.06307 8.64257 0.916219 8.62486 0.771489C8.60714 0.626759 8.55367 0.488714 8.46926 0.369818C8.38485 0.250922 8.27216 0.154916 8.14136 0.0904619C8.01056 0.026008 7.86577 -0.0048725 7.72005 0.000624123ZM6.35714 2.55247C6.18673 3.37904 6.09186 4.23138 6.09186 5.10428C6.09186 11.8977 12.0946 17.9092 18.8885 17.9092C19.7615 17.9092 20.6139 17.8052 21.4405 17.6348C19.6065 20.5759 16.2763 22.2445 12.3484 22.2445C6.48432 22.2445 1.75622 17.5076 1.75622 11.6439C1.75622 7.7158 3.41523 4.38619 6.35714 2.55247Z" fill="#989898"/>
</svg>
