<svg width="24" height="24" viewBox="0 0 24 24" xmlns="http://www.w3.org/2000/svg">
   <path fill-rule="evenodd" clip-rule="evenodd" d="M12 22.8C14.7666 22.8 17.2902 21.7598 19.201 20.0491L15 15.848V18.3816C15 19.8253 14.0428 21 12.8664 21H11.1332C9.9572 21 9 19.8253 9 18.3816V12C9 11.376 9.12926 10.7649 9.31717 10.1652L3.95093 4.79897C2.24025 6.70982 1.2 9.23343 1.2 12C1.2 17.9647 6.03532 22.8 12 22.8ZM9.7731 8.92408L4.79949 3.95047C6.71027 2.24006 9.23368 1.2 12 1.2C17.9647 1.2 22.8 6.03532 22.8 12C22.8 14.7663 21.7599 17.2897 20.0495 19.2005L15 14.151V12C15 10.8214 14.5384 9.68789 14.0918 8.59119L14.0912 8.58978C13.6668 7.54909 13.2664 6.56633 13.2664 5.61841V3.49089C13.2664 3.21992 13.0876 3 12.8664 3H11.1332C10.9124 3 10.7332 3.21992 10.7332 3.49089V5.61841C10.7332 6.56633 10.3328 7.54909 9.9088 8.58978C9.86356 8.70083 9.81816 8.81226 9.7731 8.92408ZM9.97632 10.8244C9.9148 11.0549 9.86684 11.283 9.8372 11.5091H10.6611L9.97632 10.8244ZM12.3581 11.5091L10.41 9.56094C10.4794 9.38517 10.5515 9.20778 10.6244 9.02864C11.0712 7.93198 11.5332 6.79803 11.5332 5.61841V3.98178H12.4664V5.61841C12.4664 6.79803 12.9284 7.93248 13.3752 9.02913C13.7268 9.89113 14.0584 10.7134 14.1628 11.5091H12.3581ZM11.6429 12.4909H9.8V17.8907H14.2V15.048L11.6429 12.4909ZM14.2 13.351L13.3399 12.4909H14.2V13.351ZM12 24C18.6274 24 24 18.6274 24 12C24 5.37258 18.6274 0 12 0C5.37258 0 0 5.37258 0 12C0 18.6274 5.37258 24 12 24ZM11.1332 20.0182H12.8664C13.4612 20.0182 13.9604 19.5342 14.132 18.8725H9.868C10.0392 19.5342 10.5384 20.0182 11.1332 20.0182Z" />
</svg>
