<svg width="24" height="24" viewBox="0 0 24 24"  xmlns="http://www.w3.org/2000/svg">
   <path d="M12 0C9.62663 0 7.30655 0.703788 5.33316 2.02236C3.35977 3.34094 1.8217 5.21508 0.913451 7.4078C0.00519938 9.60051 -0.232441 12.0133 0.230582 14.3411C0.693605 16.6689 1.83649 18.807 3.51472 20.4853C5.19295 22.1635 7.33115 23.3064 9.65892 23.7694C11.9867 24.2324 14.3995 23.9948 16.5922 23.0866C18.7849 22.1783 20.6591 20.6402 21.9776 18.6668C23.2962 16.6934 24 14.3734 24 12C23.9964 8.81849 22.731 5.76831 20.4813 3.51865C18.2317 1.26898 15.1815 0.00355973 12 0ZM22.6551 12C22.657 14.5939 21.7085 17.0987 19.9888 19.0406L16.0347 15.0799H19.3062C19.4846 15.0799 19.6556 15.009 19.7817 14.8829C19.9079 14.7568 19.9787 14.5857 19.9787 14.4074V10.7526C19.9787 10.6563 19.9581 10.5611 19.9182 10.4735C19.8605 10.2192 19.7495 9.9801 19.5924 9.772C19.4353 9.56389 19.2358 9.39157 19.007 9.26646C18.7178 9.06472 18.6506 9.00084 18.6506 8.93023C18.6506 8.85962 18.7212 8.78565 19.007 8.594C19.3802 8.33511 19.9417 7.94508 19.9417 7.14486C19.9417 6.34463 19.3701 5.94788 19.0003 5.68563C18.7145 5.48725 18.6439 5.42 18.6439 5.3494C18.6439 5.27879 18.7145 5.20482 19.0003 5.01317C19.212 4.87586 19.4052 4.71202 19.5752 4.52564C21.5469 6.51374 22.6538 9.19998 22.6551 12ZM5.71589 13.7349C5.43438 13.7341 5.16464 13.6218 4.96558 13.4228C4.76652 13.2237 4.65429 12.954 4.65341 12.6725V12.4909C4.65341 12.2082 4.7657 11.9371 4.96559 11.7372C5.16547 11.5373 5.43657 11.425 5.71925 11.425H7.35332V13.7349H5.71589ZM8.69487 11.425H10.4735L12.7834 13.7349H8.69487V11.425ZM12.3732 11.425H18.6271V13.7349H14.6898L12.3732 11.425ZM18.5665 3.61782C18.4705 3.7277 18.3569 3.82087 18.2303 3.89353C17.8571 4.15242 17.2956 4.54245 17.2956 5.33931C17.2956 6.13617 17.8571 6.52956 18.2303 6.78845C18.5161 6.98683 18.5867 7.05408 18.5867 7.12468C18.5867 7.19529 18.5161 7.26926 18.2303 7.46091C17.8571 7.71981 17.2956 8.10983 17.2956 8.91006C17.2949 9.13185 17.3441 9.35096 17.4396 9.55117C17.535 9.75137 17.6743 9.92756 17.847 10.0667H11.0283L4.97619 4.01457C6.83946 2.36645 9.22195 1.42436 11.7085 1.35248C14.195 1.28059 16.628 2.08346 18.5834 3.62118L18.5665 3.61782ZM1.34492 12C1.34298 9.40607 2.29153 6.90132 4.01121 4.95937L9.12861 10.0801H5.71589C5.07652 10.0801 4.46333 10.3341 4.01123 10.7862C3.55912 11.2383 3.30513 11.8515 3.30513 12.4909V12.6725C3.30513 13.3118 3.55912 13.925 4.01123 14.3771C4.46333 14.8292 5.07652 15.0832 5.71589 15.0832H14.1216L19.0406 19.9888C17.5036 21.3457 15.6076 22.23 13.5803 22.5356C11.5529 22.8412 9.48048 22.5549 7.61184 21.7113C5.7432 20.8677 4.15782 19.5026 3.04614 17.7799C1.93446 16.0572 1.34373 14.0502 1.34492 12Z" />
</svg>
