<svg width="20" height="15" viewBox="0 0 20 15"  xmlns="http://www.w3.org/2000/svg">
<path fill-rule="evenodd" clip-rule="evenodd" d="M3.00936 11.6179C5.02796 13.0961 7.49406 14 10 14C12.5059 14 14.972 13.0961 16.9906 11.6179C18.7796 10.3079 20 8.68626 20 7.5C20 6.31374 18.7796 4.69215 16.9906 3.3821C14.972 1.90386 12.5059 1 10 1C7.49406 1 5.02796 1.90386 3.00936 3.3821C1.22044 4.69215 0 6.31374 0 7.5C0 8.68626 1.22044 10.3079 3.00936 11.6179ZM16.1116 10.4599C14.3337 11.7619 12.1683 12.5556 10 12.5556C7.83172 12.5556 5.66634 11.7619 3.88836 10.4599C2.43581 9.39616 1.47059 8.11368 1.47059 7.5C1.47059 6.88632 2.43581 5.60384 3.88836 4.54012C5.66634 3.23809 7.83172 2.44444 10 2.44444C12.1683 2.44444 14.3337 3.23809 16.1116 4.54012C17.5642 5.60384 18.5294 6.88632 18.5294 7.5C18.5294 8.11368 17.5642 9.39616 16.1116 10.4599ZM6.17578 7.49991C6.17578 9.65382 7.95347 11.3999 10.1464 11.3999C12.3393 11.3999 14.117 9.65382 14.117 7.49991C14.117 5.346 12.3393 3.59991 10.1464 3.59991C7.95347 3.59991 6.17578 5.346 6.17578 7.49991ZM12.6464 7.49991C12.6464 8.85608 11.5271 9.95547 10.1464 9.95547C8.76566 9.95547 7.64637 8.85608 7.64637 7.49991C7.64637 6.14375 8.76566 5.04436 10.1464 5.04436C11.5271 5.04436 12.6464 6.14375 12.6464 7.49991Z"/>
<path fill-rule="evenodd" clip-rule="evenodd" d="M17.7328 0.319553C18.1086 0.724264 18.0852 1.35699 17.6805 1.7328L3.68046 14.7328C3.27574 15.1086 2.64301 15.0852 2.26721 14.6805C1.89141 14.2757 1.91484 13.643 2.31955 13.2672L16.3196 0.267211C16.7243 -0.108592 17.357 -0.0851575 17.7328 0.319553Z" fill="none"/>
</svg>
