<svg width="12" height="12" viewBox="0 0 12 12" xmlns="http://www.w3.org/2000/svg">
<path fill-rule="evenodd" clip-rule="evenodd" d="M5.7998 0C5.24752 0 4.7998 0.447715 4.7998 1V4.7998H1C0.447715 4.7998 0 5.24752 0 5.7998V6.1998C0 6.75209 0.447715 7.1998 1 7.1998H4.7998V11C4.7998 11.5523 5.24752 12 5.7998 12H6.1998C6.75209 12 7.1998 11.5523 7.1998 11V7.1998H11C11.5523 7.1998 12 6.75209 12 6.19981V5.7998C12 5.24752 11.5523 4.7998 11 4.7998H7.1998V1C7.1998 0.447715 6.75209 0 6.19981 0H5.7998Z"/>
</svg>
