<svg width="12" height="16" viewBox="0 0 12 16" fill="none" xmlns="http://www.w3.org/2000/svg">
<path fill-rule="evenodd" clip-rule="evenodd" d="M1.5 7C1.22467 7 1 7.224 1 7.5V14.5C1 14.776 1.22467 15 1.5 15H10.5C10.7753 15 11 14.776 11 14.5V7.5C11 7.224 10.7753 7 10.5 7H9.5H2.5H1.5ZM2 6V4C2 1.794 3.794 0 6 0C8.206 0 10 1.794 10 4V6H10.5C11.3267 6 12 6.67267 12 7.5V14.5C12 15.3273 11.3267 16 10.5 16H1.5C0.673333 16 0 15.3273 0 14.5V7.5C0 6.67267 0.673333 6 1.5 6H2ZM9 6V4C9 2.346 7.654 1 6 1C4.346 1 3 2.346 3 4V6H9ZM5.5 11.2361C5.01167 11.038 4.6665 10.5586 4.6665 9.99996C4.6665 9.26463 5.2645 8.66663 5.99984 8.66663C6.73517 8.66663 7.33317 9.26463 7.33317 9.99996C7.33317 10.5585 6.98815 11.0378 6.5 11.236V12.8333C6.5 13.1093 6.276 13.3333 6 13.3333C5.724 13.3333 5.5 13.1093 5.5 12.8333V11.2361ZM5.99984 9.66663C5.8165 9.66663 5.6665 9.81596 5.6665 9.99996C5.6665 10.184 5.8165 10.3333 5.99984 10.3333C6.18317 10.3333 6.33317 10.184 6.33317 9.99996C6.33317 9.81596 6.18317 9.66663 5.99984 9.66663Z" fill="#1DCF00"/>
</svg>
