<svg width="14" height="16" viewBox="0 0 14 16" fill="none" xmlns="http://www.w3.org/2000/svg">
<path d="M6.97122 0.00104741C6.89747 0.0038234 6.82505 0.0208275 6.75822 0.0510567L0.310855 3.05161C0.217943 3.09525 0.139565 3.16316 0.0846186 3.24763C0.0296718 3.3321 0.000356502 3.42974 0 3.52948V5.93548C0 10.4126 2.77661 14.2514 6.77549 15.954C6.84617 15.9843 6.92265 16 7 16C7.07735 16 7.15383 15.9843 7.22451 15.954C11.2237 14.2515 14 10.4128 14 5.93548V3.52948C13.9996 3.42974 13.9703 3.3321 13.9154 3.24763C13.8604 3.16316 13.7821 3.09525 13.6891 3.05161L7.24178 0.0510567C7.15741 0.0126115 7.06433 -0.00459267 6.97122 0.00104741ZM7 1.12348L12.8947 3.86843V5.93548C12.8947 9.89981 10.4858 13.2801 7 14.8649C3.51445 13.28 1.10526 9.89958 1.10526 5.93548V3.86843L7 1.12348ZM10.264 5.32981C10.1402 5.34273 10.0246 5.39559 9.93585 5.47984L6.0847 9.0305L4.44408 7.44687C4.39439 7.39194 4.33355 7.34742 4.26533 7.31608C4.19712 7.28473 4.12297 7.26721 4.04746 7.26462C3.97196 7.26202 3.8967 7.27439 3.82634 7.30097C3.75599 7.32754 3.69202 7.36776 3.6384 7.41914C3.58478 7.47052 3.54264 7.53196 3.51459 7.59968C3.48654 7.66739 3.47317 7.73994 3.4753 7.81284C3.47744 7.88574 3.49503 7.95744 3.527 8.02351C3.55897 8.08959 3.60464 8.14864 3.66118 8.19701L5.6875 10.1529C5.7892 10.2515 5.92675 10.3078 6.07085 10.3099C6.21495 10.312 6.35418 10.2596 6.45888 10.164L10.6957 6.25221C10.7809 6.1762 10.8391 6.07626 10.8622 5.96654C10.8852 5.85681 10.8719 5.74287 10.8242 5.64085C10.7764 5.53882 10.6966 5.45388 10.5961 5.39806C10.4955 5.34224 10.3794 5.31836 10.264 5.32981Z" fill="#1DCF00"/>
</svg>
