<svg width="16" height="15" viewBox="0 0 16 15" xmlns="http://www.w3.org/2000/svg">
   <path
      d="M7.25671 0.486273C7.5317 -0.162092 8.4683 -0.162091 8.7433 0.486274L10.3664 4.31304C10.4823 4.58638 10.7444 4.77313 11.0453 4.79679L15.2582 5.128C15.9719 5.18411 16.2614 6.05764 15.7175 6.51447L12.5078 9.21074C12.2785 9.40333 12.1784 9.70551 12.2485 9.99347L13.2291 14.0249C13.3952 14.708 12.6375 15.2478 12.0264 14.8818L8.41962 12.7214C8.162 12.5671 7.838 12.5671 7.58038 12.7214L3.97359 14.8818C3.36249 15.2478 2.60476 14.708 2.77091 14.0249L3.75154 9.99347C3.82158 9.70551 3.72146 9.40333 3.4922 9.21074L0.28245 6.51446C-0.261374 6.05764 0.0280543 5.18411 0.741833 5.128L4.95469 4.79679C5.2556 4.77313 5.51772 4.58638 5.63365 4.31304L7.25671 0.486273Z" />
</svg>