<svg width="22" height="21" viewBox="0 0 22 21" fill="none" xmlns="http://www.w3.org/2000/svg">
<path fill-rule="evenodd" clip-rule="evenodd" d="M11 2.12813L9.13094 6.61505C8.75497 7.5176 7.90568 8.13281 6.93238 8.21072L2.08626 8.59864L5.77675 11.7551C6.51946 12.3904 6.84459 13.388 6.61731 14.3394L5.48905 19.0621L9.64201 16.5294C10.4758 16.0209 11.5242 16.0209 12.358 16.5294L16.511 19.0621L15.3827 14.3394C15.1554 13.388 15.4805 12.3904 16.2232 11.7551L19.9137 8.59864L15.0676 8.21072C14.0943 8.13281 13.245 7.5176 12.8691 6.61505L11 2.12813ZM12.022 0.680784C11.6439 -0.226927 10.3561 -0.226928 9.97797 0.680782L7.74627 6.03826C7.58686 6.42093 7.22644 6.68239 6.81269 6.71551L1.02002 7.17919C0.0385747 7.25776 -0.35939 8.48069 0.388368 9.12025L4.80177 12.895C5.11701 13.1647 5.25468 13.5877 5.15837 13.9909L3.81 19.6349C3.58155 20.5912 4.62343 21.347 5.46368 20.8345L10.423 17.81C10.7772 17.594 11.2228 17.594 11.577 17.81L16.5363 20.8345C17.3766 21.347 18.4185 20.5912 18.19 19.6349L16.8416 13.9909C16.7453 13.5877 16.883 13.1647 17.1982 12.895L21.6116 9.12025C22.3594 8.48069 21.9614 7.25776 20.98 7.17919L15.1873 6.71551C14.7736 6.68239 14.4131 6.42093 14.2537 6.03826L12.022 0.680784Z" fill="black"/>
</svg>
