<svg width="20" height="20" viewBox="0 0 20 20"  xmlns="http://www.w3.org/2000/svg">
<path d="M19.1535 0.0328161L0.44414 6.14629C-0.0842373 6.31895 -0.160647 7.03765 0.320231 7.31724L7.39067 11.4286C7.61373 11.5583 7.89251 11.5426 8.09961 11.3888L10.0872 9.9128L8.61113 11.9003C8.45734 12.1075 8.4417 12.3863 8.57137 12.6093L12.6827 19.6798C12.9626 20.161 13.6812 20.0838 13.8537 19.5558L19.9672 0.846511C20.1312 0.344141 19.6534 -0.130649 19.1535 0.0328161ZM13.0743 17.7864L9.9005 12.3282L13.7276 7.1749C13.9183 6.91805 13.892 6.56028 13.6658 6.33407C13.4396 6.10787 13.0818 6.08158 12.825 6.2723L7.67163 10.0994L2.2135 6.92555L18.3458 1.65416L13.0743 17.7864Z" />
</svg>
