<svg width="16" height="16" viewBox="0 0 16 16" xmlns="http://www.w3.org/2000/svg">
   <path d="M12.2453 5.85469L6.90455 11.1954L3.91016 8.20104L4.8487 7.24015L6.90455 9.27366L11.2844 4.8938L12.2453 5.85469Z" />
   <path d="M7.99995 15.9999C3.57539 15.9999 0 12.4022 0 7.99995C0 3.5754 3.59774 0 7.99995 0C12.4022 0 15.9999 3.59774 15.9999 7.99995C16.0222 12.4022 12.4245 15.9999 7.99995 15.9999ZM7.99995 1.25139C4.29047 1.25139 1.25139 4.26813 1.25139 7.99995C1.25139 11.7318 4.26813 14.7485 7.99995 14.7485C11.7094 14.7485 14.7485 11.7318 14.7485 7.99995C14.7485 4.26813 11.7318 1.25139 7.99995 1.25139Z" />
</svg>
