<svg width="17" height="13" viewBox="0 0 17 13" xmlns="http://www.w3.org/2000/svg">
  <path
    d="M17 1.53902C16.3745 1.8003 15.7023 1.97626 14.9968 2.05558C15.7172 1.64966 16.2704 1.00646 16.5304 0.239951C15.8567 0.615874 15.1102 0.889151 14.3154 1.03645C13.68 0.398585 12.7727 0 11.7697 0C9.51787 0 7.86321 1.97693 8.37179 4.02917C5.474 3.89253 2.90417 2.58614 1.18362 0.600543C0.269875 2.07557 0.70975 4.00518 2.26242 4.98231C1.6915 4.96498 1.15317 4.81768 0.683542 4.57173C0.645292 6.09208 1.80342 7.51446 3.48075 7.83106C2.98987 7.95637 2.45225 7.98569 1.90542 7.88705C2.34883 9.19078 3.63658 10.1393 5.16375 10.1659C3.6975 11.2477 1.85017 11.7309 0 11.5256C1.54346 12.4568 3.37733 13 5.3465 13C11.8221 13 15.4806 7.85372 15.2596 3.238C15.941 2.77476 16.5325 2.19688 17 1.53902Z" />
</svg>