<svg width="25" height="25" viewBox="0 0 25 25"  xmlns="http://www.w3.org/2000/svg">
   <path d="M14.5194 8.28269C14.3671 8.07035 14.1216 7.94434 13.8604 7.94434H13.7802C13.4306 7.94434 13.1205 8.16832 13.0106 8.50016L11.2679 13.759L9.51714 8.49908C9.40682 8.16788 9.09695 7.94434 8.74777 7.94434H8.69575C8.69252 7.94434 8.68916 7.94453 8.68606 7.94453C8.68271 7.94453 8.67942 7.94434 8.67625 7.94434H8.61309C8.26347 7.94434 7.95328 8.16832 7.84328 8.50016L6.10068 13.759L4.34999 8.49908C4.23973 8.16788 3.92973 7.94434 3.58062 7.94434H3.50037C3.23897 7.94434 2.99359 8.07035 2.84125 8.28269C2.68891 8.49516 2.64853 8.76807 2.73239 9.01554L5.27195 16.5057C5.38353 16.8348 5.69239 17.0562 6.03999 17.0562H6.07353C6.08321 17.0562 6.09271 17.0557 6.10233 17.0553C6.11188 17.0557 6.12144 17.0562 6.13106 17.0562H6.15347C6.50157 17.0562 6.81081 16.834 6.92195 16.5042L8.68429 11.2716L10.4386 16.5031C10.5494 16.8335 10.859 17.0562 11.2075 17.0562H11.2408C11.2505 17.0562 11.26 17.0557 11.2697 17.0553C11.2792 17.0557 11.2888 17.0562 11.2984 17.0562H11.3209C11.6684 17.0562 11.9772 16.8348 12.0888 16.5057L14.6284 9.01554C14.7122 8.76807 14.6716 8.49522 14.5194 8.28269Z" />
   <path d="M22.0183 14.7024C21.7173 14.4229 21.2548 14.4127 20.9417 14.6785C20.4024 15.1364 19.7068 15.3885 18.9833 15.3885C17.3334 15.3885 15.9911 14.0904 15.9911 12.4948C15.9911 10.9052 17.3334 9.61199 18.9833 9.61199C19.7138 9.61199 20.4087 9.85984 20.9403 10.3099C21.2623 10.5824 21.7394 10.5628 22.0377 10.2644L22.0648 10.2374C22.2258 10.0765 22.3115 9.85535 22.3015 9.62801C22.2913 9.40067 22.1862 9.18801 22.0116 9.04206C21.1653 8.33421 20.0897 7.94434 18.9832 7.94434C16.4137 7.94434 14.3232 9.98566 14.3232 12.4948C14.3232 15.01 16.4137 17.0562 18.9832 17.0562C20.0879 17.0562 21.1663 16.6634 22.0199 15.9499C22.1985 15.8005 22.3044 15.5817 22.3103 15.349C22.3165 15.1162 22.2222 14.8921 22.0517 14.7336L22.0183 14.7024Z"/>
   <path d="M19.8102 0H5.18981C2.32816 0 0 2.3281 0 5.18975V19.8096C0 22.6716 2.32816 25 5.18981 25H19.8102C22.6719 25 25 22.6716 25 19.8096V5.18975C25 2.3281 22.6719 0 19.8102 0ZM24.0506 19.8096C24.0506 22.1481 22.1484 24.0506 19.8102 24.0506H5.18981C2.85165 24.0506 0.949367 22.1481 0.949367 19.8096V5.18975C0.949367 2.85158 2.85165 0.949367 5.18981 0.949367H19.8102C22.1484 0.949367 24.0506 2.85158 24.0506 5.18975V19.8096Z" fill="#323232"/>
   <path fill-rule="evenodd" clip-rule="evenodd" d="M5.18981 0H19.8102C22.6719 0 25 2.3281 25 5.18975V19.8096C25 22.6716 22.6719 25 19.8102 25H5.18981C2.32816 25 0 22.6716 0 19.8096V5.18975C0 2.3281 2.32816 0 5.18981 0ZM19.8102 24.0506C22.1484 24.0506 24.0506 22.1481 24.0506 19.8096V5.18975C24.0506 2.85158 22.1484 0.949367 19.8102 0.949367H5.18981C2.85165 0.949367 0.949367 2.85158 0.949367 5.18975V19.8096C0.949367 22.1481 2.85165 24.0506 5.18981 24.0506H19.8102Z"/>
</svg>
