<svg width="30" height="30" viewBox="0 0 30 30" fill="none" xmlns="http://www.w3.org/2000/svg">
<path d="M26.25 15C26.25 12.0458 25.1113 9.35758 23.2489 7.35025M26.25 15C26.25 17.9542 25.1113 20.6424 23.2489 22.6498M26.25 15H18.75M15 26.25C18.259 26.25 21.1944 24.8642 23.2489 22.6498M15 26.25C11.741 26.25 8.80563 24.8642 6.75107 22.6498M15 26.25V3.75M3.75 15C3.75 12.0458 4.88867 9.35758 6.75107 7.35025M3.75 15C3.75 17.9542 4.88867 20.6424 6.75107 22.6498M3.75 15H11.25M15 3.75C18.259 3.75 21.1944 5.13579 23.2489 7.35025M15 3.75C11.741 3.75 8.80563 5.13579 6.75107 7.35025M11.25 15C11.25 11.7104 9.43464 8.84474 6.75107 7.35025M11.25 15C11.25 18.2896 9.43464 21.1553 6.75107 22.6498M11.25 15H18.75M18.75 15C18.75 11.7104 20.5654 8.84474 23.2489 7.35025M18.75 15C18.75 18.2896 20.5654 21.1553 23.2489 22.6498" stroke="black" stroke-width="1.2"/>
</svg>
