<svg width="25" height="25" viewBox="0 0 25 25" fill="none" xmlns="http://www.w3.org/2000/svg">
    <path d="M14.5194 8.2826C14.3671 8.07026 14.1216 7.94424 13.8604 7.94424H13.7802C13.4306 7.94424 13.1205 8.16823 13.0106 8.50007L11.2679 13.7589L9.51714 8.49899C9.40682 8.16779 9.09695 7.94424 8.74777 7.94424H8.69575C8.69252 7.94424 8.68916 7.94443 8.68606 7.94443C8.68271 7.94443 8.67942 7.94424 8.67625 7.94424H8.61309C8.26347 7.94424 7.95328 8.16823 7.84328 8.50007L6.10068 13.7589L4.34999 8.49899C4.23973 8.16779 3.92973 7.94424 3.58062 7.94424H3.50037C3.23897 7.94424 2.99359 8.07026 2.84125 8.2826C2.68891 8.49507 2.64853 8.76798 2.73239 9.01545L5.27195 16.5056C5.38353 16.8348 5.69239 17.0561 6.03999 17.0561H6.07353C6.08321 17.0561 6.09271 17.0556 6.10233 17.0552C6.11188 17.0556 6.12144 17.0561 6.13106 17.0561H6.15347C6.50157 17.0561 6.81081 16.8339 6.92195 16.5041L8.68429 11.2715L10.4386 16.503C10.5494 16.8334 10.859 17.0561 11.2075 17.0561H11.2408C11.2505 17.0561 11.26 17.0556 11.2697 17.0552C11.2792 17.0556 11.2888 17.0561 11.2984 17.0561H11.3209C11.6684 17.0561 11.9772 16.8348 12.0888 16.5056L14.6284 9.01545C14.7122 8.76798 14.6716 8.49513 14.5194 8.2826Z" fill="#323232"/>
    <path d="M22.0178 14.7023C21.7168 14.4229 21.2543 14.4126 20.9412 14.6784C20.4019 15.1363 19.7064 15.3884 18.9828 15.3884C17.3329 15.3884 15.9906 14.0903 15.9906 12.4947C15.9906 10.9051 17.3329 9.6119 18.9828 9.6119C19.7133 9.6119 20.4083 9.85975 20.9398 10.3098C21.2618 10.5823 21.7389 10.5627 22.0372 10.2643L22.0643 10.2373C22.2253 10.0764 22.311 9.85526 22.301 9.62792C22.2908 9.40057 22.1857 9.18791 22.0111 9.04197C21.1648 8.33412 20.0892 7.94424 18.9828 7.94424C16.4133 7.94424 14.3228 9.98557 14.3228 12.4948C14.3228 15.0099 16.4133 17.0561 18.9828 17.0561C20.0874 17.0561 21.1659 16.6633 22.0194 15.9498C22.198 15.8004 22.3039 15.5816 22.3098 15.3489C22.316 15.1161 22.2217 14.892 22.0512 14.7335L22.0178 14.7023Z" fill="#323232"/>
    <mask id="path-3-inside-1" fill="white">
        <path d="M19.8102 0H5.18981C2.32816 0 0 2.3281 0 5.18975V19.8096C0 22.6716 2.32816 25 5.18981 25H19.8102C22.6719 25 25 22.6716 25 19.8096V5.18975C25 2.3281 22.6719 0 19.8102 0ZM24.0506 19.8096C24.0506 22.1481 22.1484 24.0506 19.8102 24.0506H5.18981C2.85165 24.0506 0.949367 22.1481 0.949367 19.8096V5.18975C0.949367 2.85158 2.85165 0.949367 5.18981 0.949367H19.8102C22.1484 0.949367 24.0506 2.85158 24.0506 5.18975V19.8096Z"/>
    </mask>
    <path d="M19.8102 0H5.18981C2.32816 0 0 2.3281 0 5.18975V19.8096C0 22.6716 2.32816 25 5.18981 25H19.8102C22.6719 25 25 22.6716 25 19.8096V5.18975C25 2.3281 22.6719 0 19.8102 0ZM24.0506 19.8096C24.0506 22.1481 22.1484 24.0506 19.8102 24.0506H5.18981C2.85165 24.0506 0.949367 22.1481 0.949367 19.8096V5.18975C0.949367 2.85158 2.85165 0.949367 5.18981 0.949367H19.8102C22.1484 0.949367 24.0506 2.85158 24.0506 5.18975V19.8096Z" fill="#323232"/>
    <path d="M19.8102 -1H5.18981V1H19.8102V-1ZM5.18981 -1C1.7759 -1 -1 1.7758 -1 5.18975H1C1 2.8804 2.88043 1 5.18981 1V-1ZM-1 5.18975V19.8096H1V5.18975H-1ZM-1 19.8096C-1 23.2238 1.77577 26 5.18981 26V24C2.88056 24 1 22.1194 1 19.8096H-1ZM5.18981 26H19.8102V24H5.18981V26ZM19.8102 26C23.2243 26 26 23.2237 26 19.8096H24C24 22.1194 22.1195 24 19.8102 24V26ZM26 19.8096V5.18975H24V19.8096H26ZM26 5.18975C26 1.77581 23.2242 -1 19.8102 -1V1C22.1196 1 24 2.88039 24 5.18975H26ZM23.0506 19.8096C23.0506 21.596 21.596 23.0506 19.8102 23.0506V25.0506C22.7008 25.0506 25.0506 22.7002 25.0506 19.8096H23.0506ZM19.8102 23.0506H5.18981V25.0506H19.8102V23.0506ZM5.18981 23.0506C3.40407 23.0506 1.94937 21.596 1.94937 19.8096H-0.0506329C-0.0506329 22.7003 2.29922 25.0506 5.18981 25.0506V23.0506ZM1.94937 19.8096V5.18975H-0.0506329V19.8096H1.94937ZM1.94937 5.18975C1.94937 3.40389 3.40391 1.94937 5.18981 1.94937V-0.0506329C2.29938 -0.0506329 -0.0506329 2.29928 -0.0506329 5.18975H1.94937ZM5.18981 1.94937H19.8102V-0.0506329H5.18981V1.94937ZM19.8102 1.94937C21.5961 1.94937 23.0506 3.40388 23.0506 5.18975H25.0506C25.0506 2.29929 22.7007 -0.0506329 19.8102 -0.0506329V1.94937ZM23.0506 5.18975V19.8096H25.0506V5.18975H23.0506Z" fill="black" mask="url(#path-3-inside-1)"/>
</svg>
