<svg width="30" height="30" viewBox="0 0 30 30" fill="none" xmlns="http://www.w3.org/2000/svg">
<path d="M15 27.5C21.9036 27.5 27.5 21.9036 27.5 15C27.5 8.09644 21.9036 2.5 15 2.5C8.09644 2.5 2.5 8.09644 2.5 15C2.5 21.9036 8.09644 27.5 15 27.5Z" stroke="black" stroke-width="1.2"/>
<path d="M9.4 10.625C9.4 11.3292 8.82916 11.9 8.125 11.9C7.42084 11.9 6.85 11.3292 6.85 10.625C6.85 9.92084 7.42084 9.35 8.125 9.35C8.82916 9.35 9.4 9.92084 9.4 10.625ZM14.4 6.875C14.4 7.57916 13.8292 8.15 13.125 8.15C12.4208 8.15 11.85 7.57916 11.85 6.875C11.85 6.17084 12.4208 5.6 13.125 5.6C13.8292 5.6 14.4 6.17084 14.4 6.875ZM14.4 11.875C14.4 12.5792 13.8292 13.15 13.125 13.15C12.4208 13.15 11.85 12.5792 11.85 11.875C11.85 11.1708 12.4208 10.6 13.125 10.6C13.8292 10.6 14.4 11.1708 14.4 11.875Z" stroke="black" stroke-width="1.2"/>
</svg>
