<svg width="30" height="30" viewBox="0 0 30 30" fill="none" xmlns="http://www.w3.org/2000/svg">
<path d="M8.75 21.25V13.6703C8.48673 13.7289 8.21304 13.7598 7.93213 13.7598C5.86106 13.7598 4.18213 12.0808 4.18213 10.0098C4.18213 7.9387 5.86106 6.25977 7.93213 6.25977C9.57483 6.25977 10.9579 7.28443 11.4651 8.7548C11.3258 8.36247 11.25 7.94009 11.25 7.5C11.25 5.42893 12.9289 3.75 15 3.75C17.0711 3.75 18.75 5.42893 18.75 7.5C18.75 7.94009 18.6742 8.36247 18.5349 8.7548C19.0463 7.29197 20.4385 6.25977 22.0758 6.25977C24.1469 6.25977 25.8258 7.9387 25.8258 10.0098C25.8258 12.0808 24.1469 13.7598 22.0758 13.7598C21.7921 13.7598 21.5157 13.7283 21.25 13.6685V21.25M8.75 21.25V26.25H21.25V21.25M8.75 21.25H21.25" stroke="black" stroke-width="1.2"/>
</svg>
