<svg width="30" height="30" viewBox="0 0 30 30" fill="none" xmlns="http://www.w3.org/2000/svg">
<path fill-rule="evenodd" clip-rule="evenodd" d="M3.40806 16.026C3.26331 15.8167 3.1344 15.597 3.02242 15.3685L3.02263 15.3687C2.81821 15.1323 2.66793 14.854 2.58229 14.5534C2.49666 14.2528 2.47775 13.9372 2.52688 13.6285C2.50917 13.4546 2.50021 13.28 2.50002 13.1052C2.49829 12.3855 2.64863 11.6735 2.94121 11.0159C2.89928 10.6119 2.9728 10.2043 3.15323 9.84046C3.33366 9.47659 3.61359 9.17136 3.96053 8.96021C3.21205 8.4444 2.69195 7.6592 2.50899 6.7688C2.49409 6.69709 2.49776 6.62276 2.51966 6.55287C2.54156 6.48298 2.58096 6.41985 2.63412 6.36947C2.68729 6.31908 2.75244 6.28313 2.82341 6.26501C2.89438 6.2469 2.9688 6.24722 3.0396 6.26596L5.72832 6.97742C5.93904 7.03313 6.12809 7.15105 6.2708 7.31579C6.62695 7.1377 7.0257 7.06245 7.42226 7.09851C7.81882 7.13456 8.19746 7.28049 8.51565 7.5199C8.92628 7.21135 9.43397 7.06035 9.94648 7.09432C10.459 7.12829 10.9423 7.34499 11.3086 7.70504C11.7098 7.31063 12.2499 7.08962 12.8125 7.08962C13.3751 7.08962 13.9152 7.31063 14.3164 7.70504C14.7182 7.31153 15.2579 7.09067 15.8203 7.08962C16.3829 7.08778 16.9234 7.30817 17.3242 7.70284C17.6175 7.41595 17.9866 7.21893 18.3882 7.13502C18.7897 7.05111 19.2069 7.08381 19.5904 7.22927C19.7833 6.92224 20.0513 6.66942 20.369 6.49463C20.6867 6.31984 21.0437 6.22885 21.4063 6.23024C21.4453 6.23024 21.4843 6.23132 21.5234 6.23347C21.6755 5.92691 21.9247 5.67922 22.2322 5.52892C22.5397 5.37862 22.8882 5.33412 23.2236 5.40234C23.2609 5.39146 23.2986 5.38116 23.3368 5.37146C23.6358 5.11645 24.0203 4.98425 24.4129 5.0015C24.8055 5.01874 25.177 5.18414 25.4525 5.46438C25.5709 5.43563 25.6922 5.4211 25.8141 5.42109C26.1338 5.42119 26.4457 5.51987 26.7074 5.70369C26.969 5.88751 27.1676 6.14753 27.2761 6.44831C27.5369 6.57705 27.7568 6.77588 27.911 7.02253C28.0653 7.26917 28.1478 7.55389 28.1494 7.84479C28.1494 8.15388 28.057 8.45591 27.8841 8.71212L28.2466 12.7C28.2657 12.9064 28.2076 13.1124 28.0836 13.2784C27.9596 13.4444 27.7785 13.5586 27.5752 13.5989C27.5361 13.6066 27.4968 13.6138 27.4574 13.6204C26.9801 13.7007 26.4912 13.6809 26.022 13.5621C25.5528 13.4433 25.1134 13.2281 24.7318 12.9303C24.6093 13.2928 24.3924 13.6161 24.1036 13.8671C23.8147 14.1181 23.4643 14.2876 23.0882 14.3583C22.9883 14.8867 22.695 15.3589 22.2656 15.6828V15.6834C22.2659 16.1093 22.1394 16.5256 21.9023 16.8794C21.6652 17.2332 21.3282 17.5085 20.9342 17.6702L20.5564 20.787L21.8086 24.1262C21.833 24.1913 21.8413 24.2612 21.8327 24.3301C21.8241 24.399 21.799 24.4648 21.7595 24.5219C21.7199 24.5789 21.6671 24.6256 21.6056 24.6578C21.5441 24.69 21.4757 24.7068 21.4063 24.7068H17.5391C17.4593 24.7068 17.381 24.6846 17.3131 24.6427C17.2452 24.6007 17.1903 24.5407 17.1546 24.4693L15.4359 21.0318C15.3982 20.9564 15.3835 20.8716 15.3936 20.7879L15.6766 18.4529C14.6025 18.7418 13.4951 18.888 12.3828 18.8877C11.8224 18.8876 11.2626 18.8505 10.7071 18.7767C10.2562 19.5707 9.63825 20.2573 8.89598 20.7891L8.63446 20.9759L10.189 24.0849C10.2218 24.1504 10.2372 24.2232 10.234 24.2964C10.2307 24.3696 10.2087 24.4407 10.1702 24.503C10.1317 24.5653 10.0779 24.6167 10.014 24.6524C9.94998 24.6881 9.87795 24.7068 9.80471 24.7068H5.50784C5.43496 24.7068 5.36328 24.6883 5.29954 24.6529C5.2358 24.6176 5.18209 24.5667 5.14346 24.5049L3.50103 21.8768C3.30823 21.5681 3.19294 21.2174 3.16499 20.8545C3.13705 20.4916 3.19728 20.1274 3.34055 19.7928L3.61882 19.1436C3.79561 18.7288 3.88675 18.2827 3.88675 17.8318C3.88675 17.381 3.79561 16.9348 3.61882 16.52L3.41445 16.0433C3.41301 16.0399 3.4118 16.0364 3.41059 16.033C3.40977 16.0306 3.40895 16.0283 3.40806 16.026ZM4.22984 21.4215L5.74599 23.8474H6.96104L5.55349 21.0318C5.50768 20.9403 5.49604 20.8354 5.52066 20.7361C5.54527 20.6368 5.60453 20.5495 5.68777 20.49L6.24803 20.0898C6.91832 19.6114 7.47035 18.986 7.86193 18.2615H7.65627C6.60436 18.2594 5.57819 17.936 4.71522 17.3345C4.8027 18.0649 4.69701 18.8054 4.4087 19.4821L4.13042 20.1313C4.0417 20.3384 4.0044 20.5639 4.02171 20.7886C4.03902 21.0133 4.11043 21.2304 4.22984 21.4215ZM7.83621 20.49L8.39646 20.0898C8.95105 19.6926 9.42601 19.1947 9.7966 18.6219C9.45192 18.5503 9.11078 18.4642 8.77319 18.3635C8.31656 19.332 7.61911 20.1671 6.74754 20.7891L6.48602 20.9759L7.92182 23.8474H9.10948L7.70193 21.0318C7.65612 20.9403 7.64448 20.8354 7.66909 20.7361C7.69371 20.6368 7.75297 20.5495 7.83621 20.49ZM16.2624 20.763L17.8046 23.8474H18.9923L17.5846 21.032C17.5752 21.0132 17.5671 20.9937 17.5606 20.9737C17.5601 20.9722 17.5598 20.9707 17.5595 20.9692C17.5592 20.9679 17.5589 20.9666 17.5585 20.9652C17.5531 20.9481 17.5487 20.9306 17.5455 20.9129C17.545 20.9102 17.5448 20.9076 17.5446 20.9049C17.5445 20.9025 17.5443 20.9001 17.544 20.8978C17.5416 20.8821 17.54 20.8664 17.5394 20.8506C17.5392 20.844 17.5403 20.8374 17.5403 20.8309C17.5406 20.8164 17.5406 20.8021 17.5423 20.7879L17.8485 18.2615H16.5656L16.2624 20.763ZM19.9531 23.8474H20.7862L19.7151 20.9905C19.6909 20.9259 19.6826 20.8564 19.6909 20.7879L20.0147 18.1159C19.7073 18.2127 19.3868 18.2618 19.0645 18.2615H18.719L18.4111 20.7634L19.2106 22.3625L19.9531 23.8474ZM22.3478 6.52351C22.2921 6.60228 22.2534 6.6918 22.2342 6.78637C22.2162 6.87403 22.1714 6.95391 22.1059 7.01485L23.8155 7.74752C24.1719 7.43688 24.6125 7.23913 25.0814 7.17937C25.5503 7.11961 26.0264 7.20054 26.4493 7.41188L27.2891 7.83196C27.2857 7.68504 27.2362 7.54291 27.1475 7.42575C27.0588 7.30858 26.9354 7.22234 26.7949 7.17926C26.7194 7.15657 26.6516 7.11353 26.5989 7.05487C26.5463 6.99621 26.5107 6.92419 26.4962 6.84668C26.4779 6.74682 26.4378 6.65223 26.3787 6.56961C26.3197 6.487 26.2432 6.4184 26.1547 6.36867C26.0661 6.31894 25.9677 6.28931 25.8665 6.28189C25.7652 6.27446 25.6635 6.28941 25.5687 6.32569C25.4668 6.36418 25.354 6.36251 25.2533 6.32101C25.2033 6.30044 25.1484 6.28014 25.0855 6.25898C25.0074 6.23275 24.9386 6.18465 24.8871 6.1204C24.826 6.04371 24.7493 5.98084 24.6621 5.93594C24.575 5.89104 24.4793 5.86513 24.3814 5.85991C24.2834 5.85469 24.1855 5.87029 24.0941 5.90567C24.0026 5.94106 23.9197 5.99542 23.8508 6.06519C23.7927 6.12382 23.719 6.16449 23.6384 6.18233C23.5484 6.2022 23.4594 6.22662 23.3718 6.25549C23.2883 6.28324 23.1983 6.28464 23.114 6.25952C23.0215 6.23179 22.9243 6.22364 22.8286 6.23559C22.7328 6.24753 22.6406 6.2793 22.5579 6.32887C22.4751 6.37845 22.4035 6.44474 22.3478 6.52351ZM21.4837 7.68334L21.4393 7.86128H21.4395C21.377 8.11367 21.405 8.37999 21.5186 8.61387C21.6322 8.84775 21.8242 9.03438 22.0612 9.14127C22.2111 9.20719 22.3735 9.24016 22.5372 9.23795H23.4323C23.5416 9.23795 23.6468 9.27962 23.7265 9.35446C23.8061 9.4293 23.8543 9.53169 23.8611 9.64078C23.872 9.81463 23.9126 9.98532 23.9813 10.1454L24.4138 11.1545C24.9094 12.311 26.1022 12.9763 27.3148 12.7729C27.3394 12.7688 27.364 12.7644 27.3887 12.7596L27.0156 8.6561L26.0649 8.1807C25.7633 8.02987 25.4201 7.9833 25.0892 8.04828C24.7583 8.11326 24.4582 8.28612 24.236 8.53981C24.1762 8.60813 24.0963 8.65575 24.0077 8.67584C23.9192 8.69593 23.8266 8.68746 23.7431 8.65164L21.4837 7.68334ZM5.50827 7.80789L3.60572 7.30446C3.86117 7.78763 4.25921 8.18042 4.74573 8.42944C4.94657 8.23605 5.19142 8.0944 5.45917 8.01667C5.49973 7.95802 5.54366 7.90221 5.58942 7.8485C5.56545 7.82954 5.53782 7.81571 5.50827 7.80789ZM3.3594 13.1052C3.35952 13.2686 3.36883 13.4317 3.38727 13.594C3.39217 13.637 3.39054 13.6804 3.38244 13.7229C3.36727 13.8026 3.35955 13.8835 3.3594 13.9646C3.35911 14.2878 3.48057 14.5992 3.6996 14.8369C3.72884 14.8687 3.75312 14.9047 3.77163 14.9437C4.12199 15.6776 4.67246 16.2977 5.35969 16.7327C6.04692 17.1676 6.84298 17.3996 7.65627 17.4021H8.51565C8.56204 17.4021 8.60813 17.4096 8.65213 17.4244C11.0202 18.2119 13.5768 18.2297 15.9556 17.4753C16.0481 17.4322 16.1481 17.4073 16.25 17.4021H19.0645C19.5493 17.4029 20.0218 17.2496 20.4137 16.9643C20.4488 16.9389 20.4876 16.919 20.5287 16.9052C20.8074 16.8116 21.0456 16.6255 21.2039 16.3777C21.3621 16.1299 21.4308 15.8354 21.3985 15.5432C21.3914 15.4778 21.3994 15.4117 21.4219 15.3499L21.4394 15.3019C21.4736 15.2077 21.5397 15.1285 21.6262 15.0779C21.8203 14.9639 21.9814 14.8013 22.0936 14.6061C22.2057 14.4108 22.265 14.1898 22.2656 13.9646C22.2656 13.8507 22.3109 13.7414 22.3915 13.6608C22.4721 13.5802 22.5814 13.5349 22.6953 13.5349C23.0371 13.5345 23.3648 13.3986 23.6064 13.1569C23.8481 12.9153 23.984 12.5876 23.9844 12.2459C23.9844 12.2157 23.9876 12.1857 23.9939 12.1562C23.8479 11.9485 23.724 11.7262 23.6239 11.4929L23.1914 10.4838C23.1378 10.3589 23.0951 10.2296 23.0636 10.0974H22.5372C22.251 10.1 21.9675 10.0411 21.706 9.92448C21.2858 9.73453 20.9455 9.40318 20.7444 8.98816C20.5434 8.57313 20.4942 8.10073 20.6056 7.65321L20.6929 7.30409C20.4731 7.4501 20.3036 7.66009 20.2071 7.90565C20.1851 7.96125 20.1518 8.01166 20.1093 8.05365C20.0667 8.09564 20.0159 8.12829 19.96 8.1495L19.9326 8.16024C19.9157 8.16674 19.8989 8.17318 19.882 8.17952C19.8206 8.20232 19.7548 8.21078 19.6897 8.20427C19.6245 8.19775 19.5617 8.17643 19.506 8.14192C19.2161 7.96257 18.867 7.90539 18.535 7.9829C18.203 8.06042 17.9153 8.26631 17.7348 8.5555C17.7002 8.61087 17.6533 8.65761 17.5979 8.69217C17.5425 8.72672 17.4799 8.74819 17.4149 8.75493C17.3943 8.75702 17.3735 8.75895 17.3529 8.76078L17.3236 8.76352C17.2438 8.77106 17.1636 8.75616 17.0918 8.72049C17.0201 8.68482 16.9598 8.62982 16.9177 8.56167C16.8005 8.37176 16.6361 8.2155 16.4405 8.10817C16.2449 8.00084 16.0248 7.94613 15.8017 7.94937C15.5786 7.95262 15.3601 8.01372 15.1677 8.1267C14.9753 8.23967 14.8155 8.40066 14.704 8.5939C14.6663 8.65912 14.612 8.71326 14.5468 8.75091C14.4815 8.78855 14.4075 8.80837 14.3321 8.80837H14.3007C14.2254 8.80836 14.1514 8.78854 14.0861 8.75089C14.0209 8.71325 13.9666 8.65911 13.9289 8.5939C13.8158 8.39785 13.6531 8.23502 13.4572 8.12181C13.2612 8.00861 13.0389 7.949 12.8126 7.949C12.5862 7.949 12.3639 8.00861 12.1679 8.12181C11.972 8.23502 11.8093 8.39785 11.6962 8.5939C11.6585 8.65912 11.6042 8.71326 11.539 8.75091C11.4737 8.78855 11.3997 8.80837 11.3243 8.80837H11.2929C11.2176 8.80836 11.1436 8.78854 11.0783 8.75089C11.0131 8.71325 10.9588 8.65911 10.9211 8.5939C10.8189 8.41664 10.676 8.26626 10.5041 8.15522C10.3323 8.04418 10.1364 7.97567 9.93284 7.95536C9.72924 7.93506 9.52374 7.96353 9.33333 8.03843C9.14293 8.11333 8.9731 8.23251 8.83791 8.38609C8.79759 8.43181 8.748 8.46843 8.69244 8.49351C8.63688 8.5186 8.57661 8.53157 8.51565 8.53157C8.45469 8.53157 8.39442 8.5186 8.33886 8.49351C8.2833 8.46843 8.23371 8.43181 8.19338 8.38609C8.05736 8.23163 7.88631 8.11199 7.69455 8.03721C7.50279 7.96243 7.29591 7.93468 7.09123 7.95628C6.88654 7.97788 6.69001 8.04821 6.51808 8.16137C6.34616 8.27453 6.20385 8.42723 6.10306 8.60668C6.07144 8.66284 6.02759 8.71116 5.97476 8.74807C5.92193 8.78498 5.86148 8.80953 5.79788 8.81992C5.66225 8.84223 5.53394 8.89673 5.42372 8.97885C5.31349 9.06097 5.22455 9.16831 5.16435 9.29187C5.13465 9.35283 5.09093 9.40588 5.03679 9.44671C4.98264 9.48753 4.91961 9.51496 4.85283 9.52675C4.55446 9.57907 4.28414 9.73506 4.08953 9.9672C3.89492 10.1993 3.78852 10.4927 3.78909 10.7957C3.78923 10.8678 3.79535 10.9399 3.8074 11.011C3.82196 11.0977 3.80955 11.1869 3.77184 11.2663C3.49871 11.8408 3.35778 12.4692 3.3594 13.1052ZM26.4014 9.66774C26.4014 10.0534 26.0888 10.366 25.7031 10.366C25.3175 10.366 25.0049 10.0534 25.0049 9.66774C25.0049 9.28211 25.3175 8.9695 25.7031 8.9695C26.0888 8.9695 26.4014 9.28211 26.4014 9.66774Z" fill="black"/>
<path d="M3.02242 15.3685L3.05775 15.3331L2.97752 15.3905L3.02242 15.3685ZM3.40806 16.026L3.45612 16.0076L3.44918 15.9975L3.40806 16.026ZM3.02263 15.3687L2.9873 15.4041L3.06045 15.336L3.02263 15.3687ZM2.58229 14.5534L2.63038 14.5397L2.58229 14.5534ZM2.52688 13.6285L2.57797 13.6366L2.57662 13.6234L2.52688 13.6285ZM2.50002 13.1052L2.55002 13.1052L2.55002 13.1051L2.50002 13.1052ZM2.94121 11.0159L2.98689 11.0362L2.99232 11.024L2.99094 11.0107L2.94121 11.0159ZM3.15323 9.84046L3.19803 9.86267L3.15323 9.84046ZM3.96053 8.96021L3.98653 9.00292L4.05242 8.96281L3.9889 8.91904L3.96053 8.96021ZM2.50899 6.7688L2.55797 6.75874L2.55795 6.75863L2.50899 6.7688ZM2.82341 6.26501L2.81104 6.21657L2.82341 6.26501ZM3.0396 6.26596L3.02681 6.3143H3.02681L3.0396 6.26596ZM5.72832 6.97742L5.71553 7.02575L5.71554 7.02575L5.72832 6.97742ZM6.2708 7.31579L6.23301 7.34853L6.25843 7.37788L6.29316 7.36051L6.2708 7.31579ZM7.42226 7.09851L7.42679 7.04871L7.42226 7.09851ZM8.51565 7.5199L8.48559 7.55985L8.51563 7.58245L8.54568 7.55987L8.51565 7.5199ZM9.94648 7.09432L9.94317 7.14421L9.94648 7.09432ZM11.3086 7.70504L11.2736 7.7407L11.3086 7.77515L11.3437 7.74069L11.3086 7.70504ZM14.3164 7.70504L14.2814 7.74069L14.3164 7.77509L14.3514 7.74076L14.3164 7.70504ZM15.8203 7.08962L15.8204 7.13962L15.8205 7.13962L15.8203 7.08962ZM17.3242 7.70284L17.2892 7.73847L17.3241 7.77289L17.3592 7.73857L17.3242 7.70284ZM18.3882 7.13502L18.3984 7.18396L18.3882 7.13502ZM19.5904 7.22927L19.5727 7.27602L19.611 7.29053L19.6327 7.25587L19.5904 7.22927ZM20.369 6.49463L20.3931 6.53844L20.369 6.49463ZM21.4063 6.23024L21.4061 6.28024H21.4063V6.23024ZM21.5234 6.23347L21.5206 6.28339L21.5535 6.2852L21.5681 6.2557L21.5234 6.23347ZM22.2322 5.52892L22.2542 5.57384V5.57384L22.2322 5.52892ZM23.2236 5.40234L23.2136 5.45134L23.2257 5.4538L23.2376 5.45034L23.2236 5.40234ZM23.3368 5.37146L23.3491 5.41992L23.3604 5.41705L23.3693 5.4095L23.3368 5.37146ZM24.4129 5.0015L24.4151 4.95155L24.4129 5.0015ZM25.4525 5.46438L25.4168 5.49943L25.4367 5.51966L25.4643 5.51297L25.4525 5.46438ZM25.8141 5.42109L25.8141 5.37109H25.8141L25.8141 5.42109ZM26.7074 5.70369L26.7361 5.66278L26.7361 5.66278L26.7074 5.70369ZM27.2761 6.44831L27.229 6.46527L27.2359 6.48423L27.2539 6.49315L27.2761 6.44831ZM28.1494 7.84479L28.1994 7.84479L28.1994 7.84453L28.1494 7.84479ZM27.8841 8.71212L27.8426 8.68415L27.8327 8.69891L27.8343 8.71664L27.8841 8.71212ZM28.2466 12.7L28.1968 12.7046L28.1968 12.7046L28.2466 12.7ZM28.0836 13.2784L28.1236 13.3083L28.0836 13.2784ZM27.5752 13.5989L27.5849 13.648L27.585 13.6479L27.5752 13.5989ZM27.4574 13.6204L27.4491 13.5711L27.4491 13.5711L27.4574 13.6204ZM26.022 13.5621L26.0343 13.5136L26.022 13.5621ZM24.7318 12.9303L24.7625 12.8909L24.707 12.8475L24.6844 12.9143L24.7318 12.9303ZM24.1036 13.8671L24.0708 13.8294L24.1036 13.8671ZM23.0882 14.3583L23.079 14.3092L23.0454 14.3155L23.0391 14.349L23.0882 14.3583ZM22.2656 15.6828L22.2355 15.6429L22.2157 15.6579V15.6828H22.2656ZM22.2656 15.6834H22.2157V15.6834L22.2656 15.6834ZM21.9023 16.8794L21.8608 16.8516L21.9023 16.8794ZM20.9342 17.6702L20.9152 17.6239L20.8881 17.6351L20.8846 17.6642L20.9342 17.6702ZM20.5564 20.787L20.5068 20.781L20.5053 20.7931L20.5096 20.8046L20.5564 20.787ZM21.8086 24.1262L21.7618 24.1438L21.8086 24.1262ZM21.4063 24.7068L21.4063 24.6568H21.4063V24.7068ZM17.5391 24.7068V24.6568H17.5391L17.5391 24.7068ZM17.3131 24.6427L17.2868 24.6852L17.3131 24.6427ZM17.1546 24.4693L17.1099 24.4917L17.1099 24.4917L17.1546 24.4693ZM15.4359 21.0318L15.4806 21.0094L15.4806 21.0094L15.4359 21.0318ZM15.3936 20.7879L15.344 20.7819L15.344 20.7819L15.3936 20.7879ZM15.6766 18.4529L15.7262 18.4589L15.7352 18.3854L15.6636 18.4046L15.6766 18.4529ZM12.3828 18.8877L12.3829 18.8377H12.3828L12.3828 18.8877ZM10.7071 18.7767L10.7136 18.7271L10.6802 18.7227L10.6636 18.752L10.7071 18.7767ZM8.89598 20.7891L8.92504 20.8298L8.92509 20.8297L8.89598 20.7891ZM8.63446 20.9759L8.60539 20.9352L8.57063 20.96L8.58974 20.9982L8.63446 20.9759ZM10.189 24.0849L10.1443 24.1073H10.1443L10.189 24.0849ZM10.234 24.2964L10.184 24.2942L10.234 24.2964ZM10.1702 24.503L10.2128 24.5293H10.2128L10.1702 24.503ZM10.014 24.6524L10.0383 24.6961H10.0383L10.014 24.6524ZM9.80471 24.7068V24.7568H9.80471L9.80471 24.7068ZM5.14346 24.5049L5.10106 24.5314L5.10106 24.5314L5.14346 24.5049ZM3.50103 21.8768L3.45863 21.9033L3.45863 21.9033L3.50103 21.8768ZM3.16499 20.8545L3.11514 20.8583L3.16499 20.8545ZM3.34055 19.7928L3.29459 19.7731L3.29458 19.7731L3.34055 19.7928ZM3.61882 19.1436L3.66478 19.1633L3.66482 19.1632L3.61882 19.1436ZM3.61882 16.52L3.66482 16.5004L3.66478 16.5003L3.61882 16.52ZM3.41445 16.0433L3.36836 16.0627L3.3685 16.063L3.41445 16.0433ZM3.41059 16.033L3.45775 16.0164L3.45775 16.0164L3.41059 16.033ZM5.74599 23.8474L5.70359 23.8739L5.71828 23.8974H5.74599V23.8474ZM4.22984 21.4215L4.18744 21.448L4.18744 21.448L4.22984 21.4215ZM6.96104 23.8474V23.8974H7.04193L7.00576 23.8251L6.96104 23.8474ZM5.55349 21.0318L5.59821 21.0094L5.5982 21.0094L5.55349 21.0318ZM5.68777 20.49L5.65871 20.4493L5.65868 20.4493L5.68777 20.49ZM6.24803 20.0898L6.21898 20.0491L6.21897 20.0491L6.24803 20.0898ZM7.86193 18.2615L7.90592 18.2853L7.94579 18.2115H7.86193V18.2615ZM7.65627 18.2615L7.65618 18.3115H7.65627V18.2615ZM4.71522 17.3345L4.74381 17.2935L4.65231 17.2297L4.66558 17.3404L4.71522 17.3345ZM4.4087 19.4821L4.45465 19.5018L4.45469 19.5017L4.4087 19.4821ZM4.13042 20.1313L4.08446 20.1116L4.08446 20.1116L4.13042 20.1313ZM8.39646 20.0898L8.42552 20.1305L8.42558 20.1305L8.39646 20.0898ZM7.83621 20.49L7.80715 20.4493L7.80712 20.4493L7.83621 20.49ZM9.7966 18.6219L9.83858 18.6491L9.87823 18.5878L9.80677 18.573L9.7966 18.6219ZM8.77319 18.3635L8.78748 18.3156L8.74629 18.3033L8.72797 18.3422L8.77319 18.3635ZM6.74754 20.7891L6.7185 20.7484L6.71848 20.7484L6.74754 20.7891ZM6.48602 20.9759L6.45696 20.9352L6.42219 20.96L6.4413 20.9982L6.48602 20.9759ZM7.92182 23.8474L7.8771 23.8698L7.89092 23.8974H7.92182V23.8474ZM9.10948 23.8474V23.8974H9.19037L9.1542 23.8251L9.10948 23.8474ZM7.70193 21.0318L7.74665 21.0094L7.74664 21.0094L7.70193 21.0318ZM17.8046 23.8474L17.7599 23.8698L17.7737 23.8974H17.8046V23.8474ZM16.2624 20.763L16.2128 20.757L16.211 20.7719L16.2177 20.7854L16.2624 20.763ZM18.9923 23.8474V23.8974H19.0732L19.037 23.8251L18.9923 23.8474ZM17.5846 21.032L17.5399 21.0544L17.5399 21.0544L17.5846 21.032ZM17.5606 20.9737L17.6081 20.9581L17.608 20.9579L17.5606 20.9737ZM17.5595 20.9692L17.5105 20.9797L17.5106 20.9797L17.5595 20.9692ZM17.5585 20.9652L17.6063 20.9505L17.6062 20.9502L17.5585 20.9652ZM17.5455 20.9129L17.4962 20.9214L17.4963 20.9219L17.5455 20.9129ZM17.5446 20.9049L17.4948 20.9085V20.9085L17.5446 20.9049ZM17.544 20.8978L17.5935 20.8909L17.5934 20.8901L17.544 20.8978ZM17.5394 20.8506L17.4894 20.8518L17.4894 20.8526L17.5394 20.8506ZM17.5403 20.8309L17.4903 20.8298V20.8309H17.5403ZM17.5423 20.7879L17.4927 20.7819L17.4927 20.7819L17.5423 20.7879ZM17.8485 18.2615L17.8981 18.2675L17.9049 18.2115H17.8485V18.2615ZM16.5656 18.2615V18.2115H16.5213L16.516 18.2555L16.5656 18.2615ZM20.7862 23.8474V23.8974H20.8584L20.8331 23.8299L20.7862 23.8474ZM19.9531 23.8474L19.9083 23.8698L19.9222 23.8974H19.9531V23.8474ZM19.7151 20.9905L19.6683 21.008L19.6683 21.008L19.7151 20.9905ZM19.6909 20.7879L19.6412 20.7819L19.6412 20.7819L19.6909 20.7879ZM20.0147 18.1159L20.0644 18.1219L20.0737 18.0449L19.9997 18.0682L20.0147 18.1159ZM19.0645 18.2615L19.0645 18.2115H19.0645V18.2615ZM18.719 18.2615V18.2115H18.6748L18.6694 18.2554L18.719 18.2615ZM18.4111 20.7634L18.3615 20.7573L18.3596 20.7723L18.3664 20.7858L18.4111 20.7634ZM19.2106 22.3625L19.1659 22.3849L19.2106 22.3625ZM22.2342 6.78637L22.2832 6.79639L22.2832 6.79631L22.2342 6.78637ZM22.1059 7.01485L22.0718 6.97824L22.0156 7.03055L22.0862 7.06081L22.1059 7.01485ZM23.8155 7.74752L23.7958 7.79348L23.8247 7.80585L23.8484 7.78521L23.8155 7.74752ZM26.4493 7.41188L26.4717 7.36717L26.4717 7.36716L26.4493 7.41188ZM27.2891 7.83196L27.2667 7.87667L27.3409 7.91381L27.3391 7.83082L27.2891 7.83196ZM27.1475 7.42575L27.1076 7.45593V7.45593L27.1475 7.42575ZM26.7949 7.17926L26.8096 7.13146L26.8093 7.13138L26.7949 7.17926ZM26.5989 7.05487L26.6361 7.02146V7.02146L26.5989 7.05487ZM26.4962 6.84668L26.4471 6.85573L26.4471 6.85587L26.4962 6.84668ZM26.3787 6.56961L26.338 6.59868V6.59868L26.3787 6.56961ZM26.1547 6.36867L26.1791 6.32508L26.1547 6.36867ZM25.8665 6.28189L25.8701 6.23202L25.8665 6.28189ZM25.5687 6.32569L25.5864 6.37246L25.5866 6.37239L25.5687 6.32569ZM25.2533 6.32101L25.2723 6.27478L25.2723 6.27477L25.2533 6.32101ZM25.0855 6.25898L25.1014 6.21159L25.1014 6.21158L25.0855 6.25898ZM24.8871 6.1204L24.848 6.15156L24.8481 6.15167L24.8871 6.1204ZM24.3814 5.85991L24.384 5.80998L24.3814 5.85991ZM23.8508 6.06519L23.8863 6.10037L23.8864 6.10032L23.8508 6.06519ZM23.6384 6.18233L23.6492 6.23116L23.6493 6.23115L23.6384 6.18233ZM23.3718 6.25549L23.3561 6.208L23.356 6.20804L23.3718 6.25549ZM23.114 6.25952L23.0996 6.30741L23.0997 6.30743L23.114 6.25952ZM22.8286 6.23559L22.8224 6.18597L22.8286 6.23559ZM22.5579 6.32887L22.5835 6.37177V6.37177L22.5579 6.32887ZM21.4393 7.86128L21.3907 7.84916L21.3752 7.91128H21.4393V7.86128ZM21.4837 7.68334L21.5034 7.63738L21.4495 7.61425L21.4352 7.67122L21.4837 7.68334ZM21.4395 7.86128L21.488 7.8733L21.5034 7.81128H21.4395V7.86128ZM21.5186 8.61387L21.4736 8.63571V8.63571L21.5186 8.61387ZM22.0612 9.14127L22.0407 9.18685L22.0411 9.18704L22.0612 9.14127ZM22.5372 9.23795V9.18794L22.5365 9.18795L22.5372 9.23795ZM23.4323 9.23795L23.4323 9.18795H23.4323V9.23795ZM23.7265 9.35446L23.6922 9.3909V9.3909L23.7265 9.35446ZM23.8611 9.64078L23.911 9.63767L23.911 9.63766L23.8611 9.64078ZM23.9813 10.1454L24.0272 10.1257L24.0272 10.1257L23.9813 10.1454ZM24.4138 11.1545L24.4597 11.1348V11.1348L24.4138 11.1545ZM27.3148 12.7729L27.3065 12.7236L27.3065 12.7236L27.3148 12.7729ZM27.3887 12.7596L27.3981 12.8087L27.4425 12.8001L27.4384 12.7551L27.3887 12.7596ZM27.0156 8.6561L27.0654 8.65157L27.0629 8.62383L27.038 8.61138L27.0156 8.6561ZM26.0649 8.1807L26.0873 8.13598V8.13598L26.0649 8.1807ZM24.236 8.53981L24.1984 8.50687L24.1984 8.50688L24.236 8.53981ZM23.7431 8.65164L23.7629 8.6057L23.7628 8.60568L23.7431 8.65164ZM3.60572 7.30446L3.61851 7.25612L3.50817 7.22693L3.56151 7.32783L3.60572 7.30446ZM5.50827 7.80789L5.49548 7.85623L5.49548 7.85623L5.50827 7.80789ZM4.74573 8.42944L4.72295 8.47395L4.75471 8.4902L4.78041 8.46546L4.74573 8.42944ZM5.45917 8.01667L5.47311 8.06469L5.49019 8.05973L5.5003 8.0451L5.45917 8.01667ZM5.58942 7.8485L5.62748 7.88093L5.66111 7.84145L5.62044 7.80928L5.58942 7.8485ZM3.38727 13.594L3.33759 13.5997L3.3376 13.5997L3.38727 13.594ZM3.3594 13.1052L3.4094 13.1052L3.4094 13.1051L3.3594 13.1052ZM3.38244 13.7229L3.33332 13.7136L3.33332 13.7136L3.38244 13.7229ZM3.3594 13.9646L3.3094 13.9645L3.3094 13.9646L3.3594 13.9646ZM3.6996 14.8369L3.7364 14.803L3.73637 14.803L3.6996 14.8369ZM3.77163 14.9437L3.72646 14.9651L3.72651 14.9652L3.77163 14.9437ZM5.35969 16.7327L5.33295 16.7749L5.35969 16.7327ZM7.65627 17.4021L7.65612 17.4521H7.65627V17.4021ZM8.51565 17.4021L8.51565 17.3521H8.51565V17.4021ZM8.65213 17.4244L8.63626 17.4718L8.63635 17.4718L8.65213 17.4244ZM15.9556 17.4753L15.9709 17.5234L15.9768 17.5206L15.9556 17.4753ZM16.25 17.4021V17.3521L16.2475 17.3522L16.25 17.4021ZM19.0645 17.4021L19.0646 17.3521H19.0645V17.4021ZM20.4137 16.9643L20.3844 16.9238L20.3843 16.9239L20.4137 16.9643ZM20.5287 16.9052L20.5446 16.9527L20.5446 16.9526L20.5287 16.9052ZM21.2039 16.3777L21.246 16.4046L21.2039 16.3777ZM21.3985 15.5432L21.3488 15.5486L21.3488 15.5487L21.3985 15.5432ZM21.4219 15.3499L21.4689 15.367L21.4689 15.367L21.4219 15.3499ZM21.4394 15.3019L21.3924 15.2848L21.3924 15.2848L21.4394 15.3019ZM21.6262 15.0779L21.6514 15.121L21.6515 15.121L21.6262 15.0779ZM22.0936 14.6061L22.1369 14.631L22.0936 14.6061ZM22.2656 13.9646L22.3156 13.9648V13.9646H22.2656ZM22.3915 13.6608L22.4269 13.6961L22.3915 13.6608ZM22.6953 13.5349V13.5849H22.6954L22.6953 13.5349ZM23.9844 12.2459L23.9344 12.2458V12.2458L23.9844 12.2459ZM23.9939 12.1562L24.0428 12.1666L24.0474 12.1453L24.0348 12.1274L23.9939 12.1562ZM23.6239 11.4929L23.578 11.5126V11.5126L23.6239 11.4929ZM23.1914 10.4838L23.2374 10.4641L23.2374 10.4641L23.1914 10.4838ZM23.0636 10.0974L23.1122 10.0858L23.1031 10.0474H23.0636V10.0974ZM22.5372 10.0974V10.0474L22.5368 10.0474L22.5372 10.0974ZM21.706 9.92448L21.6854 9.97004L21.6857 9.97015L21.706 9.92448ZM20.7444 8.98816L20.6994 9.00996L20.7444 8.98816ZM20.6056 7.65321L20.5571 7.64108L20.5571 7.64113L20.6056 7.65321ZM20.6929 7.30409L20.7414 7.31621L20.7727 7.19103L20.6652 7.26244L20.6929 7.30409ZM20.2071 7.90565L20.2536 7.924L20.2536 7.92393L20.2071 7.90565ZM20.1093 8.05365L20.0742 8.01807L20.0742 8.01807L20.1093 8.05365ZM19.96 8.1495L19.9423 8.10275L19.9417 8.10295L19.96 8.1495ZM19.9326 8.16024L19.9506 8.20689L19.9509 8.20679L19.9326 8.16024ZM19.882 8.17952L19.8994 8.22639L19.8996 8.22634L19.882 8.17952ZM19.6897 8.20427L19.6847 8.25402H19.6847L19.6897 8.20427ZM19.506 8.14192L19.5324 8.09943L19.5323 8.0994L19.506 8.14192ZM17.7348 8.5555L17.7772 8.58202L17.7772 8.58197L17.7348 8.5555ZM17.5979 8.69217L17.5714 8.64974L17.5979 8.69217ZM17.4149 8.75493L17.42 8.80467L17.4201 8.80466L17.4149 8.75493ZM17.3529 8.76078L17.3485 8.71097L17.3483 8.711L17.3529 8.76078ZM17.3236 8.76352L17.3189 8.71374L17.3189 8.71374L17.3236 8.76352ZM17.0918 8.72049L17.1141 8.67572L17.0918 8.72049ZM16.9177 8.56167L16.8751 8.58792L16.8751 8.58796L16.9177 8.56167ZM16.4405 8.10817L16.4646 8.06433H16.4646L16.4405 8.10817ZM15.8017 7.94937L15.801 7.89938L15.8017 7.94937ZM15.1677 8.1267L15.1931 8.16981L15.1677 8.1267ZM14.704 8.5939L14.7473 8.61894L14.7473 8.6189L14.704 8.5939ZM14.5468 8.75091L14.5218 8.70759V8.70759L14.5468 8.75091ZM14.3321 8.80837V8.85837H14.3321L14.3321 8.80837ZM14.3007 8.80837L14.3007 8.85837H14.3007V8.80837ZM14.0861 8.75089L14.1111 8.70758V8.70758L14.0861 8.75089ZM13.9289 8.5939L13.8856 8.61888L13.8856 8.61894L13.9289 8.5939ZM13.4572 8.12181L13.4822 8.07852L13.4572 8.12181ZM12.1679 8.12181L12.1429 8.07852L12.1679 8.12181ZM11.6962 8.5939L11.7395 8.61894L11.7395 8.61888L11.6962 8.5939ZM11.539 8.75091L11.5639 8.79422L11.539 8.75091ZM11.3243 8.80837V8.85837H11.3243L11.3243 8.80837ZM11.2929 8.80837L11.2929 8.85837H11.2929V8.80837ZM11.0783 8.75089L11.0533 8.79421L11.0783 8.75089ZM10.9211 8.5939L10.8778 8.61887L10.8778 8.61894L10.9211 8.5939ZM9.93284 7.95536L9.92787 8.00512L9.93284 7.95536ZM9.33333 8.03843L9.31503 7.9919V7.9919L9.33333 8.03843ZM8.83791 8.38609L8.87541 8.41916L8.87545 8.41913L8.83791 8.38609ZM8.69244 8.49351L8.71301 8.53909L8.69244 8.49351ZM8.33886 8.49351L8.35943 8.44794V8.44794L8.33886 8.49351ZM8.19338 8.38609L8.15586 8.41914L8.15588 8.41916L8.19338 8.38609ZM7.09123 7.95628L7.08598 7.90656H7.08598L7.09123 7.95628ZM6.10306 8.60668L6.14663 8.63122L6.14666 8.63117L6.10306 8.60668ZM5.97476 8.74807L6.0034 8.78906L6.0034 8.78906L5.97476 8.74807ZM5.79788 8.81992L5.78982 8.77057L5.78976 8.77058L5.79788 8.81992ZM5.42372 8.97885L5.45359 9.01895L5.42372 8.97885ZM5.16435 9.29187L5.2093 9.31378L5.2093 9.31377L5.16435 9.29187ZM5.03679 9.44671L5.06689 9.48663H5.06689L5.03679 9.44671ZM4.85283 9.52675L4.86147 9.576L4.86153 9.57599L4.85283 9.52675ZM3.78909 10.7957L3.73909 10.7958V10.7958L3.78909 10.7957ZM3.8074 11.011L3.85671 11.0027L3.8567 11.0027L3.8074 11.011ZM3.77184 11.2663L3.817 11.2878L3.81702 11.2878L3.77184 11.2663ZM2.97752 15.3905C3.0906 15.6212 3.22077 15.8431 3.36694 16.0544L3.44918 15.9975C3.30585 15.7904 3.1782 15.5727 3.06731 15.3465L2.97752 15.3905ZM3.05797 15.3334L3.05775 15.3331L2.98708 15.4039L2.9873 15.4041L3.05797 15.3334ZM2.53421 14.5671C2.62184 14.8747 2.77562 15.1595 2.98481 15.4014L3.06045 15.336C2.8608 15.1051 2.71402 14.8333 2.63038 14.5397L2.53421 14.5671ZM2.4775 13.6206C2.42722 13.9365 2.44658 14.2595 2.53421 14.5671L2.63038 14.5397C2.54674 14.2462 2.52827 13.9378 2.57626 13.6364L2.4775 13.6206ZM2.45002 13.1053C2.45021 13.2817 2.45926 13.458 2.47714 13.6336L2.57662 13.6234C2.55908 13.4512 2.55021 13.2783 2.55002 13.1052L2.45002 13.1053ZM2.89552 10.9956C2.60009 11.6596 2.44827 12.3786 2.45002 13.1054L2.55002 13.1051C2.54831 12.3924 2.69718 11.6874 2.98689 11.0362L2.89552 10.9956ZM3.10843 9.81825C2.92381 10.1906 2.84857 10.6077 2.89147 11.021L2.99094 11.0107C2.94999 10.6162 3.0218 10.2181 3.19803 9.86267L3.10843 9.81825ZM3.93454 8.9175C3.57952 9.13357 3.29306 9.44591 3.10843 9.81825L3.19803 9.86267C3.37425 9.50728 3.64767 9.20916 3.98653 9.00292L3.93454 8.9175ZM2.46002 6.77887C2.64557 7.68191 3.17305 8.47825 3.93216 9.00138L3.9889 8.91904C3.25104 8.41055 2.73833 7.6365 2.55797 6.75874L2.46002 6.77887ZM2.47195 6.53792C2.4475 6.61595 2.4434 6.69892 2.46004 6.77898L2.55795 6.75863C2.54477 6.69526 2.54802 6.62958 2.56737 6.56782L2.47195 6.53792ZM2.59973 6.33317C2.54038 6.38942 2.49639 6.4599 2.47195 6.53792L2.56737 6.56782C2.58672 6.50606 2.62154 6.45028 2.66852 6.40576L2.59973 6.33317ZM2.81104 6.21657C2.73182 6.23679 2.65908 6.27693 2.59973 6.33317L2.66852 6.40576C2.71549 6.36124 2.77307 6.32947 2.83578 6.31346L2.81104 6.21657ZM3.05239 6.21762C2.97335 6.19671 2.89027 6.19634 2.81104 6.21657L2.83578 6.31346C2.89849 6.29745 2.96425 6.29774 3.02681 6.3143L3.05239 6.21762ZM5.74111 6.92908L3.05239 6.21762L3.02681 6.3143L5.71553 7.02575L5.74111 6.92908ZM6.30859 7.28306C6.1593 7.11071 5.96154 6.98736 5.7411 6.92908L5.71554 7.02575C5.91655 7.0789 6.09688 7.19138 6.23301 7.34853L6.30859 7.28306ZM7.42679 7.04871C7.02097 7.01181 6.6129 7.08882 6.24844 7.27107L6.29316 7.36051C6.64099 7.18658 7.03043 7.11309 7.41773 7.1483L7.42679 7.04871ZM8.54571 7.47994C8.22009 7.23495 7.8326 7.08561 7.42679 7.04871L7.41773 7.1483C7.80503 7.18351 8.17483 7.32603 8.48559 7.55985L8.54571 7.47994ZM9.94979 7.04443C9.42534 7.00967 8.90581 7.16419 8.48561 7.47992L8.54568 7.55987C8.94675 7.25851 9.44261 7.11103 9.94317 7.14421L9.94979 7.04443ZM11.3437 7.66938C10.9688 7.30094 10.4742 7.0792 9.94979 7.04443L9.94317 7.14421C10.4437 7.17739 10.9158 7.38904 11.2736 7.7407L11.3437 7.66938ZM12.8125 7.03962C12.2368 7.03962 11.6841 7.26578 11.2736 7.66938L11.3437 7.74069C11.7355 7.35548 12.263 7.13962 12.8125 7.13962V7.03962ZM14.3515 7.66938C13.9409 7.26578 13.3882 7.03962 12.8125 7.03962V7.13962C13.362 7.13962 13.8895 7.35548 14.2814 7.74069L14.3515 7.66938ZM15.8202 7.03962C15.2448 7.0407 14.6926 7.26668 14.2814 7.66932L14.3514 7.74076C14.7439 7.35638 15.2711 7.14065 15.8204 7.13962L15.8202 7.03962ZM17.3593 7.66721C16.9491 7.2633 16.3959 7.03774 15.8202 7.03962L15.8205 7.13962C16.3699 7.13783 16.8977 7.35305 17.2892 7.73847L17.3593 7.66721ZM18.3779 7.08608C17.967 7.17194 17.5893 7.37354 17.2893 7.6671L17.3592 7.73857C17.6456 7.45836 18.0062 7.26592 18.3984 7.18396L18.3779 7.08608ZM19.6081 7.18252C19.2157 7.03368 18.7888 7.00022 18.3779 7.08608L18.3984 7.18396C18.7906 7.102 19.198 7.13395 19.5727 7.27602L19.6081 7.18252ZM20.3449 6.45082C20.0197 6.6297 19.7455 6.88845 19.5481 7.20266L19.6327 7.25587C19.8212 6.95604 20.0828 6.70913 20.3931 6.53844L20.3449 6.45082ZM21.4065 6.18024C21.0354 6.17882 20.67 6.27194 20.3449 6.45082L20.3931 6.53844C20.7033 6.36775 21.052 6.27889 21.4061 6.28024L21.4065 6.18024ZM21.5261 6.18354C21.4861 6.18134 21.4462 6.18024 21.4063 6.18024V6.28024C21.4443 6.28024 21.4825 6.28129 21.5206 6.28339L21.5261 6.18354ZM22.2103 5.484C21.8929 5.63914 21.6357 5.89481 21.4786 6.21123L21.5681 6.2557C21.7154 5.95901 21.9566 5.7193 22.2542 5.57384L22.2103 5.484ZM23.2336 5.35335C22.8874 5.28292 22.5276 5.32885 22.2103 5.484L22.2542 5.57384C22.5517 5.42838 22.889 5.38531 23.2136 5.45134L23.2336 5.35335ZM23.3245 5.323C23.2857 5.33284 23.2474 5.34329 23.2096 5.35435L23.2376 5.45034C23.2743 5.43962 23.3115 5.42948 23.3491 5.41992L23.3245 5.323ZM24.4151 4.95155C24.0099 4.93375 23.613 5.0702 23.3044 5.33342L23.3693 5.4095C23.6586 5.16271 24.0308 5.03476 24.4107 5.05145L24.4151 4.95155ZM25.4881 5.42933C25.2038 5.14007 24.8204 4.96934 24.4151 4.95155L24.4107 5.05145C24.7907 5.06814 25.1502 5.22822 25.4168 5.49943L25.4881 5.42933ZM25.8141 5.37109C25.6883 5.3711 25.5629 5.38611 25.4407 5.41579L25.4643 5.51297C25.5788 5.48516 25.6962 5.4711 25.8141 5.47109L25.8141 5.37109ZM26.7361 5.66278C26.4661 5.47305 26.1441 5.37119 25.8141 5.37109L25.814 5.47109C26.1235 5.47118 26.4254 5.56669 26.6786 5.7446L26.7361 5.66278ZM27.3231 6.43134C27.2111 6.12089 27.0062 5.85251 26.7361 5.66278L26.6786 5.7446C26.9318 5.92251 27.124 6.17417 27.229 6.46527L27.3231 6.43134ZM27.9534 6.99602C27.7943 6.7415 27.5674 6.53632 27.2982 6.40347L27.2539 6.49315C27.5065 6.61778 27.7193 6.81026 27.8687 7.04904L27.9534 6.99602ZM28.1994 7.84453C28.1978 7.54434 28.1126 7.25054 27.9534 6.99602L27.8687 7.04904C28.018 7.28781 28.0979 7.56345 28.0994 7.84506L28.1994 7.84453ZM27.9255 8.74009C28.104 8.47562 28.1994 8.16385 28.1994 7.84479L28.0994 7.84479C28.0994 8.14391 28.01 8.4362 27.8426 8.68415L27.9255 8.74009ZM28.2964 12.6955L27.9339 8.70759L27.8343 8.71664L28.1968 12.7046L28.2964 12.6955ZM28.1236 13.3083C28.255 13.1324 28.3166 12.9141 28.2964 12.6955L28.1968 12.7046C28.2147 12.8986 28.1601 13.0924 28.0435 13.2485L28.1236 13.3083ZM27.585 13.6479C27.8003 13.6052 27.9922 13.4843 28.1236 13.3083L28.0435 13.2485C27.9269 13.4046 27.7566 13.512 27.5655 13.5499L27.585 13.6479ZM27.4657 13.6697C27.5055 13.663 27.5454 13.6557 27.5849 13.648L27.5656 13.5498C27.5269 13.5574 27.488 13.5645 27.4491 13.5711L27.4657 13.6697ZM26.0097 13.6105C26.4857 13.731 26.9815 13.7512 27.4657 13.6697L27.4491 13.5711C26.9786 13.6503 26.4968 13.6307 26.0343 13.5136L26.0097 13.6105ZM24.701 12.9697C25.0881 13.2718 25.5338 13.49 26.0097 13.6105L26.0343 13.5136C25.5718 13.3965 25.1387 13.1844 24.7625 12.8909L24.701 12.9697ZM24.1364 13.9049C24.4319 13.6481 24.6538 13.3172 24.7792 12.9463L24.6844 12.9143C24.5647 13.2684 24.3529 13.5842 24.0708 13.8294L24.1364 13.9049ZM23.0975 14.4075C23.4823 14.3351 23.8408 14.1616 24.1364 13.9049L24.0708 13.8294C23.7886 14.0745 23.4463 14.2401 23.079 14.3092L23.0975 14.4075ZM22.2958 15.7227C22.735 15.3914 23.0351 14.9082 23.1374 14.3676L23.0391 14.349C22.9414 14.8652 22.6549 15.3265 22.2355 15.6429L22.2958 15.7227ZM22.3156 15.6834V15.6828H22.2157V15.6834H22.3156ZM21.9438 16.9072C22.1865 16.5452 22.3159 16.1192 22.3156 15.6833L22.2157 15.6834C22.2159 16.0994 22.0923 16.506 21.8608 16.8516L21.9438 16.9072ZM20.9532 17.7164C21.3564 17.551 21.7012 17.2693 21.9438 16.9072L21.8608 16.8516C21.6292 17.1971 21.3001 17.466 20.9152 17.6239L20.9532 17.7164ZM20.606 20.7931L20.9838 17.6762L20.8846 17.6642L20.5068 20.781L20.606 20.7931ZM21.8554 24.1087L20.6032 20.7695L20.5096 20.8046L21.7618 24.1438L21.8554 24.1087ZM21.8823 24.3363C21.8919 24.2594 21.8827 24.1813 21.8554 24.1087L21.7618 24.1438C21.7833 24.2012 21.7906 24.2631 21.7831 24.3239L21.8823 24.3363ZM21.8006 24.5504C21.8447 24.4866 21.8728 24.4132 21.8823 24.3363L21.7831 24.3239C21.7755 24.3848 21.7533 24.443 21.7184 24.4934L21.8006 24.5504ZM21.6288 24.7021C21.6975 24.6661 21.7564 24.6141 21.8006 24.5504L21.7184 24.4934C21.6834 24.5438 21.6368 24.585 21.5824 24.6135L21.6288 24.7021ZM21.4063 24.7568C21.4838 24.7568 21.5601 24.738 21.6288 24.7021L21.5824 24.6135C21.5281 24.6419 21.4676 24.6568 21.4063 24.6568L21.4063 24.7568ZM17.5391 24.7568H21.4063V24.6568H17.5391V24.7568ZM17.2868 24.6852C17.3626 24.732 17.45 24.7568 17.5391 24.7568L17.5391 24.6568C17.4685 24.6568 17.3994 24.6372 17.3394 24.6001L17.2868 24.6852ZM17.1099 24.4917C17.1498 24.5714 17.211 24.6384 17.2868 24.6852L17.3394 24.6001C17.2794 24.5631 17.2309 24.51 17.1993 24.4469L17.1099 24.4917ZM15.3912 21.0542L17.1099 24.4917L17.1993 24.4469L15.4806 21.0094L15.3912 21.0542ZM15.344 20.7819C15.3327 20.8753 15.3491 20.97 15.3912 21.0542L15.4806 21.0094C15.4473 20.9428 15.4343 20.8679 15.4432 20.794L15.344 20.7819ZM15.627 18.4469L15.344 20.7819L15.4432 20.794L15.7262 18.4589L15.627 18.4469ZM12.3828 18.9377C13.4995 18.938 14.6113 18.7913 15.6896 18.5012L15.6636 18.4046C14.5938 18.6924 13.4907 18.838 12.3829 18.8377L12.3828 18.9377ZM10.7005 18.8263C11.2582 18.9004 11.8202 18.9376 12.3828 18.9377L12.3828 18.8377C11.8246 18.8376 11.267 18.8006 10.7136 18.7271L10.7005 18.8263ZM8.92509 20.8297C9.67325 20.2937 10.2961 19.6017 10.7505 18.8014L10.6636 18.752C10.2163 19.5397 9.60325 20.2209 8.86686 20.7484L8.92509 20.8297ZM8.66352 21.0166L8.92504 20.8298L8.86691 20.7484L8.60539 20.9352L8.66352 21.0166ZM10.2337 24.0626L8.67918 20.9535L8.58974 20.9982L10.1443 24.1073L10.2337 24.0626ZM10.2839 24.2987C10.2876 24.217 10.2703 24.1357 10.2337 24.0626L10.1443 24.1073C10.1732 24.1652 10.1869 24.2295 10.184 24.2942L10.2839 24.2987ZM10.2128 24.5293C10.2557 24.4597 10.2802 24.3803 10.2839 24.2987L10.184 24.2942C10.1811 24.3588 10.1617 24.4217 10.1277 24.4767L10.2128 24.5293ZM10.0383 24.6961C10.1097 24.6563 10.1698 24.5988 10.2128 24.5293L10.1277 24.4767C10.0937 24.5318 10.0461 24.5772 9.9896 24.6087L10.0383 24.6961ZM9.80471 24.7568C9.88648 24.7568 9.96689 24.7359 10.0383 24.6961L9.9896 24.6087C9.93308 24.6403 9.86943 24.6568 9.80471 24.6568L9.80471 24.7568ZM5.50784 24.7568H9.80471V24.6568H5.50784V24.7568ZM5.2753 24.6967C5.34646 24.7361 5.42648 24.7568 5.50784 24.7568V24.6568C5.44344 24.6568 5.3801 24.6404 5.32378 24.6092L5.2753 24.6967ZM5.10106 24.5314C5.14418 24.6003 5.20414 24.6572 5.2753 24.6967L5.32378 24.6092C5.26745 24.578 5.21999 24.533 5.18586 24.4784L5.10106 24.5314ZM3.45863 21.9033L5.10106 24.5314L5.18586 24.4784L3.54344 21.8503L3.45863 21.9033ZM3.11514 20.8583C3.1437 21.2292 3.26155 21.5877 3.45863 21.9033L3.54344 21.8503C3.35491 21.5484 3.24217 21.2055 3.21484 20.8506L3.11514 20.8583ZM3.29458 19.7731C3.14814 20.1151 3.08657 20.4874 3.11514 20.8583L3.21484 20.8506C3.18752 20.4958 3.24641 20.1396 3.38651 19.8125L3.29458 19.7731ZM3.57287 19.1239L3.29459 19.7731L3.3865 19.8125L3.66478 19.1633L3.57287 19.1239ZM3.83675 17.8318C3.83675 18.2759 3.74698 18.7154 3.57283 19.124L3.66482 19.1632C3.84425 18.7423 3.93675 18.2894 3.93675 17.8318H3.83675ZM3.57283 16.5396C3.74698 16.9482 3.83675 17.3877 3.83675 17.8318H3.93675C3.93675 17.3742 3.84425 16.9214 3.66482 16.5004L3.57283 16.5396ZM3.3685 16.063L3.57287 16.5397L3.66478 16.5003L3.46041 16.0236L3.3685 16.063ZM3.36342 16.0496C3.36455 16.0528 3.36625 16.0576 3.36836 16.0627L3.46054 16.0239C3.45977 16.0221 3.45904 16.02 3.45775 16.0164L3.36342 16.0496ZM3.36137 16.0439C3.36197 16.0454 3.36256 16.0471 3.36342 16.0496L3.45775 16.0164C3.45697 16.0142 3.45593 16.0112 3.45475 16.0081L3.36137 16.0439ZM5.78839 23.8209L4.27224 21.395L4.18744 21.448L5.70359 23.8739L5.78839 23.8209ZM6.96104 23.7974H5.74599V23.8974H6.96104V23.7974ZM5.50877 21.0542L6.91632 23.8698L7.00576 23.8251L5.59821 21.0094L5.50877 21.0542ZM5.47212 20.7241C5.44464 20.835 5.45764 20.952 5.50878 21.0542L5.5982 21.0094C5.55773 20.9286 5.54744 20.8359 5.56919 20.7481L5.47212 20.7241ZM5.65868 20.4493C5.56576 20.5157 5.4996 20.6132 5.47212 20.7241L5.56919 20.7481C5.59094 20.6604 5.6433 20.5832 5.71685 20.5306L5.65868 20.4493ZM6.21897 20.0491L5.65871 20.4493L5.71683 20.5306L6.27709 20.1305L6.21897 20.0491ZM7.81795 18.2377C7.42999 18.9555 6.88306 19.5751 6.21898 20.0491L6.27708 20.1305C6.95357 19.6476 7.51071 19.0165 7.90592 18.2853L7.81795 18.2377ZM7.65627 18.3115H7.86193V18.2115H7.65627V18.3115ZM4.68663 17.3755C5.55796 17.9829 6.59407 18.3094 7.65618 18.3115L7.65637 18.2115C6.61465 18.2095 5.59842 17.8892 4.74381 17.2935L4.68663 17.3755ZM4.45469 19.5017C4.74644 18.8169 4.85339 18.0676 4.76487 17.3286L4.66558 17.3404C4.75202 18.0621 4.64758 18.7938 4.3627 19.4625L4.45469 19.5017ZM4.17637 20.151L4.45465 19.5018L4.36274 19.4624L4.08446 20.1116L4.17637 20.151ZM4.07157 20.7848C4.05487 20.5681 4.09083 20.3507 4.17638 20.151L4.08446 20.1116C3.99256 20.3261 3.95393 20.5597 3.97186 20.7924L4.07157 20.7848ZM4.27224 21.395C4.15711 21.2108 4.08826 21.0014 4.07157 20.7848L3.97186 20.7924C3.98979 21.0252 4.06375 21.2501 4.18744 21.448L4.27224 21.395ZM8.3674 20.0491L7.80715 20.4493L7.86527 20.5306L8.42552 20.1305L8.3674 20.0491ZM9.75462 18.5948C9.38743 19.1622 8.91684 19.6556 8.36735 20.0492L8.42558 20.1305C8.98526 19.7296 9.46458 19.2271 9.83858 18.6491L9.75462 18.5948ZM8.75891 18.4115C9.09785 18.5125 9.44036 18.599 9.78643 18.6709L9.80677 18.573C9.46348 18.5017 9.12371 18.4159 8.78748 18.3156L8.75891 18.4115ZM6.77658 20.8298C7.65512 20.2029 8.35814 19.3611 8.81842 18.3849L8.72797 18.3422C8.27498 19.3029 7.5831 20.1314 6.7185 20.7484L6.77658 20.8298ZM6.51508 21.0166L6.7766 20.8298L6.71848 20.7484L6.45696 20.9352L6.51508 21.0166ZM7.96654 23.8251L6.53074 20.9535L6.4413 20.9982L7.8771 23.8698L7.96654 23.8251ZM9.10948 23.7974H7.92182V23.8974H9.10948V23.7974ZM7.65721 21.0542L9.06475 23.8698L9.1542 23.8251L7.74665 21.0094L7.65721 21.0542ZM7.62056 20.7241C7.59308 20.835 7.60608 20.952 7.65722 21.0542L7.74664 21.0094C7.70616 20.9286 7.69588 20.8359 7.71763 20.7481L7.62056 20.7241ZM7.80712 20.4493C7.7142 20.5157 7.64804 20.6132 7.62056 20.7241L7.71763 20.7481C7.73938 20.6604 7.79174 20.5832 7.86529 20.5306L7.80712 20.4493ZM17.8494 23.8251L16.3072 20.7407L16.2177 20.7854L17.7599 23.8698L17.8494 23.8251ZM18.9923 23.7974H17.8046V23.8974H18.9923V23.7974ZM17.5399 21.0544L18.9476 23.8698L19.037 23.8251L17.6293 21.0097L17.5399 21.0544ZM17.5131 20.9893C17.5204 21.0116 17.5294 21.0334 17.5399 21.0544L17.6293 21.0097C17.621 20.993 17.6139 20.9758 17.6081 20.9581L17.5131 20.9893ZM17.5106 20.9797C17.5108 20.9807 17.5116 20.9849 17.5131 20.9895L17.608 20.9579C17.6086 20.9595 17.6088 20.9608 17.6084 20.9588L17.5106 20.9797ZM17.5107 20.98L17.5105 20.9797L17.6084 20.9588C17.6081 20.9578 17.6074 20.9543 17.6063 20.9505L17.5107 20.98ZM17.4963 20.9219C17.4999 20.9416 17.5047 20.9611 17.5108 20.9803L17.6062 20.9502C17.6014 20.935 17.5975 20.9196 17.5947 20.9039L17.4963 20.9219ZM17.4948 20.9085C17.4949 20.9109 17.4953 20.9159 17.4962 20.9214L17.5948 20.9044C17.5948 20.9046 17.5947 20.9043 17.5945 20.9014L17.4948 20.9085ZM17.4945 20.9047C17.4945 20.9051 17.4946 20.9056 17.4948 20.9085L17.5945 20.9014C17.5944 20.8994 17.5941 20.8952 17.5935 20.8909L17.4945 20.9047ZM17.4894 20.8526C17.4901 20.8703 17.4919 20.888 17.4946 20.9054L17.5934 20.8901C17.5912 20.8763 17.5899 20.8625 17.5893 20.8485L17.4894 20.8526ZM17.4903 20.8309C17.4903 20.8318 17.4902 20.833 17.4899 20.837C17.4897 20.8401 17.4892 20.8457 17.4894 20.8518L17.5893 20.8493C17.5893 20.8489 17.5894 20.8479 17.5896 20.8445C17.5898 20.8418 17.5903 20.8364 17.5903 20.8309H17.4903ZM17.4927 20.7819C17.4906 20.7993 17.4906 20.8168 17.4903 20.8298L17.5903 20.832C17.5906 20.8159 17.5906 20.805 17.5919 20.7939L17.4927 20.7819ZM17.7988 18.2555L17.4927 20.7819L17.5919 20.7939L17.8981 18.2675L17.7988 18.2555ZM16.5656 18.3115H17.8485V18.2115H16.5656V18.3115ZM16.3121 20.769L16.6153 18.2675L16.516 18.2555L16.2128 20.757L16.3121 20.769ZM20.7862 23.7974H19.9531V23.8974H20.7862V23.7974ZM19.6683 21.008L20.7394 23.865L20.8331 23.8299L19.7619 20.9729L19.6683 21.008ZM19.6412 20.7819C19.632 20.8583 19.6412 20.9359 19.6683 21.008L19.7619 20.973C19.7405 20.9158 19.7332 20.8544 19.7405 20.7939L19.6412 20.7819ZM19.9651 18.1099L19.6412 20.7819L19.7405 20.7939L20.0644 18.1219L19.9651 18.1099ZM19.0644 18.3115C19.3919 18.3118 19.7174 18.262 20.0298 18.1636L19.9997 18.0682C19.6971 18.1635 19.3818 18.2118 19.0645 18.2115L19.0644 18.3115ZM18.719 18.3115H19.0645V18.2115H18.719V18.3115ZM18.4607 20.7695L18.7686 18.2676L18.6694 18.2554L18.3615 20.7573L18.4607 20.7695ZM19.2553 22.3402L18.4558 20.741L18.3664 20.7858L19.1659 22.3849L19.2553 22.3402ZM19.9978 23.8251L19.2553 22.3402L19.1659 22.3849L19.9083 23.8698L19.9978 23.8251ZM22.2832 6.79631C22.301 6.70856 22.3369 6.62548 22.3886 6.55239L22.307 6.49463C22.2472 6.57907 22.2058 6.67505 22.1852 6.77642L22.2832 6.79631ZM22.1399 7.05146C22.2131 6.98343 22.2631 6.89425 22.2832 6.79639L22.1852 6.77634C22.1693 6.85381 22.1297 6.92439 22.0718 6.97824L22.1399 7.05146ZM23.8352 7.70156L22.1256 6.96889L22.0862 7.06081L23.7958 7.79348L23.8352 7.70156ZM25.0751 7.12978C24.5963 7.19079 24.1465 7.39268 23.7827 7.70983L23.8484 7.78521C24.1973 7.48109 24.6286 7.28748 25.0877 7.22897L25.0751 7.12978ZM26.4717 7.36716C26.0399 7.15139 25.5538 7.06876 25.0751 7.12978L25.0877 7.22897C25.5468 7.17047 26.013 7.2497 26.4269 7.45661L26.4717 7.36716ZM27.3114 7.78724L26.4717 7.36717L26.4269 7.4566L27.2667 7.87667L27.3114 7.78724ZM27.1076 7.45593C27.19 7.56471 27.236 7.69668 27.2391 7.83309L27.3391 7.83082C27.3355 7.6734 27.2824 7.52111 27.1874 7.39557L27.1076 7.45593ZM26.7803 7.22707C26.9107 7.26706 27.0253 7.34714 27.1076 7.45593L27.1874 7.39557C27.0923 7.27003 26.9601 7.17762 26.8096 7.13146L26.7803 7.22707ZM26.5617 7.08828C26.6206 7.15377 26.6962 7.20181 26.7805 7.22715L26.8093 7.13138C26.7426 7.11132 26.6827 7.0733 26.6361 7.02146L26.5617 7.08828ZM26.4471 6.85587C26.4633 6.94239 26.5029 7.02279 26.5617 7.08828L26.6361 7.02146C26.5896 6.96963 26.5582 6.90598 26.5454 6.8375L26.4471 6.85587ZM26.338 6.59868C26.3928 6.67532 26.43 6.76308 26.4471 6.85573L26.5454 6.83764C26.5257 6.73056 26.4827 6.62913 26.4194 6.54054L26.338 6.59868ZM26.1302 6.41226C26.2123 6.4584 26.2833 6.52204 26.338 6.59868L26.4194 6.54054C26.3561 6.45196 26.2741 6.3784 26.1791 6.32508L26.1302 6.41226ZM25.8628 6.33175C25.9568 6.33864 26.048 6.36613 26.1302 6.41226L26.1791 6.32508C26.0842 6.27176 25.9787 6.23999 25.8701 6.23202L25.8628 6.33175ZM25.5866 6.37239C25.6746 6.33873 25.7689 6.32486 25.8628 6.33175L25.8701 6.23202C25.7615 6.22405 25.6525 6.24009 25.5508 6.27899L25.5866 6.37239ZM25.2342 6.36725C25.3467 6.41357 25.4726 6.41544 25.5864 6.37246L25.551 6.27891C25.461 6.31293 25.3613 6.31145 25.2723 6.27478L25.2342 6.36725ZM25.0695 6.30637C25.1316 6.32725 25.1854 6.34718 25.2342 6.36725L25.2723 6.27477C25.2211 6.25371 25.1651 6.23303 25.1014 6.21159L25.0695 6.30637ZM24.8481 6.15167C24.9055 6.2234 24.9824 6.27709 25.0695 6.30637L25.1014 6.21158C25.0324 6.18841 24.9716 6.1459 24.9261 6.08913L24.8481 6.15167ZM24.6392 5.98039C24.7201 6.02206 24.7913 6.0804 24.848 6.15156L24.9262 6.08925C24.8607 6.00703 24.7785 5.93963 24.685 5.89149L24.6392 5.98039ZM24.3787 5.90984C24.4695 5.91468 24.5584 5.93873 24.6392 5.98039L24.685 5.89149C24.5916 5.84336 24.489 5.81558 24.384 5.80998L24.3787 5.90984ZM24.1121 5.95231C24.197 5.91947 24.2878 5.905 24.3787 5.90984L24.384 5.80998C24.279 5.80439 24.1741 5.82111 24.076 5.85904L24.1121 5.95231ZM23.8864 6.10032C23.9503 6.03559 24.0273 5.98514 24.1121 5.95231L24.076 5.85904C23.978 5.89698 23.8891 5.95526 23.8152 6.03005L23.8864 6.10032ZM23.6493 6.23115C23.7392 6.21123 23.8215 6.16583 23.8863 6.10037L23.8153 6.03C23.764 6.08181 23.6988 6.11775 23.6276 6.13352L23.6493 6.23115ZM23.3874 6.30298C23.4734 6.27464 23.5608 6.25067 23.6492 6.23116L23.6277 6.13351C23.536 6.15374 23.4453 6.1786 23.3561 6.208L23.3874 6.30298ZM23.0997 6.30743C23.1938 6.33549 23.2943 6.33392 23.3875 6.30294L23.356 6.20804C23.2822 6.23255 23.2027 6.2338 23.1282 6.2116L23.0997 6.30743ZM22.8348 6.2852C22.9236 6.27412 23.0138 6.28168 23.0996 6.30741L23.1283 6.21162C23.0292 6.1819 22.9251 6.17317 22.8224 6.18597L22.8348 6.2852ZM22.5835 6.37177C22.6604 6.32577 22.7459 6.29628 22.8348 6.2852L22.8224 6.18597C22.7198 6.19877 22.6209 6.23283 22.5322 6.28598L22.5835 6.37177ZM22.3886 6.55239C22.4403 6.47929 22.5067 6.41777 22.5835 6.37177L22.5322 6.28598C22.4434 6.33912 22.3667 6.41018 22.307 6.49463L22.3886 6.55239ZM21.4878 7.87341L21.5322 7.69546L21.4352 7.67122L21.3907 7.84916L21.4878 7.87341ZM21.4395 7.81128H21.4393V7.91128H21.4395V7.81128ZM21.5635 8.59202C21.455 8.36866 21.4283 8.11433 21.488 7.8733L21.3909 7.84926C21.3256 8.11301 21.3549 8.39131 21.4736 8.63571L21.5635 8.59202ZM22.0818 9.09569C21.8554 8.99361 21.672 8.81538 21.5635 8.59202L21.4736 8.63571C21.5923 8.88012 21.793 9.07515 22.0407 9.18685L22.0818 9.09569ZM22.5365 9.18795C22.3799 9.19007 22.2247 9.15854 22.0814 9.0955L22.0411 9.18704C22.1976 9.25584 22.367 9.29025 22.5379 9.28794L22.5365 9.18795ZM23.4323 9.18795H22.5372V9.28795H23.4323V9.18795ZM23.7607 9.31801C23.6718 9.23447 23.5543 9.18795 23.4323 9.18795L23.4323 9.28795C23.5289 9.28795 23.6218 9.32477 23.6922 9.3909L23.7607 9.31801ZM23.911 9.63766C23.9034 9.51587 23.8497 9.40156 23.7607 9.31801L23.6922 9.3909C23.7626 9.45703 23.8052 9.5475 23.8112 9.64391L23.911 9.63766ZM24.0272 10.1257C23.9608 9.97087 23.9215 9.8058 23.911 9.63767L23.8112 9.64389C23.8224 9.82346 23.8644 9.99976 23.9353 10.1651L24.0272 10.1257ZM24.4597 11.1348L24.0272 10.1257L23.9353 10.1651L24.3678 11.1742L24.4597 11.1348ZM27.3065 12.7236C26.1174 12.923 24.9465 12.2708 24.4597 11.1348L24.3678 11.1742C24.8722 12.3512 26.087 13.0295 27.3231 12.8222L27.3065 12.7236ZM27.3792 12.7105C27.3549 12.7152 27.3307 12.7196 27.3065 12.7236L27.3231 12.8222C27.348 12.8181 27.3731 12.8135 27.3981 12.8087L27.3792 12.7105ZM26.9658 8.66062L27.3389 12.7641L27.4384 12.7551L27.0654 8.65157L26.9658 8.66062ZM26.0426 8.22542L26.9933 8.70082L27.038 8.61138L26.0873 8.13598L26.0426 8.22542ZM25.0988 8.09735C25.4189 8.0345 25.7508 8.07954 26.0426 8.22542L26.0873 8.13598C25.7758 7.98021 25.4214 7.93211 25.0796 7.99922L25.0988 8.09735ZM24.2736 8.57276C24.4885 8.32739 24.7788 8.16019 25.0988 8.09735L25.0796 7.99922C24.7378 8.06633 24.4279 8.24486 24.1984 8.50687L24.2736 8.57276ZM24.0188 8.72461C24.1176 8.70218 24.2068 8.64901 24.2736 8.57274L24.1984 8.50688C24.1455 8.56725 24.0749 8.60933 23.9967 8.62708L24.0188 8.72461ZM23.7234 8.69758C23.8165 8.73757 23.92 8.74703 24.0188 8.72461L23.9967 8.62708C23.9184 8.64484 23.8366 8.63735 23.7629 8.6057L23.7234 8.69758ZM21.464 7.7293L23.7234 8.6976L23.7628 8.60568L21.5034 7.63738L21.464 7.7293ZM3.59293 7.3528L5.49548 7.85623L5.52106 7.75956L3.61851 7.25612L3.59293 7.3528ZM4.76851 8.38493C4.29113 8.14059 3.90057 7.75518 3.64992 7.28109L3.56151 7.32783C3.82177 7.82008 4.22729 8.22025 4.72295 8.47395L4.76851 8.38493ZM5.44524 7.96865C5.16969 8.04864 4.91773 8.19441 4.71105 8.39342L4.78041 8.46546C4.97541 8.27769 5.21314 8.14015 5.47311 8.06469L5.44524 7.96865ZM5.55136 7.81607C5.50477 7.87076 5.45976 7.9279 5.41805 7.98823L5.5003 8.0451C5.53969 7.98813 5.58255 7.93367 5.62748 7.88093L5.55136 7.81607ZM5.49548 7.85623C5.51839 7.86229 5.53981 7.87301 5.55841 7.88772L5.62044 7.80928C5.59108 7.78606 5.55725 7.76913 5.52106 7.75956L5.49548 7.85623ZM3.43695 13.5884C3.41872 13.428 3.40952 13.2666 3.4094 13.1052L3.3094 13.1053C3.30952 13.2705 3.31893 13.4355 3.33759 13.5997L3.43695 13.5884ZM3.43156 13.7323C3.4406 13.6849 3.44242 13.6363 3.43695 13.5884L3.3376 13.5997C3.34192 13.6376 3.34048 13.676 3.33332 13.7136L3.43156 13.7323ZM3.4094 13.9647C3.40955 13.8867 3.41697 13.8089 3.43156 13.7323L3.33332 13.7136C3.31757 13.7963 3.30956 13.8803 3.3094 13.9645L3.4094 13.9647ZM3.73637 14.803C3.52586 14.5746 3.40912 14.2753 3.4094 13.9647L3.3094 13.9646C3.3091 14.3003 3.43529 14.6239 3.66284 14.8708L3.73637 14.803ZM3.8168 14.9222C3.79614 14.8787 3.76903 14.8385 3.7364 14.803L3.66281 14.8707C3.68864 14.8988 3.7101 14.9306 3.72646 14.9651L3.8168 14.9222ZM5.38643 16.6904C4.70715 16.2605 4.16306 15.6476 3.81675 14.9221L3.72651 14.9652C4.08092 15.7077 4.63776 16.335 5.33295 16.7749L5.38643 16.6904ZM7.65643 17.3521C6.85255 17.3497 6.0657 17.1203 5.38643 16.6904L5.33295 16.7749C6.02814 17.2149 6.83342 17.4496 7.65612 17.4521L7.65643 17.3521ZM8.51565 17.3521H7.65627V17.4521H8.51565V17.3521ZM8.668 17.3769C8.61889 17.3605 8.56744 17.3521 8.51565 17.3521L8.51564 17.4521C8.55665 17.4521 8.59738 17.4588 8.63626 17.4718L8.668 17.3769ZM15.9405 17.4277C13.5717 18.1789 11.026 18.1611 8.66791 17.3769L8.63635 17.4718C11.0145 18.2626 13.5818 18.2806 15.9707 17.523L15.9405 17.4277ZM16.2475 17.3522C16.1391 17.3577 16.0328 17.3842 15.9345 17.43L15.9768 17.5206C16.0634 17.4802 16.1571 17.4569 16.2526 17.4521L16.2475 17.3522ZM19.0645 17.3521H16.25V17.4521H19.0645V17.3521ZM20.3843 16.9239C20.0009 17.2029 19.5388 17.3529 19.0646 17.3521L19.0644 17.4521C19.5598 17.4529 20.0426 17.2963 20.4432 17.0047L20.3843 16.9239ZM20.5128 16.8578C20.4669 16.8732 20.4236 16.8954 20.3844 16.9238L20.4431 17.0048C20.4741 16.9824 20.5083 16.9648 20.5446 16.9527L20.5128 16.8578ZM21.1617 16.3508C21.0096 16.5889 20.7806 16.7679 20.5128 16.8578L20.5446 16.9526C20.8341 16.8554 21.0816 16.662 21.246 16.4046L21.1617 16.3508ZM21.3488 15.5487C21.3798 15.8296 21.3138 16.1126 21.1617 16.3508L21.246 16.4046C21.4104 16.1472 21.4817 15.8413 21.4482 15.5377L21.3488 15.5487ZM21.3749 15.3328C21.3498 15.4018 21.3409 15.4756 21.3488 15.5486L21.4482 15.5379C21.4419 15.4801 21.449 15.4216 21.4689 15.367L21.3749 15.3328ZM21.3924 15.2848L21.3749 15.3328L21.4689 15.367L21.4864 15.3189L21.3924 15.2848ZM21.6009 15.0347C21.5044 15.0912 21.4306 15.1797 21.3924 15.2848L21.4863 15.319C21.5166 15.2358 21.575 15.1657 21.6514 15.121L21.6009 15.0347ZM22.0502 14.5812C21.9424 14.7689 21.7875 14.9252 21.6009 15.0348L21.6515 15.121C21.8531 15.0026 22.0205 14.8337 22.1369 14.631L22.0502 14.5812ZM22.2157 13.9645C22.215 14.1809 22.158 14.3935 22.0502 14.5812L22.1369 14.631C22.2534 14.4282 22.315 14.1986 22.3156 13.9648L22.2157 13.9645ZM22.3561 13.6254C22.2662 13.7154 22.2157 13.8374 22.2157 13.9646H22.3156C22.3156 13.8639 22.3557 13.7673 22.4269 13.6961L22.3561 13.6254ZM22.6953 13.4849C22.5681 13.4849 22.4461 13.5355 22.3561 13.6254L22.4269 13.6961C22.4981 13.6249 22.5946 13.5849 22.6953 13.5849V13.4849ZM23.5711 13.1216C23.3388 13.3539 23.0238 13.4846 22.6953 13.4849L22.6954 13.5849C23.0504 13.5845 23.3907 13.4433 23.6418 13.1923L23.5711 13.1216ZM23.9344 12.2458C23.934 12.5743 23.8034 12.8893 23.5711 13.1216L23.6418 13.1923C23.8928 12.9413 24.034 12.6009 24.0344 12.2459L23.9344 12.2458ZM23.945 12.1458C23.938 12.1786 23.9344 12.2122 23.9344 12.2458L24.0344 12.2459C24.0344 12.2193 24.0373 12.1927 24.0428 12.1666L23.945 12.1458ZM23.578 11.5126C23.6794 11.7491 23.805 11.9744 23.953 12.1849L24.0348 12.1274C23.8908 11.9226 23.7685 11.7034 23.6699 11.4732L23.578 11.5126ZM23.1455 10.5035L23.578 11.5126L23.6699 11.4732L23.2374 10.4641L23.1455 10.5035ZM23.0149 10.109C23.0471 10.244 23.0908 10.376 23.1455 10.5035L23.2374 10.4641C23.1849 10.3418 23.1431 10.2153 23.1122 10.0858L23.0149 10.109ZM22.5372 10.1474H23.0636V10.0474H22.5372V10.1474ZM21.6857 9.97015C21.9537 10.0896 22.2442 10.1501 22.5377 10.1474L22.5368 10.0474C22.2577 10.05 21.9813 9.99247 21.7264 9.87881L21.6857 9.97015ZM20.6994 9.00996C20.9056 9.43552 21.2545 9.77527 21.6854 9.97004L21.7266 9.87892C21.3171 9.69378 20.9854 9.37085 20.7894 8.96636L20.6994 9.00996ZM20.5571 7.64113C20.4429 8.10001 20.4933 8.5844 20.6994 9.00996L20.7894 8.96636C20.5935 8.56186 20.5456 8.10144 20.6541 7.66528L20.5571 7.64113ZM20.6444 7.29196L20.5571 7.64108L20.6541 7.66533L20.7414 7.31621L20.6444 7.29196ZM20.2536 7.92393C20.3463 7.68791 20.5093 7.48607 20.7206 7.34573L20.6652 7.26244C20.4369 7.41412 20.2608 7.63227 20.1605 7.88736L20.2536 7.92393ZM20.1444 8.08924C20.1919 8.04236 20.2291 7.98608 20.2536 7.924L20.1606 7.8873C20.1412 7.93643 20.1117 7.98097 20.0742 8.01807L20.1444 8.08924ZM19.9777 8.19624C20.0401 8.17257 20.0969 8.13612 20.1444 8.08924L20.0742 8.01807C20.0366 8.05517 19.9916 8.08401 19.9423 8.10275L19.9777 8.19624ZM19.9509 8.20679L19.9783 8.19605L19.9417 8.10295L19.9144 8.11369L19.9509 8.20679ZM19.8996 8.22634C19.9167 8.21992 19.9337 8.21341 19.9506 8.20689L19.9146 8.11358C19.8978 8.12007 19.8812 8.12644 19.8645 8.1327L19.8996 8.22634ZM19.6847 8.25402C19.7574 8.26129 19.8309 8.25184 19.8994 8.22639L19.8646 8.13265C19.8104 8.15279 19.7522 8.16027 19.6946 8.15451L19.6847 8.25402ZM19.4797 8.18442C19.5418 8.22294 19.6119 8.24674 19.6847 8.25402L19.6946 8.15451C19.6371 8.14876 19.5816 8.12991 19.5324 8.09943L19.4797 8.18442ZM18.5464 8.03159C18.8655 7.95709 19.2011 8.01205 19.4797 8.18444L19.5323 8.0994C19.2312 7.91309 18.8685 7.85369 18.5236 7.93421L18.5464 8.03159ZM17.7772 8.58197C17.9507 8.304 18.2273 8.1061 18.5464 8.03159L18.5236 7.93421C18.1788 8.01473 17.8799 8.22861 17.6924 8.52902L17.7772 8.58197ZM17.6243 8.7346C17.6862 8.69602 17.7385 8.64384 17.7772 8.58202L17.6924 8.52897C17.6618 8.5779 17.6204 8.6192 17.5714 8.64974L17.6243 8.7346ZM17.4201 8.80466C17.4926 8.79714 17.5625 8.77317 17.6243 8.7346L17.5714 8.64974C17.5225 8.68027 17.4672 8.69924 17.4097 8.70519L17.4201 8.80466ZM17.3573 8.81059C17.3781 8.80875 17.3991 8.80679 17.42 8.80467L17.4099 8.70518C17.3895 8.70725 17.369 8.70916 17.3485 8.71098L17.3573 8.81059ZM17.3282 8.8133L17.3576 8.81056L17.3483 8.711L17.3189 8.71374L17.3282 8.8133ZM17.0696 8.76526C17.1497 8.80508 17.2393 8.82172 17.3283 8.8133L17.3189 8.71374C17.2484 8.72041 17.1775 8.70724 17.1141 8.67572L17.0696 8.76526ZM16.8751 8.58796C16.9221 8.66403 16.9895 8.72545 17.0696 8.76526L17.1141 8.67572C17.0507 8.6442 16.9974 8.5956 16.9602 8.53538L16.8751 8.58796ZM16.4165 8.152C16.6045 8.25517 16.7625 8.40537 16.8751 8.58792L16.9602 8.53543C16.8385 8.33815 16.6678 8.17582 16.4646 8.06433L16.4165 8.152ZM15.8024 7.99937C16.0169 7.99625 16.2284 8.04884 16.4165 8.152L16.4646 8.06433C16.2614 7.95284 16.0327 7.896 15.801 7.89938L15.8024 7.99937ZM15.1931 8.16981C15.378 8.06122 15.588 8.00249 15.8024 7.99937L15.801 7.89938C15.5692 7.90275 15.3423 7.96622 15.1424 8.08358L15.1931 8.16981ZM14.7473 8.6189C14.8545 8.43315 15.0081 8.27841 15.1931 8.16981L15.1424 8.08358C14.9426 8.20094 14.7766 8.36817 14.6607 8.56891L14.7473 8.6189ZM14.5717 8.79422C14.6446 8.7522 14.7052 8.69175 14.7473 8.61894L14.6607 8.56886C14.6274 8.62649 14.5795 8.67433 14.5218 8.70759L14.5717 8.79422ZM14.3321 8.85837C14.4162 8.85837 14.4989 8.83624 14.5717 8.79422L14.5218 8.70759C14.4641 8.74086 14.3987 8.75837 14.3321 8.75837L14.3321 8.85837ZM14.3007 8.85837H14.3321V8.75837H14.3007V8.85837ZM14.0611 8.79421C14.134 8.83623 14.2166 8.85836 14.3007 8.85837L14.3008 8.75837C14.2342 8.75836 14.1688 8.74084 14.1111 8.70758L14.0611 8.79421ZM13.8856 8.61894C13.9278 8.69174 13.9883 8.75218 14.0611 8.79421L14.1111 8.70758C14.0534 8.67432 14.0055 8.62648 13.9722 8.56886L13.8856 8.61894ZM13.4322 8.16511C13.6205 8.27393 13.7769 8.43043 13.8856 8.61888L13.9722 8.56892C13.8548 8.36526 13.6858 8.19612 13.4822 8.07852L13.4322 8.16511ZM12.8126 7.999C13.0301 7.999 13.2438 8.05629 13.4322 8.16511L13.4822 8.07852C13.2786 7.96092 13.0477 7.899 12.8126 7.899V7.999ZM12.1929 8.16511C12.3813 8.05629 12.595 7.999 12.8126 7.999V7.899C12.5774 7.899 12.3465 7.96092 12.1429 8.07852L12.1929 8.16511ZM11.7395 8.61888C11.8482 8.43043 12.0046 8.27393 12.1929 8.16511L12.1429 8.07852C11.9393 8.19612 11.7703 8.36526 11.6529 8.56892L11.7395 8.61888ZM11.5639 8.79422C11.6368 8.7522 11.6973 8.69175 11.7395 8.61894L11.6529 8.56886C11.6196 8.62649 11.5717 8.67433 11.514 8.70759L11.5639 8.79422ZM11.3243 8.85837C11.4084 8.85837 11.4911 8.83624 11.5639 8.79422L11.514 8.70759C11.4563 8.74086 11.3909 8.75837 11.3243 8.75837L11.3243 8.85837ZM11.2929 8.85837H11.3243V8.75837H11.2929V8.85837ZM11.0533 8.79421C11.1262 8.83623 11.2088 8.85836 11.2929 8.85837L11.2929 8.75837C11.2264 8.75836 11.161 8.74084 11.1033 8.70758L11.0533 8.79421ZM10.8778 8.61894C10.9199 8.69174 10.9805 8.75218 11.0533 8.79421L11.1033 8.70758C11.0456 8.67432 10.9977 8.62648 10.9644 8.56886L10.8778 8.61894ZM10.477 8.19722C10.6422 8.30395 10.7796 8.44849 10.8778 8.61887L10.9644 8.56893C10.8583 8.38479 10.7098 8.22858 10.5313 8.11323L10.477 8.19722ZM9.92787 8.00512C10.1236 8.02464 10.3118 8.09049 10.477 8.19722L10.5313 8.11323C10.3527 7.99788 10.1493 7.92671 9.9378 7.90561L9.92787 8.00512ZM9.35164 8.08496C9.53465 8.01297 9.73218 7.9856 9.92787 8.00512L9.9378 7.90561C9.7263 7.88451 9.51282 7.91409 9.31503 7.9919L9.35164 8.08496ZM8.87545 8.41913C9.00539 8.27151 9.16862 8.15696 9.35164 8.08496L9.31503 7.9919C9.11724 8.06971 8.94082 8.19351 8.80038 8.35306L8.87545 8.41913ZM8.71301 8.53909C8.77504 8.51109 8.8304 8.47021 8.87541 8.41916L8.80041 8.35302C8.76478 8.39342 8.72096 8.42578 8.67187 8.44794L8.71301 8.53909ZM8.51565 8.58157C8.5837 8.58157 8.65098 8.56709 8.71301 8.53909L8.67187 8.44794C8.62277 8.47011 8.56952 8.48157 8.51565 8.48157V8.58157ZM8.31829 8.53909C8.38032 8.56709 8.44759 8.58157 8.51565 8.58157V8.48157C8.46178 8.48157 8.40853 8.47011 8.35943 8.44794L8.31829 8.53909ZM8.15588 8.41916C8.2009 8.47021 8.25626 8.51109 8.31829 8.53909L8.35943 8.44794C8.31033 8.42578 8.26651 8.39342 8.23088 8.35302L8.15588 8.41916ZM7.67638 8.0838C7.8607 8.15567 8.02511 8.27066 8.15586 8.41914L8.23091 8.35305C8.0896 8.19259 7.91191 8.06831 7.71272 7.99063L7.67638 8.0838ZM7.09647 8.00601C7.29321 7.98525 7.49207 8.01192 7.67638 8.0838L7.71272 7.99063C7.51352 7.91295 7.29861 7.88412 7.08598 7.90656L7.09647 8.00601ZM6.54557 8.20313C6.71082 8.09436 6.89973 8.02677 7.09647 8.00601L7.08598 7.90656C6.87335 7.929 6.66919 8.00205 6.49059 8.1196L6.54557 8.20313ZM6.14666 8.63117C6.24353 8.45867 6.38032 8.3119 6.54557 8.20313L6.49059 8.1196C6.312 8.23715 6.16416 8.39578 6.05947 8.5822L6.14666 8.63117ZM6.0034 8.78906C6.06237 8.74785 6.11132 8.69391 6.14663 8.63122L6.05949 8.58215C6.03155 8.63177 5.9928 8.67447 5.94612 8.70708L6.0034 8.78906ZM5.80593 8.86926C5.87693 8.85767 5.94442 8.83026 6.0034 8.78906L5.94612 8.70708C5.89944 8.7397 5.84602 8.7614 5.78982 8.77057L5.80593 8.86926ZM5.45359 9.01895C5.55741 8.9416 5.67825 8.89027 5.80599 8.86925L5.78976 8.77058C5.64624 8.79419 5.51048 8.85186 5.39385 8.93875L5.45359 9.01895ZM5.2093 9.31377C5.266 9.19739 5.34977 9.09629 5.45359 9.01895L5.39385 8.93875C5.27721 9.02564 5.1831 9.13922 5.11941 9.26998L5.2093 9.31377ZM5.06689 9.48663C5.12733 9.44106 5.17613 9.38183 5.2093 9.31378L5.11941 9.26997C5.09316 9.32383 5.05453 9.37071 5.00669 9.40678L5.06689 9.48663ZM4.86153 9.57599C4.93607 9.56283 5.00644 9.5322 5.06689 9.48663L5.00669 9.40678C4.95884 9.44286 4.90314 9.46709 4.84414 9.47751L4.86153 9.57599ZM4.12785 9.99932C4.31489 9.77621 4.5747 9.62629 4.86147 9.576L4.8442 9.4775C4.53422 9.53186 4.25339 9.69391 4.05121 9.93508L4.12785 9.99932ZM3.83909 10.7956C3.83854 10.5044 3.9408 10.2224 4.12785 9.99932L4.05121 9.93508C3.84904 10.1763 3.7385 10.4811 3.73909 10.7958L3.83909 10.7956ZM3.8567 11.0027C3.84511 10.9342 3.83922 10.865 3.83909 10.7956L3.73909 10.7958C3.73923 10.8707 3.74559 10.9455 3.7581 11.0193L3.8567 11.0027ZM3.81702 11.2878C3.85911 11.1991 3.87297 11.0996 3.85671 11.0027L3.75809 11.0193C3.77096 11.0959 3.75999 11.1747 3.72667 11.2449L3.81702 11.2878ZM3.4094 13.1051C3.4078 12.4765 3.54708 11.8555 3.817 11.2878L3.72669 11.2449C3.45035 11.8261 3.30776 12.4618 3.3094 13.1054L3.4094 13.1051ZM25.7031 10.416C26.1164 10.416 26.4514 10.081 26.4514 9.66774H26.3514C26.3514 10.0258 26.0611 10.316 25.7031 10.316V10.416ZM24.9549 9.66774C24.9549 10.081 25.2899 10.416 25.7031 10.416V10.316C25.3451 10.316 25.0549 10.0258 25.0549 9.66774H24.9549ZM25.7031 8.9195C25.2899 8.9195 24.9549 9.2545 24.9549 9.66774H25.0549C25.0549 9.30973 25.3451 9.0195 25.7031 9.0195V8.9195ZM26.4514 9.66774C26.4514 9.2545 26.1164 8.9195 25.7031 8.9195V9.0195C26.0611 9.0195 26.3514 9.30973 26.3514 9.66774H26.4514Z" fill="black"/>
</svg>
