<svg width="30" height="30" viewBox="0 0 30 30" fill="none" xmlns="http://www.w3.org/2000/svg">
<path d="M2.5 27.5L27.5 20M2.5 20L27.5 27.5" stroke="black" stroke-width="1.2" stroke-linecap="round"/>
<path d="M15 19.4C19.5349 19.4 23.15 15.9422 23.15 11.75C23.15 5.44393 18.9707 2.10429 16.233 0.907461C16.3175 2.24781 16.1432 3.97162 15.5966 5.43888C15.2597 6.34311 14.7636 7.19844 14.0515 7.79826C13.3214 8.41322 12.3918 8.73427 11.275 8.59203C11.1779 8.57966 11.0747 8.54566 10.9793 8.48258M15 19.4L10.9793 8.48258M15 19.4C10.4651 19.4 6.85 15.9422 6.85 11.75C6.85 9.38303 7.99679 7.25653 9.81498 5.84777M15 19.4L9.81498 5.84777M10.9793 8.48258C10.5269 8.18367 10.2351 7.69562 10.0529 7.11465C9.93836 6.74961 9.86014 6.32654 9.81498 5.84777M10.9793 8.48258L9.81498 5.84777" stroke="black" stroke-width="1.2"/>
</svg>
