<svg width="30" height="30" viewBox="0 0 30 30" fill="none" xmlns="http://www.w3.org/2000/svg">
<path d="M15 3.75L15.4578 3.36215L15.0143 2.83873L14.5546 3.34794L15 3.75ZM8.22917 11.25L7.78381 10.8479L6.87917 11.85H8.22917V11.25ZM12.5 11.25L12.9609 11.6341C13.11 11.4553 13.1421 11.2063 13.0434 10.9955C12.9446 10.7847 12.7328 10.65 12.5 10.65V11.25ZM6.25 18.75L5.78907 18.3659L4.96897 19.35H6.25V18.75ZM11.25 18.75L11.7109 19.1341C11.86 18.9553 11.8921 18.7063 11.7934 18.4955C11.6946 18.2847 11.4828 18.15 11.25 18.15V18.75ZM5 26.25L4.53907 25.8659L3.71897 26.85H5V26.25ZM21.3542 11.25V11.85H22.6489L21.812 10.8621L21.3542 11.25ZM17.5 11.25V10.65C17.2672 10.65 17.0554 10.7847 16.9566 10.9955C16.8579 11.2063 16.89 11.4553 17.0391 11.6341L17.5 11.25ZM23.75 18.75V19.35H25.031L24.2109 18.3659L23.75 18.75ZM18.75 18.75V18.15C18.5172 18.15 18.3054 18.2847 18.2066 18.4955C18.1079 18.7063 18.14 18.9553 18.2891 19.1341L18.75 18.75ZM25 26.25V26.85H26.281L25.4609 25.8659L25 26.25ZM14.5546 3.34794L7.78381 10.8479L8.67453 11.6521L15.4454 4.15206L14.5546 3.34794ZM8.22917 11.85H12.5V10.65H8.22917V11.85ZM12.0391 10.8659L5.78907 18.3659L6.71093 19.1341L12.9609 11.6341L12.0391 10.8659ZM6.25 19.35H11.25V18.15H6.25V19.35ZM10.7891 18.3659L4.53907 25.8659L5.46093 26.6341L11.7109 19.1341L10.7891 18.3659ZM14.5422 4.13785L20.8964 11.6379L21.812 10.8621L15.4578 3.36215L14.5422 4.13785ZM21.3542 10.65H17.5V11.85H21.3542V10.65ZM17.0391 11.6341L23.2891 19.1341L24.2109 18.3659L17.9609 10.8659L17.0391 11.6341ZM23.75 18.15H18.75V19.35H23.75V18.15ZM18.2891 19.1341L24.5391 26.6341L25.4609 25.8659L19.2109 18.3659L18.2891 19.1341ZM5 26.85H25V25.65H5V26.85Z" fill="black"/>
</svg>
