<svg width="30" height="30" viewBox="0 0 30 30" fill="none" xmlns="http://www.w3.org/2000/svg">
<g clip-path="url(#clip0)">
<path d="M7.05894 7.05885L10.5945 3.52332L12.3591 5.28795M7.05894 7.05885L3.52341 10.5944L5.28803 12.359M7.05894 7.05885L4.39348 4.39339M22.9412 22.9411L26.4767 19.4056L24.7121 17.641M22.9412 22.9411L19.4057 26.4767L17.6411 24.712M22.9412 22.9411L25.6067 25.6066M12.3591 5.28795L14.1269 3.52019L15.8733 5.26659L10.57 10.5699L5.26669 15.8732L3.52027 14.1268L5.28803 12.359M12.3591 5.28795L8.82357 8.82348L5.28803 12.359M24.7121 17.641L21.1766 21.1765L17.6411 24.712M24.7121 17.641L26.4799 15.8732L24.7122 14.1054L19.4088 19.4087M17.6411 24.712L15.8733 26.4798L14.1055 24.712L19.4088 19.4087M19.4088 19.4087L10.5945 10.5944" stroke="black" stroke-width="1.2"/>
</g>
<defs>
<clipPath id="clip0">
<rect width="30" height="30" fill="white"/>
</clipPath>
</defs>
</svg>
