<svg width="30" height="30" viewBox="0 0 30 30" fill="none" xmlns="http://www.w3.org/2000/svg">
<path d="M22.3964 11.25L22.9881 11.3493L23.1054 10.65H22.3964V11.25ZM7.60376 11.25V10.65H6.89471L7.01203 11.3493L7.60376 11.25ZM16.7474 17.2954L16.6081 16.7118L16.7474 17.2954ZM19.6609 21.82L20.0426 22.2829L19.6609 21.82ZM13.2527 17.2954L13.392 16.7118L13.2527 17.2954ZM6.99519 25.9257C6.81609 26.2045 6.8969 26.5757 7.1757 26.7548C7.45449 26.9339 7.8257 26.8531 8.00481 26.5743L6.99519 25.9257ZM22.3964 10.65H7.60376V11.85H22.3964V10.65ZM23.1501 23.75C23.1501 24.7993 22.2994 25.65 21.2501 25.65V26.85C22.9621 26.85 24.3501 25.4621 24.3501 23.75H23.1501ZM21.2501 25.65C20.2007 25.65 19.3501 24.7993 19.3501 23.75H18.1501C18.1501 25.4621 19.538 26.85 21.2501 26.85V25.65ZM21.2501 21.85C22.2994 21.85 23.1501 22.7007 23.1501 23.75H24.3501C24.3501 22.0379 22.9621 20.65 21.2501 20.65V21.85ZM21.8046 11.1507C21.346 13.8844 19.2778 16.0747 16.6081 16.7118L16.8867 17.879C20.022 17.1308 22.4492 14.5614 22.9881 11.3493L21.8046 11.1507ZM16.6081 16.7118C16.0928 16.8347 15.5544 16.9 15.0001 16.9V18.1C15.6489 18.1 16.2807 18.0236 16.8867 17.879L16.6081 16.7118ZM19.3501 23.75C19.3501 23.1596 19.6187 22.6324 20.0426 22.2829L19.2793 21.357C18.5907 21.9246 18.1501 22.7861 18.1501 23.75H19.3501ZM20.0426 22.2829C20.3711 22.0122 20.7908 21.85 21.2501 21.85V20.65C20.5022 20.65 19.8148 20.9156 19.2793 21.357L20.0426 22.2829ZM16.243 17.6202L19.1565 22.1448L20.1654 21.4951L17.2519 16.9705L16.243 17.6202ZM15.0001 16.9C14.4457 16.9 13.9073 16.8347 13.392 16.7118L13.1134 17.879C13.7194 18.0236 14.3512 18.1 15.0001 18.1V16.9ZM13.392 16.7118C10.7224 16.0747 8.65411 13.8844 8.19549 11.1507L7.01203 11.3493C7.55092 14.5614 9.97809 17.1308 13.1134 17.879L13.392 16.7118ZM12.7479 16.9711L8.60127 23.4257L9.61088 24.0743L13.7575 17.6197L12.7479 16.9711ZM8.60127 23.4257L6.99519 25.9257L8.00481 26.5743L9.61088 24.0743L8.60127 23.4257ZM9.10607 24.35H18.7501V23.15H9.10607V24.35Z" fill="black"/>
<path d="M10.6531 2.5C10.6531 3.2455 10.3674 4.4085 11.6175 5.6585C12.8923 6.93321 12.4135 8.13077 12.4135 8.74884M13.7781 2.5C13.7781 3.2455 13.4924 4.4085 14.7425 5.6585C16.0173 6.93321 15.5384 8.13077 15.5384 8.74884M16.9031 2.5C16.9031 3.2455 16.6174 4.4085 17.8675 5.6585C19.1423 6.93321 18.6634 8.13077 18.6634 8.74884" stroke="black" stroke-width="1.2"/>
</svg>
