<svg width="30" height="30" viewBox="0 0 30 30" fill="none" xmlns="http://www.w3.org/2000/svg">
<path d="M15 16.25H10M15 16.25V26.25M15 16.25H20M10 16.25V26.25M10 16.25H5M10 26.25H15M10 26.25H5M15 26.25H20M20 26.25V16.25M20 26.25H25M20 16.25H25M25 16.25H26.25V25C26.25 25.6904 25.6904 26.25 25 26.25M25 16.25V26.25M5 16.25H3.75V25C3.75 25.6904 4.30964 26.25 5 26.25M5 16.25V26.25M17.5 3.75C17.5 4.99994 17.5 6.25009 18.75 8.125C20.0001 10 20.0001 11.25 20.0001 12.5M22.5 3.75C22.5 4.99994 22.5 6.25009 23.75 8.125C25.0001 10 25.0001 11.25 25.0001 12.5M13.75 16.25C12.75 16.25 11.875 15.1562 11.25 14.0625C10.625 12.9688 9.64562 11.875 8.4375 11.875C7.22938 11.875 6.25 12.8544 6.25 14.0625V16.25M10.625 7.1875C10.625 8.39562 9.64562 9.375 8.4375 9.375C7.22938 9.375 6.25 8.39562 6.25 7.1875C6.25 5.97938 7.22938 5 8.4375 5C9.64562 5 10.625 5.97938 10.625 7.1875Z" stroke="black" stroke-width="1.2"/>
</svg>
