<svg width="25" height="25" viewBox="0 0 25 25" xmlns="http://www.w3.org/2000/svg">
   <path fill-rule="evenodd" clip-rule="evenodd" d="M0 12.5C0 5.60742 5.60742 0 12.5 0C19.3926 0 25 5.60742 25 12.5C25 19.3926 19.3926 25 12.5 25C5.60742 25 0 19.3926 0 12.5ZM1.74588 12.5C1.74588 18.4287 6.57129 23.2541 12.5 23.2541C18.4287 23.2541 23.2541 18.4287 23.2541 12.5C23.2541 6.57129 18.4287 1.74588 12.5 1.74588C6.57129 1.74588 1.74588 6.57129 1.74588 12.5ZM9.54188 5.23145H14.1915C16.5921 5.23145 18.5501 7.19556 18.5501 9.59614C18.5501 11.9967 16.5981 13.9548 14.1915 13.9548H10.4148V20.0532C10.4148 20.5321 10.0208 20.9262 9.54188 20.9262C9.06298 20.9262 8.66895 20.5321 8.66895 20.0532V6.10438C8.66895 5.62548 9.06298 5.23145 9.54188 5.23145ZM10.4148 12.2089H14.1915C15.6282 12.2089 16.8103 11.0389 16.8103 9.59614C16.8103 8.15337 15.6343 6.97732 14.1915 6.97732H10.4148V12.2089Z"/>
</svg>
