<svg width="30" height="30" viewBox="0 0 30 30" fill="none" xmlns="http://www.w3.org/2000/svg">
<g clip-path="url(#clip0)">
<path d="M15.2511 12.0648C14.8823 11.8519 14.5384 11.6124 14.2205 11.3501L10.1062 18.4763L12.2712 19.7263L14.4363 20.9763L18.4848 13.9642C18.3158 13.8452 18.14 13.7327 17.9575 13.6274L16.3337 12.6899L15.2511 12.0648Z" fill="black"/>
<path d="M20.4739 23.0188C22.2671 19.913 21.3615 15.9897 18.4848 13.9642M12.5059 1.81964C10.4348 5.40684 11.6639 9.99376 15.2511 12.0648L16.3337 12.6899L17.9575 13.6274C18.14 13.7327 18.3158 13.8452 18.4848 13.9642M7.29368 23.3477L10.1062 18.4763M14.2205 11.3501L10.1062 18.4763M9.74881 29.0953L14.4363 20.9763M18.4848 13.9642L14.4363 20.9763M10.1062 18.4763L12.2712 19.7263L14.4363 20.9763" stroke="black" stroke-width="1.2"/>
<circle cx="19.375" cy="8.6722" r="1.9" transform="rotate(30 19.375 8.6722)" fill="black" stroke="black" stroke-width="1.2"/>
<path d="M17.1704 3.79084C16.8183 4.40066 16.0385 4.6096 15.4287 4.25752C14.8189 3.90544 14.6099 3.12566 14.962 2.51584C15.3141 1.90602 16.0939 1.69707 16.7037 2.04916C17.3135 2.40124 17.5224 3.18102 17.1704 3.79084Z" fill="black" stroke="black" stroke-width="1.2"/>
</g>
<defs>
<clipPath id="clip0">
<rect width="30" height="30" fill="white"/>
</clipPath>
</defs>
</svg>
