<svg width="30" height="30" viewBox="0 0 30 30" fill="none" xmlns="http://www.w3.org/2000/svg">
<path d="M2.5 19.375C2.89473 19.375 3.41412 19.188 3.94006 18.9321C5.39705 18.2233 7.14583 18.1399 8.46428 19.0816C9.75682 20.0049 11.5065 19.9954 12.799 19.0721C14.1076 18.1374 15.8924 18.1374 17.201 19.0721C18.4935 19.9954 20.2432 20.0049 21.5357 19.0816C22.8542 18.1399 24.603 18.2233 26.0599 18.9321C26.5859 19.188 27.1053 19.375 27.5 19.375M2.5 24.7539C2.89473 24.7539 3.41412 24.5669 3.94006 24.311C5.39705 23.6022 7.14583 23.5188 8.46428 24.4605C9.75682 25.3838 11.5065 25.3743 12.799 24.451C14.1076 23.5163 15.8924 23.5163 17.201 24.451C18.4935 25.3743 20.2432 25.3838 21.5357 24.4605C22.8542 23.5188 24.603 23.6022 26.0599 24.311C26.5859 24.5669 27.1053 24.7539 27.5 24.7539" stroke="black" stroke-width="1.2"/>
<mask id="mask0" mask-type="alpha" maskUnits="userSpaceOnUse" x="2" y="1" width="26" height="15">
<path d="M3.94006 14.3111C3.41412 14.5669 2.89473 14.7539 2.5 14.7539V1.25H27.5V14.7539C27.1053 14.7539 26.5859 14.5669 26.0599 14.3111C24.603 13.6023 22.8542 13.5188 21.5357 14.4605C20.2432 15.3838 18.4935 15.3743 17.201 14.451C15.8924 13.5163 14.1076 13.5163 12.799 14.451C11.5065 15.3743 9.75682 15.3838 8.46428 14.4605C7.14583 13.5188 5.39705 13.6023 3.94006 14.3111Z" fill="white"/>
</mask>
<g mask="url(#mask0)">
<path d="M20.0001 15C18.125 15 16.875 13.125 15 13.125C13.125 13.125 11.875 15 9.37507 15L12.1876 12.5L15.0001 10L17.5001 12.5L20.0001 15Z" fill="black"/>
<path d="M15.0001 10L12.6875 7.68739C11.7014 6.70135 10.4994 5.97046 9.18559 5.54681C8.24283 5.2428 7.24056 5.21252 6.25 5.21252M15.0001 10L12.1876 12.5L9.37507 15C11.875 15 13.125 13.125 15 13.125C16.875 13.125 18.125 15 20.0001 15L17.5001 12.5L15.0001 10Z" stroke="black" stroke-width="1.2"/>
</g>
<path d="M23.15 6.875C23.15 8.26952 22.0195 9.4 20.625 9.4C19.2305 9.4 18.1 8.26952 18.1 6.875C18.1 5.48048 19.2305 4.35 20.625 4.35C22.0195 4.35 23.15 5.48048 23.15 6.875Z" fill="black" stroke="black" stroke-width="1.2"/>
</svg>
