<svg width="30" height="30" viewBox="0 0 30 30" fill="none" xmlns="http://www.w3.org/2000/svg">
<path d="M3.75 3.75L4.11 3.27C3.92819 3.13364 3.68494 3.11171 3.48167 3.21334C3.2784 3.31498 3.15 3.52274 3.15 3.75H3.75ZM26.25 3.75H26.85C26.85 3.52274 26.7216 3.31498 26.5183 3.21334C26.3151 3.11171 26.0718 3.13364 25.89 3.27L26.25 3.75ZM25.65 16.25C25.65 22.1318 20.8818 26.9 15 26.9V28.1C21.5446 28.1 26.85 22.7946 26.85 16.25H25.65ZM15 26.9C9.11817 26.9 4.35 22.1318 4.35 16.25H3.15C3.15 22.7946 8.45543 28.1 15 28.1V26.9ZM4.35 16.25V3.75H3.15V16.25H4.35ZM25.65 3.75V16.25H26.85V3.75H25.65ZM3.75 3.75C3.39 4.23 3.39016 4.23012 3.39034 4.23025C3.39042 4.23032 3.39062 4.23047 3.39079 4.23059C3.39113 4.23085 3.39155 4.23116 3.39205 4.23153C3.39303 4.23227 3.39433 4.23323 3.39592 4.23442C3.39912 4.23679 3.40353 4.24005 3.40914 4.24417C3.42036 4.25242 3.43638 4.26412 3.4571 4.27903C3.49852 4.30886 3.55873 4.35157 3.63679 4.40532C3.79289 4.5128 4.02057 4.66453 4.31249 4.84572C4.89598 5.20789 5.73808 5.68897 6.77982 6.16978C8.85834 7.1291 11.7591 8.1 15 8.1V6.9C11.9909 6.9 9.26666 5.9959 7.28268 5.08022C6.29317 4.62353 5.49464 4.16711 4.94532 3.82615C4.67084 3.65578 4.45906 3.51454 4.31731 3.41694C4.24645 3.36815 4.19313 3.3303 4.15826 3.30519C4.14083 3.29264 4.12801 3.28328 4.11993 3.27734C4.11589 3.27437 4.11303 3.27225 4.11137 3.27102C4.11054 3.2704 4.11001 3.27001 4.10978 3.26984C4.10967 3.26975 4.10963 3.26972 4.10966 3.26975C4.10968 3.26976 4.10977 3.26983 4.10978 3.26983C4.10988 3.26991 4.11 3.27 3.75 3.75ZM15 8.1C18.2409 8.1 21.1417 7.1291 23.2202 6.16978C24.2619 5.68897 25.104 5.20789 25.6875 4.84572C25.9794 4.66453 26.2071 4.5128 26.3632 4.40532C26.4413 4.35157 26.5015 4.30886 26.5429 4.27903C26.5636 4.26412 26.5796 4.25242 26.5909 4.24417C26.5965 4.24005 26.6009 4.23679 26.6041 4.23442C26.6057 4.23323 26.607 4.23227 26.608 4.23153C26.6084 4.23116 26.6089 4.23085 26.6092 4.23059C26.6094 4.23047 26.6096 4.23032 26.6097 4.23025C26.6098 4.23012 26.61 4.23 26.25 3.75C25.89 3.27 25.8901 3.26991 25.8902 3.26983C25.8902 3.26983 25.8903 3.26976 25.8903 3.26975C25.8904 3.26972 25.8903 3.26975 25.8902 3.26984C25.89 3.27001 25.8895 3.2704 25.8886 3.27102C25.887 3.27225 25.8841 3.27437 25.8801 3.27734C25.872 3.28328 25.8592 3.29264 25.8417 3.30519C25.8069 3.3303 25.7536 3.36815 25.6827 3.41694C25.5409 3.51454 25.3292 3.65578 25.0547 3.82615C24.5054 4.16711 23.7068 4.62353 22.7173 5.08022C20.7333 5.9959 18.0091 6.9 15 6.9V8.1Z" fill="black"/>
<path d="M20.3782 20L20.8328 20.3915C20.9859 20.2137 21.0213 19.9631 20.9235 19.7499C20.8258 19.5367 20.6127 19.4 20.3782 19.4V20ZM9.62207 20V19.4C9.38751 19.4 9.17446 19.5367 9.07668 19.7499C8.97891 19.9631 9.01434 20.2137 9.16739 20.3915L9.62207 20ZM19.9235 19.6085C18.6032 21.1418 17.2058 22.525 15.0002 22.525V23.725C17.7946 23.725 19.5107 21.927 20.8328 20.3915L19.9235 19.6085ZM15.0002 22.525C12.7946 22.525 11.397 21.1418 10.0767 19.6085L9.16739 20.3915C10.4895 21.927 12.2058 23.725 15.0002 23.725V22.525ZM20.3782 19.4H9.62207V20.6H20.3782V19.4Z" fill="black"/>
<path d="M11.25 15.65C10.2007 15.65 9.35 14.7993 9.35 13.75C9.35 12.7007 10.2007 11.85 11.25 11.85C12.2993 11.85 13.15 12.7007 13.15 13.75C13.15 14.7993 12.2993 15.65 11.25 15.65ZM18.75 15.65C17.7007 15.65 16.85 14.7993 16.85 13.75C16.85 12.7007 17.7007 11.85 18.75 11.85C19.7993 11.85 20.65 12.7007 20.65 13.75C20.65 14.7993 19.7993 15.65 18.75 15.65Z" stroke="black" stroke-width="1.2"/>
</svg>
