<svg width="30" height="30" viewBox="0 0 30 30" fill="none" xmlns="http://www.w3.org/2000/svg">
<path d="M2.5 19.375C2.89473 19.375 3.41412 19.188 3.94006 18.9321C5.39705 18.2233 7.14583 18.1399 8.46428 19.0816C9.75682 20.0049 11.5065 19.9954 12.799 19.0721C14.1076 18.1374 15.8924 18.1374 17.201 19.0721C18.4935 19.9954 20.2432 20.0049 21.5357 19.0816C22.8542 18.1399 24.603 18.2233 26.0599 18.9321C26.5859 19.188 27.1053 19.375 27.5 19.375M2.5 24.7539C2.89473 24.7539 3.41412 24.5669 3.94006 24.311C5.39705 23.6022 7.14583 23.5188 8.46428 24.4605C9.75682 25.3838 11.5065 25.3743 12.799 24.451C14.1076 23.5163 15.8924 23.5163 17.201 24.451C18.4935 25.3743 20.2432 25.3838 21.5357 24.4605C22.8542 23.5188 24.603 23.6022 26.0599 24.311C26.5859 24.5669 27.1053 24.7539 27.5 24.7539" stroke="black" stroke-width="1.2"/>
<path d="M7.07212 6.34891H7.23781L7.35497 6.23176L8.75016 4.83656L10.1454 6.23176L10.2625 6.34891H10.4282H12.4013V8.32201V8.48769L12.5185 8.60485L13.9136 10L12.5185 11.3952L12.4013 11.5124V11.6781V13.6512H10.4282H10.2625L10.1453 13.7683L8.75016 15.1635L7.35498 13.7683L7.23782 13.6512H7.07214H5.09903V11.6781V11.5124L4.98187 11.3952L3.58668 10L4.98187 8.60485L5.09903 8.48769V8.32201V6.34891H7.07212Z" stroke="black" stroke-width="0.8"/>
<path d="M10.9543 10C10.9543 11.2174 9.96749 12.2042 8.75016 12.2042C7.53283 12.2042 6.546 11.2174 6.546 10C6.546 8.78271 7.53283 7.79587 8.75016 7.79587C9.96749 7.79587 10.9543 8.78271 10.9543 10Z" fill="black" stroke="black" stroke-width="0.8"/>
</svg>
