<svg width="30" height="30" viewBox="0 0 30 30" fill="none" xmlns="http://www.w3.org/2000/svg">
<path d="M14.9999 27.5L14.8331 28.0763L14.9999 28.1246L15.1667 28.0763L14.9999 27.5ZM1.52079 13.9502L0.939975 14.1007C0.965145 14.1978 1.01427 14.2871 1.08285 14.3603L1.52079 13.9502ZM28.4792 13.9502L28.9171 14.3603C28.9857 14.2871 29.0349 14.1978 29.06 14.1007L28.4792 13.9502ZM26.1335 24.2778L25.9667 23.7015L26.1335 24.2778ZM27.3659 22.3765L26.7885 22.5398L27.3659 22.3765ZM14.3999 4.09575L14.3999 27.5L15.5999 27.5L15.5999 4.09574L14.3999 4.09575ZM15.556 27.2746L6.56991 5.10219L5.45777 5.55291L14.4438 27.7254L15.556 27.2746ZM15.1667 26.9237L4.03299 23.7015L3.69939 24.8542L14.8331 28.0763L15.1667 26.9237ZM15.4165 27.0682L7.24095 19.1814L6.4078 20.045L14.5833 27.9318L15.4165 27.0682ZM7.26231 19.203L1.95872 13.5401L1.08285 14.3603L6.38644 20.0233L7.26231 19.203ZM2.1016 13.7997C1.80691 12.6625 1.68925 11.1212 2.21008 9.65808C2.72134 8.22181 3.86858 6.79847 6.22984 5.88732L5.79784 4.76778C3.128 5.798 1.71427 7.47263 1.07957 9.25566C0.454421 11.0118 0.605782 12.8111 0.939975 14.1007L2.1016 13.7997ZM6.50744 5.66867C7.09478 4.81877 8.11488 3.77377 9.46939 3.32461C10.7809 2.88973 12.5105 2.97808 14.6398 4.57567L15.36 3.61582C12.9612 1.81601 10.8268 1.61025 9.09169 2.1856C7.39962 2.74669 6.19069 4.01629 5.52024 4.98643L6.50744 5.66867ZM3.21119 22.5398C3.40462 21.8557 3.75064 21.2001 4.29369 20.7567C4.81885 20.3278 5.58714 20.0483 6.74246 20.2076L6.90629 19.0188C5.45989 18.8195 4.34721 19.1637 3.53469 19.8272C2.74005 20.4761 2.29166 21.3815 2.05647 22.2133L3.21119 22.5398ZM15.556 27.7254L24.5422 5.55294L23.4301 5.1022L14.4438 27.2746L15.556 27.7254ZM15.1667 28.0763L26.3003 24.8542L25.9667 23.7015L14.8331 26.9237L15.1667 28.0763ZM15.4165 27.9318L23.5919 20.045L22.7588 19.1814L14.5833 27.0682L15.4165 27.9318ZM23.6133 20.0233L28.9171 14.3603L28.0413 13.54L22.7374 19.203L23.6133 20.0233ZM29.06 14.1007C29.3942 12.8111 29.5456 11.0118 28.9204 9.25566C28.2857 7.47264 26.872 5.79802 24.2021 4.7678L23.7701 5.88734C26.1314 6.79849 27.2787 8.22183 27.7899 9.65809C28.3108 11.1212 28.1931 12.6625 27.8984 13.7997L29.06 14.1007ZM24.4797 4.98645C23.8093 4.0163 22.6003 2.7467 20.9082 2.18561C19.173 1.61026 17.0385 1.816 14.6398 3.61582L15.36 4.57567C17.4892 2.97809 19.2189 2.88973 20.5305 3.32463C21.8851 3.77379 22.9052 4.81881 23.4925 5.66869L24.4797 4.98645ZM27.9432 22.2133C27.7081 21.3815 27.2597 20.4761 26.465 19.8272C25.6525 19.1637 24.5398 18.8195 23.0934 19.0188L23.2572 20.2076C24.4126 20.0483 25.1809 20.3278 25.706 20.7567C26.2491 21.2001 26.5951 21.8557 26.7885 22.5398L27.9432 22.2133ZM26.3003 24.8542C27.3653 24.546 28.3029 23.4853 27.9432 22.2133L26.7885 22.5398C26.9134 22.9814 26.6124 23.5146 25.9667 23.7015L26.3003 24.8542ZM4.03299 23.7015C3.38727 23.5146 3.08631 22.9814 3.21119 22.5398L2.05647 22.2133C1.69679 23.4853 2.63442 24.546 3.69939 24.8542L4.03299 23.7015Z" fill="black"/>
</svg>
