<svg width="30" height="30" viewBox="0 0 30 30" fill="none" xmlns="http://www.w3.org/2000/svg">
<path d="M11.3761 18.75C11.1859 18.5637 11.0042 18.3687 10.8316 18.1658M11.3761 18.75C11.5524 18.9228 11.7359 19.0881 11.9263 19.2456M11.3761 18.75L4.37478 25.7513M4.37478 25.7513C4.16688 25.5014 4.02814 25.2654 3.93555 25.0618L10.8316 18.1658M4.37478 25.7513C4.57191 25.9544 4.79876 26.0791 5.0172 26.1547L11.9263 19.2456M10.8316 18.1658C10.6975 18.0081 10.5689 17.8457 10.4461 17.6787C9.37977 16.2287 8.74978 14.4379 8.74978 12.5C8.74978 7.66751 12.6673 3.75 17.4998 3.75C22.3323 3.75 26.2498 7.66751 26.2498 12.5C26.2498 17.3325 22.3323 21.25 17.4998 21.25C15.6407 21.25 13.9171 20.6702 12.4998 19.6816C12.3025 19.5441 12.1112 19.3985 11.9263 19.2456M23.7498 25C23.7498 25.6904 24.3095 26.25 24.9998 26.25C25.6902 26.25 26.2498 25.6904 26.2498 25C26.2498 24.3096 25.6902 23.75 24.9998 23.75C24.3095 23.75 23.7498 24.3096 23.7498 25Z" stroke="black" stroke-width="1.2"/>
</svg>
