<svg width="30" height="30" viewBox="0 0 30 30" fill="none" xmlns="http://www.w3.org/2000/svg">
<path d="M8.74991 23.75L3.25435 18.2544C2.97594 17.976 3.17312 17.5 3.56685 17.5C3.68406 17.5 3.79647 17.5466 3.87935 17.6294L8.74991 22.5H26.8749C27.2201 22.5 27.4999 22.7798 27.4999 23.125C27.4999 23.4702 27.2201 23.75 26.8749 23.75H22.4999M8.74991 23.75L3.74991 28.75M8.74991 23.75H22.4999M22.4999 23.75L27.4999 28.75M14.9999 2.5C9.46736 2.5 5.70054 6.37353 3.74994 10H11.2499M14.9999 2.5C20.5325 2.5 24.2993 6.37353 26.2499 10H18.7499M14.9999 2.5C13.7499 3.75 11.2499 7 11.2499 10M14.9999 2.5C16.2499 3.95833 18.7499 6.875 18.7499 10M14.9999 10V23.125M14.9999 10H11.2499M14.9999 10H18.7499" stroke="black" stroke-width="1.2"/>
</svg>
