<svg width="30" height="30" viewBox="0 0 30 30" fill="none" xmlns="http://www.w3.org/2000/svg">
<path d="M15 3.75C12.6873 3.75 10.5376 4.44784 8.75 5.64444M15 3.75V7.5M15 3.75C20.9033 3.75 25.7445 8.2968 26.2129 14.0794M15 15L21.25 18.5156M15 15L8.75 18.6076M15 15V7.5M5.25505 20.625C4.29784 18.9703 3.75 17.0491 3.75 15C3.75 11.0995 5.73504 7.66259 8.75 5.64444M5.25505 20.625C6.36123 22.5373 8.01413 24.0937 10 25.0806M5.25505 20.625L8.75 18.6076M25 20.625L21.25 18.5156M21.25 18.5156L10 25.0806M10 25.0806C11.5062 25.8291 13.2039 26.25 15 26.25C21.2132 26.25 26.25 21.2132 26.25 15C26.25 14.69 26.2375 14.383 26.2129 14.0794M8.75 18.6076V5.64444M15 7.5L26.2129 14.0794" stroke="black" stroke-width="1.2"/>
</svg>
