<svg width="30" height="30" viewBox="0 0 30 30" fill="none" xmlns="http://www.w3.org/2000/svg">
<path d="M2.5 18.125C2.89473 18.125 3.41412 17.938 3.94006 17.6821C5.39705 16.9733 7.14583 16.8899 8.46428 17.8316C9.75682 18.7549 11.5065 18.7454 12.799 17.8221C14.1076 16.8874 15.8924 16.8874 17.201 17.8221C18.4935 18.7454 20.2432 18.7549 21.5357 17.8316C22.8542 16.8899 24.603 16.9733 26.0599 17.6821C26.5859 17.938 27.1053 18.125 27.5 18.125M2.5 23.5039C2.89473 23.5039 3.41412 23.3169 3.94006 23.061C5.39705 22.3522 7.14583 22.2688 8.46428 23.2105C9.75682 24.1338 11.5065 24.1243 12.799 23.201C14.1076 22.2663 15.8924 22.2663 17.201 23.201C18.4935 24.1243 20.2432 24.1338 21.5357 23.2105C22.8542 22.2688 24.603 22.3522 26.0599 23.061C26.5859 23.3169 27.1053 23.5039 27.5 23.5039" stroke="black" stroke-width="1.2"/>
<path d="M2.5 7.25389C2.89473 7.25389 3.41412 7.06692 3.94006 6.81105C5.39705 6.10225 7.14583 6.01877 8.46428 6.96052C9.75682 7.88377 11.5065 7.87426 12.799 6.95102C14.1076 6.01633 15.8924 6.01633 17.201 6.95102C18.4935 7.87426 20.2432 7.88377 21.5357 6.96052C22.8542 6.01877 24.603 6.10225 26.0599 6.81105C26.5859 7.06692 27.1053 7.25389 27.5 7.25389M2.5 12.6328C2.89473 12.6328 3.41412 12.4458 3.94006 12.1899C5.39705 11.4811 7.14583 11.3977 8.46428 12.3394C9.75682 13.2627 11.5065 13.2532 12.799 12.3299C14.1076 11.3952 15.8924 11.3952 17.201 12.3299C18.4935 13.2532 20.2432 13.2627 21.5357 12.3394C22.8542 11.3977 24.603 11.4811 26.0599 12.1899C26.5859 12.4458 27.1053 12.6328 27.5 12.6328" stroke="black" stroke-width="1.2"/>
</svg>
