<svg width="18" height="25" viewBox="0 0 18 25"  xmlns="http://www.w3.org/2000/svg">
   <path d="M11.3087 2.75626C10.7313 1.90726 10.2219 1.12618 9.7465 0.413023C9.67858 0.311143 9.5767 0.209264 9.47482 0.141344C9.0673 -0.130336 8.52394 0.00550398 8.25226 0.413023C7.81078 1.12618 7.30138 1.8733 6.6901 2.75626C4.00727 6.69561 0 12.6386 0 16.0346C0 18.5137 1.0188 20.755 2.64887 22.3851C4.27895 23.9812 6.5203 25 8.99938 25C11.4785 25 13.7198 23.9812 15.3499 22.3511C16.98 20.7211 17.9988 18.4797 17.9988 16.0006C17.9988 12.6046 13.9915 6.69561 11.3087 2.75626ZM14.1273 21.1286C12.8029 22.453 11.003 23.2341 8.99938 23.2341C6.99574 23.2341 5.19587 22.4191 3.87143 21.1286C2.54699 19.8041 1.76592 18.0043 1.76592 16.0006C1.76592 13.148 5.60339 7.47669 8.15038 3.70713C8.45602 3.26566 8.7277 2.82418 8.99938 2.45062C9.27106 2.82418 9.54274 3.26566 9.84838 3.70713C12.3954 7.51065 16.2328 13.148 16.2328 16.0006C16.2328 18.0043 15.4178 19.8041 14.1273 21.1286Z" />
</svg>
