<svg width="27" height="27" viewBox="0 0 27 27" xmlns="http://www.w3.org/2000/svg">
   <path fill-rule="evenodd" clip-rule="evenodd" d="M11.5744 0.899902C10.0239 0.899902 8.71582 2.18394 8.71582 3.83009C8.71582 5.41453 9.96376 6.76027 11.5744 6.76027C13.1851 6.76027 14.4331 5.41453 14.4331 3.83009C14.4331 2.24427 13.1263 0.899902 11.5744 0.899902ZM9.77789 3.77113C9.77789 2.7626 10.5976 1.92537 11.5744 1.92537C12.5513 1.92537 13.371 2.7626 13.371 3.77113C13.371 4.77965 12.5513 5.61688 11.5744 5.61688C10.5976 5.61688 9.77789 4.77965 9.77789 3.77113ZM18.6472 20.0628C17.3555 23.6409 13.9343 26.1001 10.0809 26.1001C5.02322 26.1001 0.900391 21.8666 0.900391 16.6841C0.900391 11.8141 4.54102 7.78205 9.17687 7.31352C9.26446 7.24881 9.37523 7.20874 9.50606 7.20874H13.4716C13.7508 7.20874 14.0313 7.4247 14.0313 7.78044V9.921H18.0118C18.989 9.921 19.7785 10.7347 19.7785 11.7309C19.7785 12.7271 18.989 13.5408 18.0118 13.5408H14.0313V15.1686H19.0463C19.6596 15.1686 20.2666 15.5441 20.5705 16.1045L23.2998 20.888H24.3336C25.3108 20.888 26.1003 21.7017 26.1003 22.6979V22.7036C26.0403 23.7511 25.2561 24.5667 24.2762 24.5667H22.2072C21.5939 24.5667 20.9869 24.1913 20.683 23.6309L20.6825 23.6299L18.6472 20.0628ZM18.9378 18.5694L21.544 23.1149C21.7068 23.3359 21.9094 23.4823 22.1497 23.4823H24.2187C24.6208 23.4823 24.9233 23.1757 24.9233 22.7568C24.9233 22.3379 24.6208 22.0314 24.2187 22.0314H22.8969C22.8004 22.0314 22.7071 22.0151 22.6274 21.964C22.5485 21.9134 22.4946 21.8363 22.4603 21.7366L19.5945 16.7384C19.4318 16.5174 19.2292 16.371 18.9888 16.371H13.4716C13.1923 16.371 12.9118 16.155 12.9118 15.7993V13.087C12.9118 12.8068 13.1187 12.5153 13.4716 12.5153H17.9543C18.3565 12.5153 18.6589 12.2088 18.6589 11.7899C18.6589 11.371 18.3565 11.0644 17.9543 11.0644H13.4716C13.1923 11.0644 12.9118 10.8484 12.9118 10.4927V8.35214H10.3005C10.2359 8.38917 10.1618 8.41146 10.0809 8.41146C10.0567 8.41146 10.0325 8.41157 10.0084 8.41179V16.33C10.0084 17.0979 10.6516 17.7647 11.4635 17.8219H18.2417C18.3381 17.8219 18.4315 17.8382 18.5112 17.8893C18.59 17.9399 18.644 18.017 18.6782 18.1167L18.892 18.4895C18.9096 18.5147 18.9249 18.5414 18.9378 18.5694ZM17.9257 18.8474H11.4601C10.0806 18.8474 8.94629 17.6799 8.94629 16.271V8.49213C5.00049 9.05809 1.96246 12.5334 1.96246 16.7431C1.96246 21.2888 5.5978 25.0157 10.0809 25.0157C13.7644 25.0157 16.957 22.481 17.9257 18.8474Z"/>
</svg>
