<svg width="25" height="19" viewBox="0 0 25 19" xmlns="http://www.w3.org/2000/svg">
   <path fill-rule="evenodd" clip-rule="evenodd" d="M12.4998 0C17.1823 0 21.5284 1.84521 24.7378 5.19556C25.1056 5.57935 25.0838 6.18042 24.6893 6.53833C24.5011 6.70898 24.2621 6.79346 24.0236 6.79346C23.7622 6.79346 23.5014 6.69189 23.309 6.49097C20.4731 3.53076 16.6344 1.90039 12.5002 1.90015C8.36555 1.90039 4.52688 3.53076 1.69095 6.49097C1.32322 6.875 0.705305 6.896 0.310728 6.53833C-0.0838037 6.18066 -0.105532 5.57935 0.262144 5.19556C3.47165 1.84521 7.81769 0 12.4998 0ZM14.0625 17.4324C14.0625 18.2983 13.3411 19.0002 12.4512 19.0002C11.5613 19.0002 10.8398 18.2983 10.8398 17.4324C10.8398 16.5667 11.5613 15.8647 12.4512 15.8647C13.3411 15.8647 14.0625 16.5667 14.0625 17.4324ZM21.1521 9.11938C18.7797 6.7937 15.707 5.51318 12.5 5.51318C9.29223 5.51318 6.21948 6.79395 3.8478 9.11963C3.46792 9.49194 3.47031 10.0935 3.85317 10.4631C4.23604 10.8328 4.85434 10.8306 5.23423 10.458C7.23642 8.49463 9.81679 7.41357 12.5 7.41333C15.1825 7.41333 17.7629 8.49463 19.7658 10.458C19.9567 10.6453 20.2078 10.7388 20.459 10.7388C20.7076 10.7388 20.9564 10.647 21.1469 10.4631C21.5297 10.0935 21.5321 9.49194 21.1521 9.11938ZM12.491 11.0688C14.1522 11.0688 15.9734 11.8296 17.2439 13.0542C17.627 13.4236 17.6299 14.0251 17.2503 14.3979C16.8707 14.7708 16.2523 14.7734 15.8692 14.4041C14.9649 13.5325 13.6383 12.969 12.4904 12.969H12.4193C11.2712 12.969 9.94522 13.5322 9.04078 14.4041C8.8504 14.5876 8.60191 14.6792 8.35353 14.6792C8.10211 14.6792 7.85074 14.5854 7.65977 14.3979C7.28019 14.0251 7.28306 13.4236 7.66617 13.0542C8.93663 11.8296 10.7586 11.0688 12.4199 11.0688H12.491Z" />
</svg>
